<svg width="171" height="176" viewBox="0 0 171 176" fill="none" xmlns="http://www.w3.org/2000/svg">
<g clip-path="url(#clip0_901_12451)">
<path d="M148.515 101.824C148.515 142.79 115.306 176 74.3399 176C33.3739 176 0.164551 142.79 0.164551 101.824C0.164551 60.8577 33.3739 27.6484 74.3399 27.6484C115.306 27.6484 148.515 60.8577 148.515 101.824Z" fill="#206A3B"/>
<path d="M129.398 101.824C129.398 132.231 104.748 156.881 74.34 156.881C43.9322 156.881 19.282 132.231 19.282 101.824C19.282 71.416 43.9322 46.7658 74.34 46.7658C104.748 46.7658 129.398 71.416 129.398 101.824Z" fill="#2DA74B"/>
<path d="M110.281 101.824C110.281 121.673 94.1894 137.765 74.3399 137.765C54.4903 137.765 38.3992 121.673 38.3992 101.824C38.3992 81.9745 54.4903 65.8832 74.3399 65.8832C94.1894 65.8832 110.281 81.9745 110.281 101.824Z" fill="#66C65B"/>
<path d="M91.1632 101.824C91.1632 111.115 83.6312 118.647 74.34 118.647C65.0487 118.647 57.5166 111.115 57.5166 101.824C57.5166 92.5328 65.0487 85.0007 74.34 85.0007C83.6312 85.0007 91.1632 92.5328 91.1632 101.824Z" fill="#1E1C1B"/>
<path d="M75.0326 105.22L69.9974 100.497L133.755 32.5227L138.79 37.2454L75.0326 105.22Z" fill="#1E1C1B"/>
<path d="M150.619 37.0317L132.651 38.1855L133.805 20.2184C133.9 18.7316 134.534 17.3303 135.587 16.277L151.716 0.14761C152.069 -0.205055 152.663 0.121189 152.555 0.609016L147.811 22.0424C147.68 22.6312 148.205 23.1563 148.794 23.0259L170.228 18.2811C170.715 18.1739 171.041 18.7674 170.688 19.12L154.559 35.2496C153.506 36.3027 152.105 36.9363 150.619 37.0317Z" fill="#1E1C1B"/>
</g>
<defs>
<clipPath id="clip0_901_12451">
<rect width="170.671" height="176" fill="white" transform="translate(0.164429)"/>
</clipPath>
</defs>
</svg>
