<svg width="169" height="168" viewBox="0 0 169 168" fill="none" xmlns="http://www.w3.org/2000/svg">
<g clip-path="url(#clip0_901_12453)">
<path d="M12.632 0.694572C12.9857 -0.231426 14.2951 -0.231426 14.6487 0.694572C15.8833 3.92773 17.9849 9.05052 19.4066 10.4723C20.86 11.9258 24.339 14.0897 26.3912 15.3115C27.0938 15.7298 27.0938 16.7474 26.3912 17.1658C24.339 18.3876 20.86 20.5514 19.4066 22.0048C17.9849 23.4266 15.8833 28.5496 14.6487 31.7826C14.2951 32.7087 12.9857 32.7087 12.632 31.7826C11.3975 28.5496 9.29591 23.4266 7.87414 22.0048C6.42071 20.5514 2.94185 18.3876 0.88956 17.1658C0.186879 16.7474 0.186879 15.7298 0.88956 15.3115C2.94185 14.0897 6.42071 11.9258 7.87414 10.4723C9.29591 9.05052 11.3975 3.92773 12.632 0.694572Z" fill="#4ABD56"/>
<path d="M157.807 142.097C158.038 141.487 158.899 141.487 159.13 142.097C160.047 144.521 161.72 148.659 162.838 149.778C163.979 150.918 166.763 152.634 168.291 153.539C168.754 153.814 168.754 154.482 168.291 154.756C166.763 155.661 163.979 157.378 162.838 158.518C161.72 159.636 160.047 163.774 159.13 166.198C158.899 166.807 158.038 166.807 157.807 166.198C156.889 163.774 155.217 159.636 154.098 158.518C152.958 157.378 150.174 155.661 148.646 154.756C148.183 154.482 148.183 153.814 148.646 153.539C150.174 152.634 152.958 150.918 154.098 149.778C155.217 148.659 156.889 144.521 157.807 142.097Z" fill="#4ABD56"/>
<path d="M57.2772 72.7102L30.2832 49.1974L57.2772 25.6844H111.265L138.259 49.1974L111.265 72.7102H57.2772Z" fill="#4ABD56"/>
<path d="M111.265 72.7103L84.2709 105.752L57.2771 72.7103H111.265Z" fill="#2DA74B"/>
<path d="M31.4465 91.5662L57.3006 72.6634L84.2946 105.705L31.4465 91.5662Z" fill="#206A3B"/>
<path d="M31.4465 91.566L84.2709 168L84.2946 105.705L31.4465 91.566Z" fill="#2DA74B"/>
<path d="M137.143 91.566L84.3182 168L84.2947 105.705L137.143 91.566Z" fill="#206A3B"/>
<path d="M31.4521 91.5948L84.3182 168L14.5964 80.0788L31.4521 91.5948Z" fill="#4ABD56"/>
<path d="M84.3181 168L154.04 80.0788L137.184 91.5948" fill="#2DA74B"/>
<path d="M31.4465 91.5662L57.3006 72.6633L30.2832 49.1975L31.4465 91.5662Z" fill="#2DA74B"/>
<path d="M31.4466 91.5662L14.5964 80.079L30.2833 49.1975L31.4466 91.5662Z" fill="#206A3B"/>
<path d="M137.095 91.5662L153.946 80.079L138.258 49.1975L137.095 91.5662Z" fill="#206A3B"/>
<path d="M137.143 91.5662L111.288 72.6633L138.306 49.1975L137.143 91.5662Z" fill="#2DA74B"/>
<path d="M137.143 91.5662L111.288 72.6634L84.2947 105.705L137.143 91.5662Z" fill="#4ABD56"/>
</g>
<defs>
<clipPath id="clip0_901_12453">
<rect width="168.275" height="168" fill="white" transform="translate(0.362549)"/>
</clipPath>
</defs>
</svg>
