<svg width="108" height="141" viewBox="0 0 108 141" fill="none" xmlns="http://www.w3.org/2000/svg">
<g filter="url(#filter0_d_1295_76257)">
<rect x="11" y="9" width="85.6506" height="121.962" rx="7.0755" stroke="white" stroke-width="6" shape-rendering="crispEdges"/>
<path d="M18.0228 12H89.6279C91.853 12 93.6506 13.7914 93.6506 16.0102V101.374C93.6506 103.587 91.853 105.385 89.6279 105.385H18.0228C15.7977 105.385 14 103.587 14 101.374V16.0102C14 13.7977 15.7977 12 18.0228 12Z" fill="#285C4D"/>
<path d="M35.5659 86.4342L34.3151 82.5372H35.0316L35.6853 84.7811L35.9179 85.6234C35.9305 85.5857 35.9996 85.3217 36.1379 84.8251L36.7853 82.5372H37.4893L38.0927 84.7937L38.2938 85.5417L38.5327 84.7937L39.2429 82.5372H39.9155L38.6144 86.4342H37.9167L37.2818 84.1023L37.1247 83.4423L36.2887 86.4405H35.5722L35.5659 86.4342Z" fill="white"/>
<path d="M41.3672 86.4342L40.1163 82.5372H40.8392L41.4929 84.7811L41.7254 85.6234C41.738 85.5857 41.8071 85.3217 41.9454 84.8251L42.5866 82.5372H43.2905L43.9003 84.7937L44.0951 85.5417L44.334 84.7937L45.0505 82.5372H45.723L44.4157 86.4342H43.7242L43.0831 84.1023L42.926 83.4423L42.0837 86.4405H41.3734L41.3672 86.4342Z" fill="white"/>
<path d="M47.168 86.4342L45.9235 82.5372H46.64L47.2937 84.7811L47.5263 85.6234C47.5326 85.5857 47.608 85.3217 47.74 84.8251L48.3874 82.5372H49.0914L49.6948 84.7937L49.8896 85.5417L50.1285 84.7937L50.8451 82.5372H51.5176L50.2165 86.4342H49.5188L48.884 84.1023L48.7268 83.4423L47.8908 86.4405H47.1743L47.168 86.4342Z" fill="white"/>
<path d="M52.4425 85.686H51.6631V86.434H52.4425V85.686Z" fill="white"/>
<path d="M53.6179 86.4341V83.0462H53.0208V82.537H53.6179V82.1222C53.6179 81.8582 53.6431 81.6696 53.6871 81.5376C53.7562 81.3679 53.8756 81.2296 54.039 81.1228C54.2025 81.0159 54.4413 80.9656 54.743 80.9656C54.9316 80.9656 55.1453 80.9908 55.3841 81.0348L55.2836 81.6068C55.139 81.5816 55.0007 81.5691 54.8813 81.5691C54.6739 81.5691 54.523 81.6068 54.4413 81.6948C54.3533 81.7828 54.3093 81.9399 54.3093 82.1787V82.537H55.1013V83.0524H54.3093V86.4341H53.6242H53.6179Z" fill="white"/>
<path d="M55.4467 85.2588L56.1381 85.1708C56.1758 85.4285 56.2763 85.6296 56.4523 85.7742C56.6283 85.9062 56.8672 85.9753 57.1815 85.9753C57.4958 85.9753 57.7283 85.9124 57.8792 85.793C58.03 85.6673 58.1054 85.5228 58.1054 85.3531C58.1054 85.2022 58.0363 85.0828 57.9043 85.0011C57.81 84.9445 57.5775 84.869 57.2066 84.781C56.71 84.6616 56.3643 84.5548 56.1695 84.4668C55.9683 84.3725 55.8238 84.2531 55.7232 84.0959C55.6227 83.9388 55.5724 83.7628 55.5724 83.5742C55.5724 83.3982 55.6101 83.2348 55.6981 83.0965C55.7735 82.9457 55.8866 82.8262 56.0312 82.7257C56.1443 82.6565 56.2826 82.5937 56.4712 82.5308C56.6598 82.4805 56.8546 82.4554 57.062 82.4554C57.3763 82.4554 57.6529 82.4994 57.8917 82.5874C58.1306 82.6754 58.3066 82.7948 58.4197 82.9457C58.5329 83.0965 58.6083 83.3039 58.6586 83.5491L57.986 83.6371C57.9546 83.4359 57.8666 83.2725 57.7283 83.1594C57.5837 83.0462 57.3763 82.9897 57.1186 82.9897C56.8043 82.9897 56.5843 83.04 56.4523 83.1405C56.314 83.2411 56.2512 83.3542 56.2512 83.4925C56.2512 83.5805 56.2763 83.6559 56.3329 83.7251C56.3895 83.7942 56.4775 83.8571 56.5969 83.9011C56.6597 83.9262 56.8609 83.9828 57.194 84.0708C57.6717 84.1965 58.0111 84.2971 58.206 84.3725C58.4008 84.4542 58.5517 84.5674 58.6586 84.7182C58.7654 84.8691 58.822 85.0576 58.822 85.2839C58.822 85.5102 58.7529 85.705 58.6209 85.9062C58.4889 86.101 58.3003 86.2519 58.0488 86.3524C57.7974 86.4593 57.5146 86.5159 57.194 86.5159C56.6723 86.5159 56.2701 86.4153 55.9935 86.2016C55.7169 85.9879 55.5409 85.6736 55.4655 85.2588H55.4467Z" fill="white"/>
<path d="M62.222 85.0136L62.8946 85.1016C62.8192 85.5479 62.6306 85.8936 62.3352 86.145C62.0272 86.3964 61.6563 86.5222 61.2164 86.5222C60.6632 86.5222 60.217 86.3462 59.8838 86.0067C59.5444 85.6547 59.381 85.1582 59.381 84.5108C59.381 84.0896 59.4564 83.7188 59.5947 83.3982C59.7392 83.0839 59.9592 82.8514 60.2546 82.6942C60.5501 82.5371 60.8707 82.4554 61.2226 82.4554C61.6626 82.4554 62.0146 82.5623 62.2975 82.7822C62.574 82.996 62.7563 83.3039 62.8317 83.7062L62.1592 83.7942C62.0963 83.5365 61.9832 83.3354 61.8197 83.2034C61.6626 83.0714 61.4678 83.0085 61.2352 83.0085C60.8895 83.0085 60.6129 83.1279 60.3992 83.3605C60.1855 83.5994 60.0724 83.9828 60.0724 84.4982C60.0724 85.0136 60.1792 85.4033 60.3867 85.6359C60.5941 85.8747 60.8643 85.9942 61.1975 85.9942C61.4678 85.9942 61.6878 85.9124 61.87 85.7553C62.046 85.5982 62.1655 85.353 62.2095 85.0262L62.222 85.0136Z" fill="white"/>
<path d="M64.409 85.686H63.6295V86.434H64.409V85.686Z" fill="white"/>
<path d="M65.0444 84.4919C65.0444 83.7628 65.2519 83.2348 65.673 82.8828C66.0187 82.5937 66.4461 82.4554 66.949 82.4554C67.5084 82.4554 67.9609 82.6314 68.3192 82.9771C68.6712 83.3291 68.8472 83.8131 68.8472 84.4354C68.8472 84.9382 68.7718 85.3279 68.6147 85.617C68.4575 85.9062 68.2312 86.1262 67.9295 86.2896C67.6341 86.4467 67.301 86.5285 66.949 86.5285C66.377 86.5285 65.9244 86.3524 65.5724 86.0067C65.2267 85.6547 65.0444 85.1519 65.0444 84.4982V84.4919ZM65.7547 84.4856C65.7547 84.9822 65.8679 85.3593 66.1004 85.6107C66.3267 85.8559 66.6158 85.9816 66.9553 85.9816C67.2947 85.9816 67.5838 85.8559 67.8101 85.6045C68.0364 85.3593 68.1558 84.9759 68.1558 84.4668C68.1558 83.9828 68.0427 83.6182 67.8101 83.3668C67.5838 83.1217 67.2947 82.996 66.9553 82.996C66.6158 82.996 66.3267 83.1217 66.1004 83.3668C65.8679 83.6119 65.7547 83.9953 65.7547 84.4919V84.4856Z" fill="white"/>
<path d="M69.6456 86.4336V82.5366H70.2553V83.1337C70.4188 82.8571 70.5633 82.6686 70.6953 82.5806C70.8273 82.4926 70.9782 82.4485 71.1353 82.4485C71.3679 82.4485 71.6067 82.5114 71.8456 82.6623L71.6005 83.2657C71.437 83.1777 71.2736 83.14 71.1039 83.14C70.9593 83.14 70.8273 83.184 70.7016 83.2657C70.5885 83.3537 70.5005 83.4731 70.4502 83.6302C70.3748 83.8628 70.3371 84.1142 70.3371 84.3971V86.4336H69.6519H69.6456Z" fill="white"/>
<path d="M72.0523 86.7543L72.7375 86.8423C72.7689 87.0435 72.838 87.188 72.97 87.2823C73.1397 87.408 73.3723 87.4709 73.6677 87.4709C73.982 87.4709 74.2334 87.408 74.4031 87.2823C74.5728 87.1566 74.6923 86.9869 74.7551 86.7669C74.7865 86.6349 74.8054 86.3458 74.7991 85.912C74.4974 86.2578 74.1203 86.4275 73.674 86.4275C73.1083 86.4275 72.6746 86.2326 72.3729 85.8492C72.0649 85.4595 71.9141 85.0006 71.9141 84.4601C71.9141 84.0892 71.9832 83.7436 72.1215 83.4293C72.266 83.115 72.4672 82.8698 72.7375 82.7001C73.0015 82.5241 73.3157 82.4424 73.674 82.4424C74.158 82.4424 74.5477 82.631 74.862 83.0144V82.5304H75.4905V85.8995C75.4905 86.5029 75.4277 86.9303 75.2957 87.188C75.1699 87.4395 74.9625 87.6406 74.686 87.7852C74.4031 87.9297 74.0637 88.0052 73.6551 88.0052C73.1711 88.0052 72.7814 87.9046 72.4797 87.6972C72.1843 87.4835 72.0398 87.1692 72.0523 86.748V86.7543ZM72.618 84.4161C72.618 84.9252 72.7312 85.3024 72.9386 85.5349C73.1523 85.7738 73.4226 85.8869 73.7369 85.8869C74.0511 85.8869 74.3214 85.7738 74.5414 85.5412C74.7551 85.3024 74.862 84.9378 74.862 84.435C74.862 83.9321 74.7551 83.5927 74.5288 83.3538C74.3088 83.115 74.0448 82.9893 73.7306 82.9893C73.4163 82.9893 73.1586 83.1087 72.9449 83.3476C72.7312 83.5927 72.618 83.9447 72.618 84.4161Z" fill="white"/>
<path d="M55.2646 18.5247C42.8632 18.5247 38.4822 37.0043 34.4029 51.8696C32.932 50.4365 28.3939 46.0995 28.3876 46.1058C27.4762 45.2383 26.4265 45.5212 25.7854 46.1246C25.1442 46.7469 25.0499 47.8909 25.7854 48.5886C25.8231 48.62 31.9389 54.4655 34.0509 56.4895C34.6354 57.0363 35.4777 57.3569 36.3137 56.8792C37.1874 56.3701 37.3131 55.4524 37.3319 55.4524C44.5729 24.3389 51.047 22.0195 55.2458 22.0195C58.7783 22.0195 62.8513 24.5211 62.8513 29.5307C68.1249 29.5307 71.4248 36.1683 67.1821 40.2539C70.702 41.8819 72.2671 43.8932 72.2671 46.4263C72.2671 48.9594 70.042 51.5616 66.8112 51.5553C63.6056 51.5553 61.965 49.5754 59.4634 49.5691C58.332 49.5691 57.6406 50.4491 57.6406 51.3102V57.5958H52.9138V51.3353C52.9075 50.3548 52.1533 49.5817 51.2167 49.5817C51.1979 49.5817 50.8082 49.5942 50.8207 49.6005L44.4912 50.3548C43.7244 50.4554 43.0204 51.2473 43.0204 52.077C43.0204 53.0387 43.8375 53.837 44.9626 53.8244C45.1009 53.8244 45.2957 53.8244 45.2769 53.8118C45.2706 53.8118 49.2871 53.3153 49.2871 53.3153V59.5128C49.2871 60.3048 50.2173 61.0654 51.047 61.0717H59.4571C60.4377 61.0717 61.2862 60.2608 61.2862 59.3117V53.6484C63.0462 54.6793 65.4912 55.0815 66.7483 55.0815C71.4625 55.0815 75.963 51.5239 75.9441 46.3195C75.9253 41.5864 72.1602 39.2293 72.1602 39.2293C74.3727 33.5786 70.7962 28.1228 66.1512 26.6017C64.4793 20.7687 59.2874 18.5121 55.2709 18.5121L55.2646 18.5247Z" fill="white"/>
<path d="M49.9716 67.9984C49.9716 69.463 51.675 70.3429 54.4721 71.6189C56.6972 72.6183 57.9731 73.6743 57.9731 74.5165C57.9731 75.8868 56.4331 76.3771 54.9875 76.3771C52.7561 76.3771 51.4361 75.5222 50.707 73.6114L50.6504 73.448H50.4681C50.0721 73.448 49.7642 73.4669 49.5882 73.6743C49.431 73.8629 49.475 74.1206 49.5442 74.3657C49.5379 74.3657 50.0344 76.3268 50.0344 76.3268C50.1664 76.8108 50.3487 76.8862 51.1407 77.0308C51.4927 77.0873 53.2967 77.389 54.8241 77.389C59.092 77.389 60.9965 75.7297 60.9965 74.0828C60.9965 72.8823 59.7582 71.7384 57.0869 70.4624L55.8674 69.903C54.0384 69.067 52.9384 68.5704 52.9384 67.6904C52.9384 66.8105 54.0824 66.2448 55.7229 66.2448C57.8537 66.2448 58.4257 67.3887 58.6834 68.3819L58.7337 68.5704H58.9348C59.4062 68.5704 59.7079 68.5327 59.8839 68.3504C59.9908 68.2498 60.0285 68.1053 60.0097 67.9356L59.8399 66.2322C59.7959 65.6916 59.3622 65.6099 58.7588 65.4968C58.0422 65.3711 57.1874 65.2265 55.8863 65.2265C52.1841 65.2265 49.9716 66.2636 49.9716 67.9984Z" fill="white"/>
<path d="M62.2479 71.4429C62.2479 74.3971 64.9256 77.4016 70.0483 77.4016C72.6317 77.4016 74.0899 76.8359 75.171 76.2828L75.4664 76.1319L74.9887 75.6291L75.0139 75.6542C74.9008 75.4971 74.8127 75.472 74.643 75.472L74.3916 75.5537C74.0019 75.7297 72.8202 76.2514 70.6643 76.2514C68.018 76.2514 65.1581 74.592 65.1581 70.9463C65.1581 67.3007 68.2569 66.2448 70.8968 66.2448C72.8013 66.2448 73.8134 66.8985 73.9956 68.2436L74.0208 68.4698H74.2596C74.4796 68.4698 75.0893 68.4698 75.0893 68.0361V66.0122C75.0893 65.5156 74.4922 65.4402 74.2407 65.4088L73.9956 65.3773C73.3859 65.2956 72.8076 65.2265 71.2551 65.2265C66.0381 65.2265 62.2479 67.8476 62.2479 71.4492V71.4429Z" fill="white"/>
<path d="M42.938 65.3647L38.3245 65.4024L35.2445 65.3522H34.7794C34.5028 65.3459 34.308 65.5344 34.308 65.8047C34.308 65.9304 34.308 66.3264 34.8171 66.3264C36.6776 66.3264 36.7468 66.4773 36.7656 67.1561L36.7782 67.5898L36.8033 69.4126V73.3348C36.8033 73.9885 36.7845 75.0194 36.7342 75.8553C36.7216 76.0942 36.7091 76.3205 35.0622 76.3205C34.6034 76.3205 34.3268 76.4085 34.3268 76.8422C34.3268 76.9679 34.3268 77.3073 34.7731 77.3073H34.8737C35.0685 77.2947 35.5902 77.2696 38.161 77.2696C40.8953 77.2696 41.4484 77.2948 41.6306 77.301H41.7312C42.0895 77.301 42.4038 77.2696 42.4038 76.8422C42.4038 76.3582 41.9889 76.3205 41.2912 76.3205C39.6444 76.3205 39.6319 76.0942 39.6193 75.8553C39.5816 75.0885 39.5501 74.0514 39.5501 73.3348V71.9206H40.9267C43.0449 71.9206 43.2837 71.9771 43.5917 73.536C43.6734 73.8754 43.9563 73.9194 44.1952 73.9194C44.6917 73.9194 44.7483 73.6617 44.7483 73.5422L44.7043 72.9577C44.6729 72.6183 44.6352 72.2034 44.6352 71.6315V69.2304C44.6352 68.8658 44.1889 68.8658 43.9438 68.8658C43.5415 68.8658 43.4535 69.1109 43.1958 70.2486C43.0826 70.6823 42.2089 70.9338 40.801 70.9338H39.5564V67.4013C39.5564 66.4396 39.7324 66.4333 39.9524 66.427C40.7632 66.3956 42.7244 66.3264 43.3152 66.3264C43.8746 66.3264 44.39 66.4521 44.7232 66.6596C45.7666 67.2881 46.3071 67.7092 46.634 67.9607C46.9482 68.2058 47.1305 68.3504 47.3882 68.3504C47.5391 68.3504 47.9854 68.3504 47.9854 67.9795C47.9854 67.8853 47.9476 67.8035 47.8031 67.5018C47.6334 67.1373 47.3442 66.5402 46.9797 65.6287C46.8791 65.3396 46.5271 65.3396 45.8797 65.3396L42.9443 65.3647H42.938Z" fill="white"/>
<path d="M70.4067 20.3101C71.0855 20.3101 71.6763 20.5552 72.1603 21.0392C72.6506 21.5232 72.8958 22.1077 72.8958 22.7929C72.8958 23.478 72.6506 24.0625 72.1666 24.5528C71.6763 25.0368 71.0918 25.2819 70.4067 25.2819C69.7215 25.2819 69.1307 25.0368 68.6404 24.5528C68.1502 24.0688 67.905 23.478 67.905 22.7929C67.905 22.1077 68.1502 21.5232 68.6404 21.0392C69.1307 20.5552 69.7215 20.3101 70.4067 20.3101ZM70.4004 24.8734C70.9724 24.8734 71.4627 24.6722 71.8712 24.2637C72.2798 23.8551 72.4872 23.3648 72.4872 22.7929C72.4872 22.2209 72.286 21.7369 71.8775 21.3283C71.4689 20.9261 70.9787 20.7249 70.4067 20.7186C69.8347 20.7186 69.3444 20.9198 68.9358 21.322C68.5336 21.7306 68.3262 22.2146 68.3262 22.7866C68.3262 23.3586 68.5273 23.8488 68.9358 24.2574C69.3444 24.6597 69.8347 24.8671 70.4067 24.8671L70.4004 24.8734ZM71.5632 24.1694H71.0352C70.7021 23.566 70.4821 23.2266 70.3815 23.1511C70.281 23.0757 70.1552 23.038 69.9981 23.038H69.7404V24.1757H69.3067V21.5043H70.2369C70.5135 21.5043 70.7272 21.5232 70.8781 21.5609C71.0289 21.5986 71.1484 21.6803 71.2427 21.8123C71.3307 21.938 71.3809 22.0763 71.3809 22.2272C71.3809 22.4094 71.3118 22.5729 71.1861 22.7237C71.0541 22.8746 70.8655 22.9563 70.6141 22.9751V22.9877C70.7712 23.0254 70.9849 23.2454 71.2364 23.654L71.5632 24.1757V24.1694ZM69.7404 22.6671H70.2684C70.5072 22.6671 70.677 22.6357 70.7712 22.5603C70.8655 22.4912 70.9158 22.3906 70.9158 22.2586C70.9158 22.1266 70.8718 22.0323 70.7838 21.9632C70.6958 21.894 70.5135 21.8626 70.2369 21.8626H69.7404V22.6671Z" fill="white"/>
<path d="M70.4067 20.3101C71.0855 20.3101 71.6763 20.5552 72.1603 21.0392C72.6506 21.5232 72.8958 22.1077 72.8958 22.7929C72.8958 23.478 72.6506 24.0625 72.1666 24.5528C71.6763 25.0368 71.0918 25.2819 70.4067 25.2819C69.7215 25.2819 69.1307 25.0368 68.6404 24.5528C68.1502 24.0688 67.905 23.478 67.905 22.7929C67.905 22.1077 68.1502 21.5232 68.6404 21.0392C69.1307 20.5552 69.7215 20.3101 70.4067 20.3101ZM70.4004 24.8734C70.9724 24.8734 71.4627 24.6722 71.8712 24.2637C72.2798 23.8551 72.4872 23.3648 72.4872 22.7929C72.4872 22.2209 72.286 21.7369 71.8775 21.3283C71.4689 20.9261 70.9787 20.7249 70.4067 20.7186C69.8347 20.7186 69.3444 20.9198 68.9358 21.322C68.5336 21.7243 68.3262 22.2146 68.3262 22.7866C68.3262 23.3586 68.5273 23.8488 68.9358 24.2574C69.3381 24.6597 69.8347 24.8671 70.4067 24.8671L70.4004 24.8734ZM71.5632 24.1694H71.0352C70.7021 23.566 70.4821 23.2266 70.3815 23.1511C70.281 23.0757 70.1552 23.038 69.9981 23.038H69.7404V24.1757H69.3067V21.5043H70.2369C70.5135 21.5043 70.7272 21.5232 70.8781 21.5609C71.0289 21.5986 71.1484 21.6866 71.2427 21.8123C71.3307 21.938 71.3809 22.0763 71.3809 22.2272C71.3809 22.4094 71.3118 22.5729 71.1861 22.7237C71.0541 22.8746 70.8655 22.9563 70.6141 22.9751V22.9877C70.7712 23.0254 70.9849 23.2454 71.2364 23.654L71.5632 24.1757V24.1694ZM69.7404 22.6671H70.2684C70.5072 22.6671 70.677 22.6357 70.7712 22.5603C70.8655 22.4912 70.9158 22.3906 70.9158 22.2586C70.9158 22.1266 70.8718 22.0323 70.7838 21.9632C70.6958 21.894 70.5135 21.8626 70.2369 21.8626H69.7404V22.6671Z" stroke="white" stroke-width="0.263994"/>
<path d="M33.5041 95.1015H30.8767V96.5974H33.1521V97.1694H30.8767V99.3568H30.2356V94.5232H33.5041V95.0952V95.1015Z" fill="white"/>
<path d="M33.5041 95.1083H30.8767V96.6043H33.1584V97.1763H30.8767V99.3636H30.2356V94.53H33.5041V95.102V95.1083Z" stroke="white" stroke-width="0.263994"/>
<path d="M37.4947 95.9501C37.4696 95.6421 37.3564 95.4158 37.1616 95.2587C36.9667 95.1078 36.6839 95.0261 36.3193 95.0261C35.9862 95.0261 35.7222 95.089 35.5085 95.2084C35.301 95.3279 35.2005 95.5101 35.2005 95.749C35.2005 95.9564 35.2759 96.1135 35.4393 96.2141C35.5965 96.3147 35.9045 96.4152 36.357 96.5221C36.7593 96.6101 37.0862 96.6981 37.3376 96.7924C37.5953 96.8867 37.809 97.0312 37.9913 97.2198C38.1736 97.4146 38.2615 97.6786 38.2615 98.0055C38.2615 98.4203 38.0981 98.766 37.765 99.0363C37.4382 99.3129 37.0044 99.4512 36.4639 99.4512C35.7788 99.4512 35.2759 99.3003 34.9365 98.9986C34.6034 98.6969 34.4211 98.3009 34.4022 97.8169L35.0119 97.7667C35.0371 98.1501 35.1879 98.4329 35.4582 98.6089C35.7285 98.7849 36.0553 98.8729 36.4388 98.8792C36.797 98.8792 37.0861 98.8038 37.3061 98.6592C37.5261 98.5146 37.6393 98.3135 37.6393 98.0621C37.6393 97.7981 37.5261 97.6032 37.2936 97.4838C37.061 97.3644 36.6776 97.2449 36.1308 97.1255C35.5839 97.0124 35.1942 96.8427 34.9491 96.629C34.7039 96.4153 34.5845 96.1387 34.5908 95.7993C34.5908 95.4159 34.7416 95.0953 35.0496 94.8439C35.3513 94.5924 35.7725 94.4604 36.2942 94.4604C36.8159 94.4604 37.2684 94.5861 37.589 94.8376C37.9158 95.089 38.0918 95.4473 38.1107 95.9124L37.4947 95.9627V95.9501Z" fill="white"/>
<path d="M37.4948 95.9505C37.4696 95.6425 37.3565 95.4099 37.1616 95.2591C36.9668 95.1082 36.684 95.0265 36.3194 95.0265C35.9863 95.0265 35.7222 95.0894 35.5085 95.2088C35.3011 95.3345 35.2005 95.5105 35.2005 95.7431C35.2005 95.9505 35.276 96.1076 35.4394 96.2082C35.5965 96.3088 35.9045 96.4093 36.3571 96.5162C36.7594 96.6042 37.0862 96.6922 37.3377 96.7865C37.5954 96.8808 37.8091 97.019 37.9913 97.2139C38.1736 97.4088 38.2616 97.6727 38.2616 97.9996C38.2616 98.4144 38.0982 98.7601 37.7651 99.0304C37.4382 99.307 36.9982 99.4453 36.464 99.4453C35.7788 99.4453 35.2697 99.2944 34.9366 98.9927C34.5971 98.691 34.4211 98.295 34.396 97.811L35.0057 97.7607C35.0308 98.1442 35.1817 98.427 35.452 98.603C35.7222 98.779 36.0491 98.867 36.4325 98.8733C36.7908 98.8733 37.0799 98.7978 37.2999 98.6533C37.5199 98.5087 37.6331 98.3076 37.6331 98.0561C37.6331 97.7921 37.5199 97.5973 37.2874 97.4779C37.0548 97.3585 36.6714 97.239 36.1245 97.1196C35.5777 97.0065 35.188 96.8368 34.9428 96.6231C34.6977 96.4093 34.5783 96.1328 34.5846 95.7934C34.5846 95.4099 34.7354 95.0894 35.0434 94.8379C35.3451 94.5865 35.7599 94.4545 36.2879 94.4545C36.8159 94.4545 37.2622 94.5802 37.5828 94.8316C37.9096 95.0831 38.0856 95.4414 38.1045 95.9065L37.4885 95.9568L37.4948 95.9505Z" stroke="white" stroke-width="0.263994"/>
<path d="M43.5042 97.8292C43.3596 98.3698 43.1145 98.7783 42.7625 99.0423C42.4105 99.3126 41.9893 99.4446 41.4991 99.4446C40.7071 99.4446 40.1288 99.1932 39.7642 98.7029C39.406 98.2126 39.2237 97.6155 39.2174 96.9115C39.2174 96.1384 39.4311 95.5412 39.8523 95.1013C40.2797 94.6676 40.8265 94.4476 41.4991 94.4476C41.9705 94.4476 42.3728 94.567 42.7122 94.8059C43.0516 95.0447 43.2842 95.3967 43.4162 95.8555L42.7876 96.0001C42.6807 95.667 42.5173 95.4093 42.3036 95.2396C42.0899 95.0698 41.8196 94.9881 41.4928 94.9881C40.9648 94.9881 40.5625 95.1578 40.2922 95.5035C40.0156 95.8492 39.8837 96.3144 39.8837 96.899C39.8837 97.5715 40.0282 98.0681 40.3111 98.3949C40.6002 98.7218 40.9711 98.8852 41.4362 98.8852C41.8196 98.8852 42.1213 98.7846 42.3602 98.5772C42.599 98.3761 42.7625 98.068 42.863 97.6595L43.5042 97.8166V97.8292Z" fill="white"/>
<path d="M43.5042 97.8292C43.3597 98.3698 43.1145 98.7783 42.7625 99.0423C42.4105 99.3126 41.9894 99.4446 41.4928 99.4446C40.7009 99.4446 40.1226 99.1995 39.758 98.7029C39.3997 98.2063 39.2175 97.6155 39.2112 96.9115C39.2112 96.1384 39.4249 95.5412 39.8523 95.1013C40.2797 94.6676 40.8266 94.4476 41.4991 94.4476C41.9706 94.4476 42.3791 94.567 42.7122 94.8059C43.0517 95.0447 43.2842 95.3967 43.4162 95.8555L42.7877 96.0001C42.6808 95.667 42.5237 95.4093 42.3037 95.2396C42.09 95.0698 41.8197 94.9881 41.4928 94.9881C40.9649 94.9881 40.5626 95.1578 40.2923 95.5035C40.0157 95.8492 39.8837 96.3144 39.8837 96.899C39.8837 97.5715 40.0283 98.0681 40.3112 98.3949C40.6003 98.7218 40.9774 98.8852 41.4363 98.8852C41.8197 98.8852 42.1214 98.7846 42.3603 98.5772C42.5991 98.3761 42.7625 98.068 42.8631 97.6532L43.5042 97.8103V97.8292Z" stroke="white" stroke-width="0.263994"/>
<path d="M45.8109 94.5042C46.1504 94.5042 46.4458 94.6236 46.6909 94.8688C46.9361 95.1139 47.0618 95.403 47.0618 95.7487C47.0618 96.0945 46.936 96.3836 46.6972 96.6224C46.452 96.8676 46.1629 96.987 45.8172 96.987C45.4715 96.987 45.1761 96.8676 44.9372 96.6224C44.6921 96.3773 44.5664 96.0882 44.5664 95.7425C44.5664 95.3967 44.6921 95.1076 44.9372 94.8625C45.1824 94.6173 45.4715 94.4979 45.8172 94.4979L45.8109 94.5042ZM45.8046 96.7859C46.0875 96.7859 46.3326 96.6853 46.54 96.4841C46.7412 96.283 46.8481 96.0379 46.8481 95.7487C46.8481 95.4596 46.7475 95.2207 46.54 95.0196C46.3389 94.8185 46.0938 94.7179 45.8046 94.7116C45.5155 94.7116 45.2767 94.8122 45.0692 95.0133C44.8681 95.2145 44.7675 95.4596 44.7613 95.7487C44.7613 96.0316 44.8618 96.2767 45.063 96.4779C45.2641 96.679 45.5092 96.7859 45.7984 96.7859H45.8046ZM46.3892 96.4339H46.1252C45.9618 96.1321 45.8486 95.9624 45.7984 95.9247C45.7481 95.887 45.6852 95.8682 45.6098 95.8682H45.4778V96.4339H45.2641V95.1013H45.7292C45.8675 95.1013 45.9744 95.1139 46.0498 95.1328C46.1252 95.1516 46.1881 95.1956 46.2321 95.2585C46.2761 95.3213 46.3012 95.3905 46.3012 95.4659C46.3012 95.5539 46.2698 95.6419 46.2006 95.711C46.1378 95.7865 46.0372 95.8305 45.9178 95.8368C45.9995 95.8619 46.1001 95.975 46.2321 96.1762L46.3955 96.4339H46.3892ZM45.4778 95.6796H45.7418C45.8612 95.6796 45.9492 95.6607 45.9932 95.6293C46.0372 95.5916 46.0624 95.5413 46.0624 95.4785C46.0624 95.4156 46.0435 95.3653 45.9932 95.3339C45.9492 95.3024 45.8549 95.2836 45.7229 95.2836H45.4778V95.6859V95.6796Z" fill="white"/>
<path d="M45.8109 94.5049C46.1503 94.5049 46.4457 94.6243 46.6909 94.8694C46.936 95.1146 47.0554 95.4037 47.0554 95.7494C47.0554 96.0951 46.936 96.3843 46.6909 96.6231C46.4457 96.8683 46.1566 96.9876 45.8109 96.9876C45.4652 96.9876 45.1697 96.8683 44.9309 96.6231C44.6857 96.378 44.5601 96.0888 44.5601 95.7431C44.5601 95.3974 44.6857 95.1083 44.9309 94.8694C45.176 94.6243 45.4715 94.5049 45.8109 94.5049ZM45.8046 96.7865C46.0874 96.7865 46.3326 96.6859 46.54 96.4848C46.7411 96.2837 46.848 96.0323 46.848 95.7494C46.848 95.4603 46.7474 95.2214 46.54 95.0203C46.3388 94.8191 46.0937 94.7186 45.8046 94.7123C45.5155 94.7123 45.2766 94.8129 45.0692 95.014C44.868 95.2151 44.7675 95.4603 44.7612 95.7494C44.7612 96.0323 44.8618 96.2774 45.0629 96.4785C45.264 96.6797 45.5092 96.7865 45.7983 96.7865H45.8046ZM46.3891 96.4345H46.1252C45.9617 96.1328 45.8486 95.9631 45.7983 95.9254C45.748 95.8877 45.6852 95.8688 45.6097 95.8688H45.4777V96.4345H45.264V95.102H45.7292C45.8674 95.102 45.9743 95.1146 46.0497 95.1334C46.1252 95.1523 46.188 95.1963 46.232 95.2591C46.276 95.322 46.3012 95.3911 46.3012 95.4666C46.3012 95.5546 46.2697 95.6426 46.2006 95.7117C46.1314 95.7871 46.0371 95.8311 45.9177 95.8374C45.9994 95.8626 46.1 95.9757 46.232 96.1768L46.3954 96.4345H46.3891ZM45.4777 95.6803H45.7417C45.8612 95.6803 45.9491 95.6614 45.9931 95.63C46.0371 95.5986 46.0623 95.542 46.0623 95.4791C46.0623 95.4163 46.0434 95.366 45.9931 95.3345C45.9491 95.3031 45.8549 95.2843 45.7229 95.2843H45.4777V95.6866V95.6803Z" stroke="white" stroke-width="0.131997"/>
<path d="M54.7116 97.8292C54.567 98.3698 54.3219 98.7783 53.9699 99.0423C53.6179 99.3126 53.1968 99.4446 52.7002 99.4446C51.9083 99.4446 51.33 99.1932 50.9654 98.7029C50.6071 98.2126 50.4249 97.6155 50.4186 96.9115C50.4186 96.1384 50.6323 95.5412 51.0534 95.1013C51.4808 94.6676 52.0277 94.4476 52.7002 94.4476C53.1717 94.4476 53.5739 94.567 53.9133 94.8059C54.2465 95.0447 54.4853 95.3967 54.6173 95.8555L53.9888 96.0001C53.8819 95.667 53.7185 95.4093 53.5048 95.2396C53.2911 95.0698 53.0208 94.9881 52.6939 94.9881C52.166 94.9881 51.7637 95.1578 51.4934 95.5035C51.2168 95.8492 51.0848 96.3144 51.0848 96.899C51.0848 97.5715 51.2294 98.0681 51.5123 98.3949C51.8014 98.7218 52.1785 98.8852 52.6374 98.8852C53.0208 98.8852 53.3225 98.7846 53.5614 98.5772C53.8002 98.3761 53.9636 98.068 54.0642 97.6595L54.7053 97.8166L54.7116 97.8292Z" fill="white"/>
<path d="M54.7116 97.8292C54.567 98.3698 54.3219 98.7783 53.9699 99.0423C53.6179 99.3126 53.1968 99.4446 52.7002 99.4446C51.9083 99.4446 51.33 99.1995 50.9654 98.7029C50.6071 98.2063 50.4249 97.6155 50.4186 96.9115C50.4186 96.1384 50.6323 95.5412 51.0534 95.1013C51.4808 94.6676 52.0277 94.4476 52.7002 94.4476C53.1717 94.4476 53.5739 94.567 53.9133 94.8059C54.2465 95.0447 54.4853 95.3967 54.6173 95.8555L53.9888 96.0001C53.8819 95.667 53.7185 95.4093 53.5048 95.2396C53.2911 95.0698 53.0208 94.9881 52.6939 94.9881C52.166 94.9881 51.7637 95.1578 51.4934 95.5035C51.2168 95.8492 51.0848 96.3144 51.0848 96.899C51.0848 97.5715 51.2294 98.0681 51.5123 98.3949C51.8014 98.7218 52.1785 98.8852 52.6374 98.8852C53.0208 98.8852 53.3225 98.7846 53.5614 98.5772C53.8002 98.3761 53.9636 98.068 54.0642 97.6532L54.7053 97.8103L54.7116 97.8292Z" stroke="white" stroke-width="0.263994"/>
<path d="M57.7847 99.3632H57.1875V95.5793C56.8921 95.8621 56.4898 96.101 55.9933 96.2959V95.7239C56.6784 95.397 57.1498 94.9884 57.395 94.5107H57.7847V99.3632Z" fill="white"/>
<path d="M57.7847 99.3632H57.1875V95.5793C56.8921 95.8621 56.4898 96.101 55.9933 96.2959V95.7239C56.6784 95.397 57.1498 94.9884 57.395 94.5107H57.7847V99.3632Z" stroke="white" stroke-width="0.263994"/>
<path d="M62.6936 99.3632H59.4817C59.4817 99.0929 59.576 98.8164 59.7645 98.5335C59.9531 98.257 60.3114 97.905 60.8394 97.4838C61.1599 97.2261 61.4428 96.9621 61.6942 96.6856C61.9456 96.4027 62.0713 96.1262 62.0713 95.837C62.0713 95.5919 61.9834 95.3907 61.8136 95.2336C61.6439 95.0765 61.4239 94.9947 61.1536 94.9947C60.8834 94.9947 60.6634 95.0765 60.4811 95.2399C60.2988 95.4033 60.2108 95.6484 60.2045 95.9753L59.5948 95.9062C59.6325 95.4536 59.7897 95.1079 60.0725 94.869C60.3554 94.6302 60.7199 94.5107 61.1599 94.5107C61.6376 94.5107 62.0085 94.6428 62.2725 94.9005C62.5365 95.1645 62.6685 95.4787 62.6748 95.8559C62.6748 96.1639 62.5616 96.4781 62.3416 96.7987C62.1153 97.113 61.6753 97.5404 61.0028 98.0747C60.6571 98.3575 60.4182 98.5964 60.3051 98.7975H62.6936V99.3695V99.3632Z" fill="white"/>
<path d="M62.6936 99.3632H59.4817C59.4817 99.0929 59.576 98.8164 59.7645 98.5335C59.9531 98.2507 60.3114 97.905 60.8394 97.4838C61.1599 97.2261 61.4428 96.9621 61.6942 96.6856C61.9456 96.4027 62.0713 96.1262 62.0713 95.837C62.0713 95.5919 61.9834 95.3907 61.8136 95.2336C61.6439 95.0765 61.4239 94.9947 61.1536 94.9947C60.8834 94.9947 60.6634 95.0765 60.4811 95.2399C60.2988 95.4033 60.2108 95.6484 60.2045 95.9753L59.5948 95.9062C59.6325 95.4536 59.7897 95.1079 60.0788 94.869C60.3617 94.6302 60.7262 94.5107 61.1662 94.5107C61.6439 94.5107 62.0148 94.6428 62.2788 94.9005C62.5428 95.1645 62.6748 95.4787 62.6811 95.8559C62.6811 96.1639 62.5679 96.4781 62.3479 96.7987C62.1216 97.113 61.6816 97.5404 61.0091 98.0747C60.6571 98.3575 60.4245 98.5964 60.3114 98.7975H62.6999V99.3695L62.6936 99.3632Z" stroke="white" stroke-width="0.263994"/>
<path d="M65.1891 94.5107C66.245 94.5107 66.773 95.3342 66.773 96.981C66.773 97.8107 66.641 98.4329 66.3708 98.8352C66.1005 99.2375 65.7108 99.4449 65.1954 99.4449C64.1457 99.4449 63.6177 98.6215 63.6177 96.981C63.6177 96.1513 63.7559 95.529 64.0262 95.1205C64.2965 94.7182 64.6925 94.5107 65.1954 94.5107H65.1891ZM65.1891 98.9546C65.5096 98.9546 65.7485 98.8038 65.9119 98.4958C66.0753 98.1878 66.157 97.6787 66.157 96.981C66.157 96.4907 66.1256 96.1073 66.0502 95.8307C65.981 95.5479 65.8679 95.3405 65.7296 95.2022C65.585 95.0639 65.4028 94.9947 65.1828 94.9947C64.8622 94.9947 64.6233 95.1519 64.4599 95.4662C64.2965 95.7804 64.2211 96.2833 64.2211 96.981C64.2211 97.4587 64.2588 97.8421 64.3279 98.1249C64.4034 98.4015 64.5102 98.6152 64.6548 98.7535C64.7993 98.8918 64.9754 98.9609 65.1891 98.9609V98.9546Z" fill="white"/>
<path d="M65.189 94.5107C66.245 94.5107 66.7729 95.3342 66.7729 96.981C66.7729 97.8107 66.6347 98.4329 66.3644 98.8352C66.0941 99.2375 65.7044 99.4386 65.189 99.4449C64.1393 99.4449 63.6113 98.6215 63.6113 96.981C63.6113 96.1513 63.7496 95.529 64.0136 95.1205C64.2839 94.7182 64.6799 94.5107 65.1827 94.5107H65.189ZM65.189 98.9546C65.5096 98.9546 65.7484 98.8038 65.9118 98.4958C66.0753 98.1878 66.157 97.6787 66.157 96.981C66.157 96.4907 66.1193 96.1073 66.0501 95.8307C65.981 95.5479 65.8678 95.3405 65.7296 95.2022C65.585 95.0639 65.4027 94.9947 65.1827 94.9947C64.8622 94.9947 64.6233 95.1519 64.4599 95.4662C64.2964 95.7804 64.221 96.2833 64.221 96.981C64.221 97.465 64.2588 97.8421 64.3279 98.1249C64.4033 98.4078 64.5101 98.6152 64.6547 98.7535C64.7993 98.8855 64.9753 98.9609 65.189 98.9609V98.9546Z" stroke="white" stroke-width="0.263994"/>
<path d="M70.2121 97.0878C70.0927 97.2764 69.9355 97.4335 69.7344 97.5467C69.5333 97.6598 69.307 97.7227 69.0681 97.7227C68.6721 97.7227 68.3327 97.5781 68.0562 97.289C67.7796 96.9999 67.6413 96.6164 67.635 96.145C67.635 95.6673 67.7796 95.2713 68.0625 94.9696C68.3453 94.6616 68.7162 94.5107 69.1624 94.5107C69.6087 94.5107 69.9984 94.6867 70.3315 95.0325C70.6584 95.3782 70.8218 95.9879 70.8218 96.8427C70.8218 97.6975 70.671 98.3701 70.3755 98.7975C70.0738 99.2249 69.6464 99.4449 69.087 99.4449C68.7224 99.4449 68.4207 99.3443 68.1756 99.1495C67.9305 98.9546 67.7859 98.6529 67.7293 98.2444L68.3013 98.1941C68.3893 98.7032 68.6596 98.9546 69.1058 98.9546C69.4704 98.9546 69.7533 98.7912 69.9481 98.4581C70.143 98.125 70.2435 97.6724 70.2435 97.0878H70.2309H70.2121ZM69.2064 97.201C69.5018 97.201 69.7281 97.1004 69.8978 96.8993C70.0675 96.6919 70.1555 96.4342 70.1555 96.1136C70.1555 95.7993 70.0675 95.529 69.8978 95.3153C69.7218 95.1016 69.4956 94.9947 69.2253 94.9885C68.9487 94.9885 68.7162 95.1016 68.5276 95.3279C68.339 95.5542 68.2447 95.8307 68.2447 96.1576C68.2447 96.4656 68.3327 96.7107 68.5213 96.9055C68.7036 97.1004 68.9361 97.1947 69.2127 97.1947L69.2064 97.201Z" fill="white"/>
<path d="M70.2121 97.0878C70.0927 97.2764 69.9355 97.4335 69.7344 97.5467C69.5333 97.6598 69.307 97.7227 69.0681 97.7227C68.6721 97.7227 68.3327 97.5781 68.0562 97.289C67.7796 96.9999 67.6413 96.6164 67.635 96.145C67.635 95.6673 67.7796 95.2713 68.0625 94.9696C68.3453 94.6679 68.7099 94.5107 69.1624 94.5107C69.615 94.5107 69.9984 94.6867 70.3315 95.0325C70.6584 95.3782 70.8218 95.9879 70.8218 96.8427C70.8218 97.6975 70.671 98.3701 70.3755 98.7975C70.0738 99.2249 69.6464 99.4449 69.087 99.4449C68.7224 99.4449 68.4207 99.3443 68.1756 99.1495C67.9305 98.9546 67.7796 98.6529 67.7293 98.2444L68.3013 98.2004C68.3893 98.7095 68.6596 98.9609 69.1058 98.9609C69.4704 98.9609 69.7533 98.7975 69.9481 98.4644C70.143 98.1313 70.2435 97.6787 70.2435 97.0941H70.2309L70.2121 97.0878ZM69.2064 97.201C69.5018 97.201 69.7281 97.1004 69.8978 96.8993C70.0675 96.6919 70.1555 96.4342 70.1555 96.1136C70.1555 95.7993 70.0675 95.529 69.8978 95.3153C69.7218 95.1016 69.4956 94.9947 69.2253 94.9885C68.9487 94.9885 68.7162 95.1016 68.5276 95.3279C68.339 95.5542 68.2447 95.8307 68.2447 96.1576C68.2447 96.4656 68.3327 96.7107 68.5213 96.9055C68.7036 97.1004 68.9361 97.1947 69.2127 97.1947L69.2064 97.201Z" stroke="white" stroke-width="0.263994"/>
<path d="M73.2537 94.5107C74.3096 94.5107 74.8376 95.3342 74.8376 96.981C74.8376 97.8107 74.6994 98.4329 74.4291 98.8352C74.1588 99.2375 73.7691 99.4449 73.2537 99.4449C72.204 99.4449 71.676 98.6215 71.676 96.981C71.676 96.1513 71.8143 95.529 72.0846 95.1205C72.3548 94.7182 72.7445 94.5107 73.2537 94.5107ZM73.2537 98.9546C73.5742 98.9546 73.8131 98.8038 73.9765 98.4958C74.1399 98.1878 74.2217 97.6787 74.2217 96.981C74.2217 96.4907 74.184 96.1073 74.1148 95.8307C74.0457 95.5479 73.9325 95.3405 73.7943 95.2022C73.6434 95.0639 73.4674 94.9947 73.2474 94.9947C72.9269 94.9947 72.688 95.1519 72.5309 95.4662C72.3674 95.7804 72.2857 96.2833 72.2857 96.981C72.2857 97.4587 72.3234 97.8421 72.3988 98.1249C72.468 98.4015 72.5811 98.6152 72.7257 98.7535C72.8703 98.8918 73.0463 98.9609 73.26 98.9609L73.2537 98.9546Z" fill="white"/>
<path d="M73.2537 94.5107C74.3096 94.5107 74.8376 95.3342 74.8376 96.981C74.8376 97.8107 74.6994 98.4329 74.4291 98.8352C74.1588 99.2375 73.7691 99.4386 73.2537 99.4449C72.204 99.4449 71.676 98.6215 71.676 96.981C71.676 96.1513 71.8143 95.529 72.0846 95.1205C72.3548 94.7182 72.7445 94.5107 73.2537 94.5107ZM73.2537 98.9546C73.5742 98.9546 73.8131 98.8038 73.9765 98.4958C74.1399 98.1878 74.2217 97.6787 74.2217 96.981C74.2217 96.4907 74.184 96.1073 74.1148 95.8307C74.0457 95.5479 73.9388 95.3405 73.788 95.2022C73.6434 95.0639 73.4611 94.9947 73.2411 94.9947C72.9206 94.9947 72.6817 95.1519 72.5246 95.4662C72.3611 95.7804 72.2794 96.2833 72.2794 96.981C72.2794 97.465 72.3171 97.8421 72.3926 98.1249C72.4617 98.4078 72.5748 98.6152 72.7194 98.7535C72.864 98.8855 73.04 98.9609 73.2537 98.9609V98.9546Z" stroke="white" stroke-width="0.263994"/>
<path d="M78.8229 99.3632H75.611C75.611 99.0929 75.7053 98.8164 75.8938 98.5335C76.0824 98.257 76.4407 97.905 76.9687 97.4838C77.2892 97.2261 77.5721 96.9621 77.8235 96.6856C78.0749 96.4027 78.2006 96.1262 78.2006 95.837C78.2006 95.5919 78.1126 95.3907 77.9429 95.2336C77.7732 95.0765 77.5532 94.9947 77.2829 94.9947C77.0189 94.9947 76.7927 95.0765 76.6104 95.2399C76.4281 95.4033 76.3401 95.6484 76.3338 95.9753L75.7241 95.9062C75.7618 95.4536 75.9252 95.1079 76.2018 94.869C76.4847 94.6302 76.8493 94.5107 77.2955 94.5107C77.7732 94.5107 78.144 94.6428 78.4018 94.9005C78.6657 95.1645 78.7978 95.4787 78.804 95.8559C78.804 96.1639 78.6909 96.4781 78.4709 96.7987C78.2509 97.113 77.8047 97.5404 77.1321 98.0747C76.7801 98.3575 76.5475 98.5964 76.4344 98.7975H78.8229V99.3695V99.3632Z" fill="white"/>
<path d="M78.8229 99.3632H75.611C75.611 99.0929 75.7053 98.8164 75.8938 98.5335C76.0824 98.2507 76.4407 97.905 76.9687 97.4838C77.2892 97.2261 77.5721 96.9621 77.8235 96.6856C78.0749 96.4027 78.2006 96.1262 78.2006 95.837C78.2006 95.5919 78.1126 95.3907 77.9429 95.2336C77.7732 95.0765 77.5532 94.9947 77.2829 94.9947C77.0189 94.9947 76.7927 95.0765 76.6104 95.2399C76.4281 95.4033 76.3401 95.6484 76.3338 95.9753L75.7241 95.9062C75.7618 95.4536 75.9252 95.1079 76.2081 94.869C76.4909 94.6302 76.8555 94.5107 77.2955 94.5107C77.7732 94.5107 78.144 94.6428 78.4018 94.9005C78.6657 95.1645 78.7978 95.4787 78.804 95.8559C78.804 96.1639 78.6909 96.4781 78.4709 96.7987C78.2509 97.113 77.8047 97.5404 77.1321 98.0747C76.7801 98.3575 76.5475 98.5964 76.4344 98.7975H78.8229V99.3695V99.3632Z" stroke="white" stroke-width="0.263994"/>
<path d="M26.8603 119H26.1374L25.5654 117.529H23.5415L23.0072 119H22.3284L24.1889 114.172H24.8803L26.8603 119ZM25.3706 117.026C24.9746 115.976 24.7546 115.385 24.698 115.247C24.6477 115.109 24.5912 114.92 24.5283 114.675H24.5094C24.4466 115.002 24.3649 115.304 24.2643 115.58L23.7237 117.026H25.3706Z" fill="#285C4D"/>
<path d="M26.8603 119H26.1374L25.5654 117.529H23.5415L23.0072 119H22.3284L24.1889 114.172H24.8803L26.8603 119ZM25.3706 117.026C24.9746 115.982 24.7546 115.385 24.698 115.247C24.6477 115.109 24.5912 114.92 24.5283 114.675H24.5094C24.4466 115.002 24.3649 115.304 24.2643 115.58L23.7237 117.026H25.3706Z" stroke="#285C4D" stroke-width="0.263994"/>
<path d="M34.4786 119H33.8815V116.793C33.8815 116.63 33.8689 116.492 33.8501 116.379C33.8249 116.265 33.7746 116.165 33.6804 116.071C33.5924 115.976 33.4478 115.939 33.2529 115.939C33.0204 115.939 32.8192 116.02 32.6495 116.184C32.4798 116.347 32.3918 116.611 32.3918 116.976V119.006H31.7947V116.731C31.7947 116.429 31.7444 116.221 31.6376 116.108C31.5307 115.995 31.3798 115.939 31.1787 115.939C30.921 115.939 30.7136 116.027 30.5501 116.203C30.3867 116.379 30.305 116.705 30.305 117.189V119.006H29.7079V115.511H30.2422V116.001H30.2547C30.4936 115.624 30.8393 115.436 31.3044 115.436C31.5621 115.436 31.7758 115.486 31.9393 115.587C32.1027 115.687 32.2221 115.844 32.3038 116.045C32.5615 115.637 32.9261 115.429 33.3849 115.429C33.7495 115.429 34.0198 115.53 34.2021 115.725C34.3843 115.92 34.4723 116.215 34.4786 116.605V119.006V119Z" fill="#285C4D"/>
<path d="M34.4773 118.999H33.8802V116.793C33.8802 116.63 33.8676 116.491 33.8488 116.378C33.8236 116.265 33.7734 116.164 33.6791 116.07C33.5911 115.982 33.4465 115.932 33.2517 115.932C33.0191 115.932 32.818 116.014 32.6482 116.177C32.4785 116.34 32.3905 116.604 32.3905 116.969V118.999H31.7934V116.724C31.7934 116.422 31.7431 116.215 31.6363 116.102C31.5294 115.988 31.3786 115.932 31.1774 115.932C30.9197 115.932 30.7123 116.02 30.5489 116.196C30.3854 116.372 30.3037 116.699 30.2975 117.183V118.999H29.7003V115.504H30.2346V115.995H30.2472C30.486 115.618 30.8317 115.429 31.2969 115.429C31.5546 115.429 31.7683 115.479 31.9317 115.58C32.0951 115.68 32.2145 115.838 32.2963 116.039C32.554 115.63 32.9185 115.423 33.3774 115.423C33.7419 115.423 34.0122 115.523 34.1945 115.718C34.3768 115.913 34.4648 116.208 34.4711 116.598V118.999H34.4773Z" stroke="#285C4D" stroke-width="0.263994"/>
<path d="M38.6709 119H38.0487C37.9921 118.893 37.9481 118.748 37.9229 118.572C37.5207 118.912 37.0932 119.088 36.6281 119.088C36.2573 119.088 35.9618 118.993 35.7544 118.811C35.5407 118.629 35.4338 118.384 35.4338 118.082C35.4338 117.793 35.5344 117.554 35.7418 117.365C35.9493 117.177 36.3075 117.051 36.8167 116.988L37.3761 116.907C37.5835 116.875 37.7532 116.831 37.8915 116.787C37.8915 116.605 37.8852 116.485 37.8726 116.41C37.8601 116.335 37.8286 116.259 37.7783 116.177C37.7218 116.096 37.6401 116.033 37.5144 115.989C37.3949 115.945 37.2378 115.92 37.0366 115.913C36.7789 115.913 36.5778 115.964 36.427 116.058C36.2824 116.152 36.1818 116.328 36.119 116.586L35.5344 116.511C35.5973 116.152 35.7607 115.882 36.031 115.7C36.295 115.517 36.6595 115.429 37.1184 115.429C37.5395 115.429 37.8475 115.492 38.0487 115.612C38.2435 115.731 38.3629 115.888 38.4132 116.064C38.4572 116.247 38.4824 116.473 38.4824 116.743V117.541C38.4824 118.025 38.4949 118.352 38.5075 118.522C38.5263 118.685 38.5829 118.849 38.6709 119.006V119ZM37.8852 117.466V117.252C37.5709 117.353 37.1938 117.435 36.7412 117.497C36.2887 117.554 36.0687 117.743 36.0687 118.069C36.0687 118.227 36.1315 118.359 36.251 118.465C36.3704 118.566 36.5464 118.623 36.7727 118.623C37.0681 118.623 37.3258 118.534 37.5458 118.365C37.7721 118.195 37.8852 117.893 37.8852 117.472V117.466Z" fill="#285C4D"/>
<path d="M38.6709 119H38.0487C37.9921 118.893 37.9481 118.748 37.9229 118.572C37.5207 118.912 37.0932 119.088 36.6281 119.088C36.2573 119.088 35.9618 118.993 35.7544 118.811C35.5407 118.629 35.4338 118.384 35.4338 118.082C35.4338 117.793 35.5344 117.554 35.7418 117.365C35.9493 117.177 36.3075 117.051 36.8167 116.988L37.3761 116.907C37.5835 116.875 37.7532 116.831 37.8915 116.787C37.8915 116.611 37.8852 116.485 37.8726 116.41C37.8601 116.335 37.8286 116.259 37.7783 116.177C37.7218 116.096 37.6401 116.033 37.5144 115.989C37.3949 115.945 37.2378 115.92 37.0366 115.913C36.7789 115.913 36.5778 115.964 36.4333 116.058C36.2887 116.152 36.1881 116.328 36.1253 116.586L35.5407 116.511C35.6036 116.152 35.767 115.882 36.0373 115.7C36.3013 115.524 36.6658 115.429 37.1247 115.429C37.5458 115.429 37.8538 115.492 38.0549 115.612C38.2498 115.737 38.3692 115.888 38.4195 116.064C38.4635 116.24 38.4886 116.467 38.4886 116.743V117.541C38.4886 118.025 38.5012 118.352 38.5138 118.516C38.5326 118.679 38.5892 118.842 38.6772 119H38.6709ZM37.8852 117.466V117.252C37.5709 117.353 37.1938 117.435 36.7412 117.497C36.2887 117.554 36.0687 117.743 36.0687 118.069C36.0687 118.227 36.1315 118.359 36.251 118.465C36.3704 118.566 36.5464 118.623 36.7727 118.623C37.0618 118.623 37.3258 118.534 37.5458 118.365C37.7721 118.195 37.8852 117.893 37.8852 117.472V117.466Z" stroke="#285C4D" stroke-width="0.263994"/>
<path d="M41.5555 115.612L41.3481 116.159C41.2036 116.077 41.059 116.033 40.9144 116.033C40.6881 116.033 40.5184 116.133 40.4053 116.328C40.2921 116.523 40.2356 116.806 40.2356 117.164V119H39.6384V115.505H40.179V116.033H40.1916C40.3864 115.631 40.6315 115.429 40.9333 115.429C41.1344 115.429 41.3418 115.492 41.5492 115.618L41.5555 115.612Z" fill="#285C4D"/>
<path d="M41.5555 115.612L41.3481 116.159C41.2036 116.077 41.059 116.033 40.9144 116.033C40.6881 116.033 40.5184 116.133 40.4053 116.328C40.2921 116.523 40.2356 116.806 40.2356 117.164V119H39.6384V115.505H40.179V116.033H40.1916C40.3864 115.631 40.6315 115.429 40.9333 115.429C41.1344 115.429 41.3418 115.492 41.5492 115.618L41.5555 115.612Z" stroke="#285C4D" stroke-width="0.263994"/>
<path d="M45.0559 117.792C44.9805 118.239 44.8045 118.566 44.528 118.767C44.2514 118.974 43.9434 119.081 43.5914 119.081C43.0823 119.081 42.6863 118.911 42.4097 118.584C42.1269 118.251 41.9949 117.811 41.9949 117.258C41.9949 116.799 42.0766 116.441 42.2337 116.164C42.3909 115.894 42.592 115.699 42.8372 115.592C43.0823 115.479 43.3337 115.423 43.5977 115.423C43.956 115.423 44.2703 115.517 44.5217 115.699C44.7794 115.888 44.9365 116.158 44.9994 116.523L44.4211 116.611C44.3645 116.372 44.264 116.196 44.132 116.083C44 115.963 43.8303 115.9 43.6166 115.9C43.2834 115.9 43.032 116.02 42.8623 116.252C42.6926 116.491 42.6046 116.818 42.6046 117.239C42.6046 117.66 42.6863 118 42.856 118.239C43.0257 118.471 43.2709 118.591 43.5851 118.591C43.8428 118.591 44.044 118.522 44.1885 118.377C44.3331 118.232 44.4274 118.012 44.4651 117.717L45.0559 117.792Z" fill="#285C4D"/>
<path d="M45.0559 117.793C44.9805 118.239 44.8045 118.566 44.528 118.773C44.2514 118.981 43.9434 119.087 43.5914 119.087C43.0823 119.087 42.6863 118.918 42.4097 118.591C42.1332 118.258 41.9949 117.818 41.9949 117.271C41.9949 116.812 42.0766 116.448 42.2337 116.177C42.3909 115.907 42.592 115.712 42.8372 115.605C43.0823 115.492 43.3337 115.436 43.5977 115.436C43.956 115.436 44.2703 115.53 44.5217 115.718C44.7794 115.907 44.9365 116.177 44.9994 116.542L44.4211 116.63C44.3645 116.397 44.264 116.215 44.132 116.102C44 115.982 43.8303 115.926 43.6166 115.926C43.2834 115.926 43.032 116.045 42.8623 116.278C42.6926 116.51 42.6046 116.843 42.6046 117.265C42.6046 117.686 42.6863 118.025 42.856 118.264C43.0257 118.497 43.2709 118.61 43.5851 118.616C43.8428 118.616 44.044 118.547 44.1885 118.402C44.3331 118.258 44.4274 118.038 44.4651 117.742L45.0559 117.818V117.793Z" stroke="#285C4D" stroke-width="0.263994"/>
<path d="M48.8784 119H48.2498C48.1933 118.893 48.1492 118.748 48.1241 118.572C47.7218 118.912 47.2944 119.088 46.8293 119.088C46.4584 119.088 46.1693 118.993 45.9556 118.811C45.7419 118.629 45.635 118.384 45.635 118.082C45.635 117.793 45.7356 117.554 45.943 117.365C46.1442 117.177 46.5024 117.051 47.0178 116.988L47.571 116.907C47.7784 116.875 47.9481 116.831 48.0864 116.787C48.0864 116.605 48.0864 116.485 48.0676 116.41C48.055 116.335 48.0235 116.259 47.9733 116.177C47.923 116.096 47.835 116.033 47.7156 115.989C47.5961 115.945 47.4327 115.92 47.2379 115.913C46.9802 115.913 46.779 115.964 46.6344 116.058C46.4899 116.152 46.383 116.328 46.3264 116.586L45.7419 116.511C45.8047 116.152 45.9682 115.882 46.2384 115.7C46.5024 115.517 46.867 115.429 47.3321 115.429C47.7533 115.429 48.0613 115.492 48.2561 115.612C48.451 115.731 48.5704 115.888 48.6207 116.064C48.6646 116.247 48.6898 116.473 48.6898 116.743V117.541C48.6898 118.025 48.7024 118.352 48.7149 118.522C48.7338 118.685 48.7904 118.849 48.8847 119.006L48.8784 119ZM48.0927 117.466V117.252C47.7784 117.353 47.4013 117.435 46.9487 117.497C46.5024 117.554 46.2761 117.743 46.2761 118.069C46.2761 118.227 46.339 118.359 46.4585 118.465C46.5842 118.566 46.7538 118.623 46.9801 118.623C47.2756 118.623 47.5333 118.534 47.7533 118.365C47.9733 118.195 48.0864 117.893 48.0927 117.472V117.466Z" fill="#285C4D"/>
<path d="M48.8783 119H48.2497C48.1932 118.893 48.1492 118.748 48.124 118.572C47.7217 118.912 47.2943 119.088 46.8292 119.088C46.4583 119.088 46.1692 118.993 45.9492 118.811C45.7355 118.629 45.6287 118.384 45.6287 118.082C45.6287 117.793 45.7292 117.554 45.9366 117.365C46.1378 117.177 46.496 117.051 47.0115 116.988L47.5646 116.907C47.772 116.875 47.9417 116.831 48.08 116.787C48.08 116.611 48.08 116.485 48.0612 116.41C48.0486 116.335 48.0172 116.259 47.9669 116.177C47.9166 116.096 47.8286 116.033 47.7092 115.989C47.5898 115.945 47.4263 115.92 47.2315 115.913C46.9738 115.913 46.7726 115.964 46.628 116.058C46.4772 116.152 46.3766 116.328 46.3201 116.586L45.7355 116.511C45.7984 116.152 45.9618 115.882 46.2321 115.7C46.496 115.524 46.8606 115.429 47.3257 115.429C47.7469 115.429 48.0549 115.492 48.2497 115.612C48.4446 115.737 48.564 115.888 48.6143 116.064C48.6583 116.24 48.6834 116.467 48.6834 116.743V117.541C48.6834 118.025 48.696 118.352 48.7086 118.516C48.7274 118.679 48.784 118.842 48.8783 119ZM48.0863 117.466V117.252C47.772 117.353 47.3949 117.435 46.9423 117.497C46.496 117.554 46.2698 117.743 46.2698 118.069C46.2698 118.227 46.3326 118.359 46.4521 118.465C46.5778 118.566 46.7475 118.623 46.9737 118.623C47.2692 118.623 47.5269 118.534 47.7469 118.365C47.9669 118.195 48.08 117.893 48.0863 117.472V117.466Z" stroke="#285C4D" stroke-width="0.263994"/>
<path d="M54.8487 118.999H54.2892V118.553H54.2766C54.0629 118.905 53.7361 119.081 53.3087 119.081C52.8813 119.081 52.523 118.911 52.2338 118.572C51.951 118.232 51.8065 117.792 51.8002 117.252C51.8002 116.686 51.9321 116.24 52.2087 115.913C52.479 115.586 52.8373 115.423 53.2836 115.423C53.7047 115.423 54.0252 115.58 54.2389 115.9H54.2515V114.166H54.8487V118.993V118.999ZM53.3716 118.597C53.6293 118.597 53.8555 118.49 54.0315 118.276C54.2138 118.063 54.3018 117.742 54.3018 117.308C54.3018 116.875 54.2201 116.542 54.0504 116.29C53.8807 116.039 53.6481 115.907 53.3401 115.907C53.0321 115.907 52.7996 116.032 52.6424 116.278C52.4853 116.523 52.4036 116.85 52.4036 117.252C52.4036 117.541 52.4476 117.786 52.5293 117.987C52.611 118.188 52.7304 118.339 52.8876 118.446C53.0447 118.547 53.2018 118.597 53.3653 118.597H53.3716Z" fill="#285C4D"/>
<path d="M54.8487 118.999H54.2892V118.553H54.2766C54.0629 118.905 53.7361 119.081 53.3087 119.081C52.8813 119.081 52.523 118.911 52.2338 118.572C51.951 118.232 51.8065 117.792 51.8002 117.252C51.8002 116.686 51.9384 116.24 52.2087 115.913C52.479 115.586 52.8373 115.423 53.2836 115.423C53.7047 115.423 54.0189 115.58 54.2389 115.9H54.2515V114.166H54.8487V118.993V118.999ZM53.3716 118.597C53.6293 118.597 53.8555 118.49 54.0315 118.276C54.2138 118.063 54.3018 117.742 54.3018 117.308C54.3018 116.875 54.2201 116.548 54.0504 116.29C53.8807 116.039 53.6481 115.907 53.3401 115.907C53.0321 115.907 52.7996 116.032 52.6424 116.278C52.4853 116.523 52.4036 116.85 52.4036 117.252C52.4036 117.541 52.4476 117.786 52.5293 117.987C52.611 118.188 52.7304 118.339 52.8876 118.446C53.0447 118.547 53.2018 118.597 53.3653 118.597H53.3716Z" stroke="#285C4D" stroke-width="0.263994"/>
<path d="M57.4705 115.423C57.942 115.423 58.338 115.58 58.6522 115.882C58.9602 116.19 59.1174 116.623 59.1236 117.195C59.1236 117.88 58.9539 118.371 58.6145 118.654C58.2751 118.936 57.898 119.081 57.4705 119.081C57.0243 119.081 56.6409 118.936 56.314 118.641C55.9872 118.352 55.8237 117.887 55.8237 117.252C55.8237 116.617 55.9809 116.177 56.2951 115.875C56.6094 115.574 56.9991 115.423 57.4643 115.423H57.4705ZM57.4705 118.597C57.81 118.597 58.0677 118.471 58.2437 118.22C58.4197 117.968 58.5077 117.642 58.5077 117.233C58.5077 116.793 58.4071 116.466 58.2122 116.24C58.0111 116.02 57.766 115.907 57.4705 115.907C57.1751 115.907 56.9237 116.02 56.7289 116.246C56.534 116.472 56.4334 116.806 56.4334 117.258C56.4334 117.711 56.534 118.038 56.7289 118.258C56.9237 118.478 57.1751 118.597 57.4705 118.597Z" fill="#285C4D"/>
<path d="M57.4705 115.423C57.942 115.423 58.338 115.58 58.6522 115.882C58.9602 116.19 59.1174 116.623 59.1236 117.195C59.1236 117.88 58.9539 118.371 58.6145 118.654C58.2751 118.936 57.898 119.081 57.4705 119.081C57.0243 119.081 56.6409 118.936 56.314 118.641C55.9872 118.346 55.8237 117.887 55.8237 117.252C55.8237 116.617 55.9809 116.177 56.2951 115.875C56.6094 115.574 56.9991 115.423 57.4643 115.423H57.4705ZM57.4705 118.597C57.81 118.597 58.0677 118.471 58.2437 118.22C58.4197 117.968 58.5077 117.642 58.5077 117.233C58.5077 116.799 58.4071 116.466 58.2122 116.246C58.0111 116.026 57.766 115.913 57.4705 115.913C57.1751 115.913 56.9237 116.026 56.7289 116.246C56.534 116.472 56.4334 116.806 56.4334 117.258C56.4334 117.711 56.534 118.038 56.7289 118.258C56.9237 118.478 57.1751 118.591 57.4705 118.597Z" stroke="#285C4D" stroke-width="0.263994"/>
<path d="M66.9812 119H66.3841V116.793C66.3841 116.63 66.3778 116.492 66.3527 116.379C66.3275 116.265 66.2772 116.165 66.183 116.071C66.095 115.976 65.9504 115.939 65.7555 115.939C65.523 115.939 65.3219 116.02 65.1522 116.184C64.9824 116.347 64.8944 116.611 64.8944 116.976V119.006H64.2973V116.731C64.2973 116.429 64.247 116.221 64.1401 116.108C64.0333 115.995 63.8825 115.939 63.6813 115.939C63.4236 115.939 63.2162 116.027 63.0528 116.203C62.8893 116.379 62.8076 116.705 62.8014 117.189V119.006H62.2042V115.511H62.7385V116.001H62.7511C62.9899 115.624 63.3356 115.436 63.8007 115.436C64.0585 115.436 64.2722 115.486 64.4356 115.587C64.599 115.687 64.7185 115.844 64.8002 116.045C65.0579 115.637 65.4224 115.429 65.8813 115.429C66.2458 115.429 66.5224 115.53 66.6984 115.725C66.8807 115.92 66.9687 116.215 66.9749 116.605V119.006L66.9812 119Z" fill="#285C4D"/>
<path d="M66.9812 118.999H66.3841V116.793C66.3841 116.63 66.3715 116.491 66.3527 116.378C66.3338 116.265 66.2772 116.164 66.183 116.07C66.095 115.982 65.9504 115.932 65.7555 115.932C65.523 115.932 65.3219 116.014 65.1522 116.177C64.9824 116.34 64.8944 116.604 64.8944 116.969V118.999H64.2973V116.724C64.2973 116.422 64.247 116.215 64.1401 116.102C64.0333 115.988 63.8825 115.932 63.6813 115.932C63.4236 115.932 63.2162 116.02 63.0528 116.196C62.8893 116.372 62.8076 116.699 62.8014 117.183V118.999H62.2042V115.504H62.7448V115.995H62.7574C62.9962 115.618 63.3419 115.429 63.807 115.429C64.0647 115.429 64.2785 115.479 64.4419 115.58C64.6053 115.68 64.7247 115.838 64.8064 116.039C65.0641 115.63 65.4287 115.423 65.8876 115.423C66.2521 115.423 66.5287 115.523 66.7047 115.718C66.8869 115.913 66.9749 116.208 66.9812 116.598V118.999Z" stroke="#285C4D" stroke-width="0.263994"/>
<path d="M71.1735 119H70.5512C70.4947 118.893 70.4507 118.748 70.4318 118.572C70.0295 118.912 69.6021 119.088 69.137 119.088C68.7661 119.088 68.477 118.993 68.2633 118.811C68.0496 118.629 67.9427 118.384 67.9427 118.082C67.9427 117.793 68.0433 117.554 68.2507 117.365C68.4519 117.177 68.8101 117.051 69.3255 116.988L69.885 116.907C70.0924 116.875 70.2621 116.831 70.4004 116.787C70.4004 116.605 70.3941 116.485 70.3815 116.41C70.369 116.335 70.3375 116.259 70.2873 116.177C70.2307 116.096 70.149 116.033 70.0233 115.989C69.9038 115.945 69.7467 115.92 69.5456 115.913C69.2879 115.913 69.0867 115.964 68.9421 116.058C68.7913 116.152 68.6907 116.328 68.6341 116.586L68.0496 116.511C68.1124 116.152 68.2759 115.882 68.5461 115.7C68.8101 115.517 69.1747 115.429 69.6398 115.429C70.061 115.429 70.369 115.492 70.5701 115.612C70.765 115.731 70.8844 115.888 70.9346 116.064C70.9786 116.247 71.0038 116.473 71.0038 116.743V117.541C71.0038 118.025 71.0101 118.352 71.0289 118.522C71.0478 118.685 71.1044 118.849 71.1924 119.006L71.1735 119ZM70.3878 117.466V117.252C70.0735 117.353 69.6964 117.435 69.2439 117.497C68.7913 117.554 68.5713 117.743 68.5713 118.069C68.5713 118.227 68.6341 118.359 68.7536 118.465C68.8793 118.566 69.049 118.623 69.2753 118.623C69.5644 118.623 69.8284 118.534 70.0484 118.365C70.2747 118.195 70.3878 117.893 70.3878 117.472V117.466Z" fill="#285C4D"/>
<path d="M71.1735 119H70.5512C70.4947 118.893 70.4507 118.748 70.4318 118.572C70.0295 118.912 69.6021 119.088 69.137 119.088C68.7661 119.088 68.477 118.993 68.2633 118.811C68.0496 118.629 67.9427 118.384 67.9427 118.082C67.9427 117.793 68.0433 117.554 68.2507 117.365C68.4519 117.177 68.8101 117.051 69.3255 116.988L69.885 116.907C70.0924 116.875 70.2621 116.831 70.4004 116.787C70.4004 116.611 70.3941 116.485 70.3815 116.41C70.369 116.335 70.3375 116.259 70.2873 116.177C70.2307 116.096 70.149 116.033 70.0233 115.989C69.9038 115.945 69.7467 115.92 69.5456 115.913C69.2879 115.913 69.0867 115.964 68.9421 116.058C68.7913 116.152 68.6907 116.328 68.6341 116.586L68.0496 116.511C68.1124 116.152 68.2759 115.882 68.5461 115.7C68.8101 115.524 69.1747 115.429 69.6398 115.429C70.061 115.429 70.369 115.492 70.5701 115.612C70.765 115.737 70.8844 115.888 70.9346 116.064C70.9786 116.24 71.0038 116.467 71.0038 116.743V117.541C71.0038 118.025 71.0164 118.352 71.0289 118.516C71.0478 118.679 71.1044 118.842 71.1924 119H71.1735ZM70.3878 117.466V117.252C70.0735 117.353 69.6964 117.435 69.2439 117.497C68.7913 117.554 68.5713 117.743 68.5713 118.069C68.5713 118.227 68.6341 118.359 68.7536 118.465C68.8793 118.566 69.049 118.623 69.2753 118.623C69.5707 118.623 69.8284 118.534 70.0484 118.365C70.2747 118.195 70.3878 117.893 70.3878 117.472V117.466Z" stroke="#285C4D" stroke-width="0.263994"/>
<path d="M75.0322 118.999H74.435V116.875C74.435 116.516 74.3722 116.271 74.2402 116.133C74.1145 116.001 73.9322 115.932 73.6996 115.932C73.5236 115.932 73.3539 115.976 73.1968 116.058C73.0397 116.146 72.9265 116.265 72.8574 116.422C72.7883 116.579 72.7568 116.799 72.7568 117.082V118.993H72.1597V115.498H72.694V115.995H72.7065C72.8322 115.8 72.9894 115.662 73.1717 115.567C73.354 115.473 73.5676 115.423 73.8128 115.423C74.0013 115.423 74.1836 115.454 74.3659 115.523C74.5482 115.586 74.6865 115.687 74.7933 115.819C74.8939 115.951 74.9567 116.089 74.9882 116.24C75.0196 116.391 75.0322 116.592 75.0259 116.85V118.999H75.0322Z" fill="#285C4D"/>
<path d="M75.0322 119H74.4351V116.875C74.4351 116.517 74.3722 116.272 74.2402 116.133C74.1145 115.995 73.9323 115.932 73.6997 115.932C73.5237 115.932 73.354 115.976 73.1969 116.058C73.0397 116.146 72.9266 116.265 72.8575 116.423C72.7883 116.58 72.7569 116.8 72.7569 117.089V119H72.166V115.505H72.7003V116.001H72.7129C72.8386 115.813 72.9957 115.668 73.178 115.574C73.3603 115.48 73.574 115.429 73.8191 115.429C74.0077 115.429 74.19 115.461 74.366 115.53C74.5482 115.599 74.6865 115.693 74.7934 115.825C74.8939 115.957 74.9568 116.096 74.9882 116.247C75.0197 116.397 75.0322 116.599 75.0259 116.856V119.006L75.0322 119Z" stroke="#285C4D" stroke-width="0.263994"/>
<path d="M79.2432 117.403H76.6159C76.641 117.792 76.7479 118.088 76.9427 118.289C77.1376 118.496 77.389 118.597 77.6844 118.597C77.9107 118.597 78.0992 118.54 78.2564 118.421C78.4135 118.302 78.5267 118.119 78.6084 117.874L79.2181 117.95C79.1175 118.314 78.9415 118.597 78.6712 118.792C78.4072 118.987 78.0804 119.087 77.6781 119.087C77.1501 119.087 76.7415 118.93 76.4461 118.603C76.1507 118.283 75.9999 117.843 75.9999 117.283C75.9999 116.73 76.1444 116.284 76.4273 115.938C76.7164 115.599 77.1187 115.423 77.6467 115.423C77.9044 115.423 78.1495 115.479 78.3821 115.592C78.6209 115.706 78.8158 115.894 78.9918 116.164C79.1552 116.435 79.2369 116.843 79.2369 117.403H79.2432ZM78.6335 116.912C78.6083 116.554 78.5015 116.303 78.3067 116.146C78.1118 115.988 77.8918 115.907 77.6592 115.907C77.3764 115.907 77.1501 116.001 76.9678 116.183C76.7856 116.372 76.685 116.611 76.6536 116.912H78.6398H78.6335Z" fill="#285C4D"/>
<path d="M79.2432 117.403H76.6159C76.641 117.792 76.7479 118.088 76.9427 118.289C77.1376 118.496 77.389 118.597 77.6844 118.597C77.9107 118.597 78.0992 118.54 78.2564 118.421C78.4135 118.302 78.5267 118.119 78.6084 117.874L79.2181 117.95C79.1175 118.314 78.9415 118.597 78.6712 118.792C78.4072 118.987 78.0804 119.087 77.6781 119.087C77.1501 119.087 76.7415 118.93 76.4461 118.603C76.1507 118.283 75.9999 117.843 75.9999 117.283C75.9999 116.73 76.1444 116.284 76.4273 115.938C76.7164 115.599 77.1187 115.423 77.6467 115.423C77.9044 115.423 78.1495 115.479 78.3821 115.592C78.6209 115.706 78.8158 115.894 78.9918 116.164C79.1615 116.435 79.2369 116.843 79.2369 117.403H79.2432ZM78.6335 116.919C78.6083 116.56 78.5015 116.309 78.3067 116.152C78.1118 115.995 77.8918 115.919 77.6592 115.913C77.3764 115.913 77.1501 116.007 76.9678 116.196C76.7856 116.384 76.685 116.623 76.6536 116.925H78.6398L78.6335 116.919Z" stroke="#285C4D" stroke-width="0.263994"/>
<path d="M80.8215 119.188C80.8215 119.421 80.8089 119.616 80.7775 119.779C80.7461 119.949 80.6644 120.093 80.5386 120.219C80.4129 120.345 80.2118 120.408 79.9352 120.408C79.7781 120.408 79.6209 120.389 79.4701 120.351L79.5832 119.848C79.6964 119.88 79.7844 119.892 79.8661 119.892C79.9918 119.892 80.0861 119.848 80.1427 119.766C80.1992 119.678 80.2307 119.484 80.2307 119.169V115.498H80.8278V119.182L80.8215 119.188ZM80.8215 114.845H80.2244V114.172H80.8215V114.845Z" fill="#285C4D"/>
<path d="M80.8215 119.188C80.8215 119.421 80.8089 119.616 80.7775 119.779C80.7461 119.942 80.6644 120.093 80.5386 120.219C80.4129 120.345 80.2118 120.408 79.9352 120.408C79.7781 120.408 79.6209 120.389 79.4701 120.351L79.5832 119.848C79.6964 119.88 79.7844 119.892 79.8661 119.892C79.9918 119.892 80.0861 119.848 80.1427 119.766C80.1992 119.678 80.2307 119.484 80.2307 119.169V115.498H80.8278V119.182L80.8215 119.188ZM80.8215 114.845H80.2244V114.172H80.8215V114.845Z" stroke="#285C4D" stroke-width="0.263994"/>
<path d="M83.4241 115.423C83.9018 115.423 84.2915 115.58 84.6058 115.882C84.9201 116.19 85.0772 116.623 85.0772 117.195C85.0772 117.88 84.9075 118.371 84.5744 118.654C84.2349 118.936 83.8578 119.081 83.4304 119.081C82.9904 119.081 82.6007 118.936 82.2739 118.641C81.947 118.352 81.7836 117.887 81.7836 117.252C81.7836 116.617 81.9407 116.177 82.255 115.875C82.5693 115.574 82.959 115.423 83.4241 115.423ZM83.4241 118.597C83.7636 118.597 84.0212 118.471 84.1972 118.22C84.3732 117.968 84.4612 117.642 84.4612 117.233C84.4612 116.793 84.3607 116.466 84.1595 116.24C83.9584 116.02 83.7133 115.907 83.4178 115.907C83.1224 115.907 82.8647 116.02 82.6761 116.246C82.4813 116.472 82.387 116.806 82.387 117.258C82.387 117.711 82.4875 118.038 82.6824 118.258C82.8773 118.478 83.1224 118.597 83.4241 118.597Z" fill="#285C4D"/>
<path d="M83.4241 115.423C83.9018 115.423 84.2915 115.58 84.6058 115.882C84.9201 116.19 85.0772 116.623 85.0772 117.195C85.0772 117.88 84.9075 118.371 84.5744 118.654C84.2349 118.936 83.8578 119.081 83.4304 119.081C82.9904 119.081 82.6007 118.936 82.2739 118.641C81.947 118.346 81.7836 117.887 81.7836 117.252C81.7836 116.617 81.9407 116.177 82.255 115.875C82.5693 115.574 82.959 115.423 83.4241 115.423ZM83.4241 118.597C83.7636 118.597 84.0212 118.471 84.1972 118.22C84.3732 117.968 84.4612 117.642 84.4612 117.233C84.4612 116.799 84.3607 116.466 84.1595 116.246C83.9584 116.026 83.7133 115.913 83.4178 115.913C83.1224 115.913 82.871 116.026 82.6761 116.246C82.4813 116.472 82.387 116.806 82.387 117.258C82.387 117.711 82.4875 118.038 82.6824 118.258C82.8773 118.478 83.1224 118.591 83.4241 118.597Z" stroke="#285C4D" stroke-width="0.263994"/>
<path d="M22.2217 121.765L22.1337 122.287C22.0143 122.268 21.8949 122.249 21.788 122.249C21.6434 122.249 21.5303 122.28 21.436 122.337C21.348 122.4 21.2977 122.551 21.2977 122.79V123.123H21.9766V123.582H21.2977V126.624H20.7006V123.582H20.1726V123.123H20.7006V122.739C20.7006 122.563 20.7132 122.406 20.7509 122.262C20.7823 122.117 20.8703 121.991 21.0086 121.878C21.1532 121.765 21.3669 121.702 21.6686 121.702C21.8446 121.702 22.0331 121.721 22.228 121.765H22.2217Z" fill="#285C4D"/>
<path d="M22.2218 121.765L22.1338 122.286C22.0143 122.268 21.8949 122.255 21.7881 122.255C21.6435 122.255 21.5304 122.286 21.4361 122.343C21.3481 122.406 21.2978 122.557 21.2978 122.796V123.129H21.9766V123.588H21.2978V126.63H20.7069V123.588H20.179V123.129H20.7069V122.745C20.7069 122.569 20.7195 122.412 20.7572 122.268C20.7887 122.123 20.8766 121.997 21.0149 121.884C21.1595 121.771 21.3732 121.708 21.6749 121.708C21.8509 121.708 22.0395 121.727 22.2343 121.771L22.2218 121.765Z" stroke="#285C4D" stroke-width="0.263994"/>
<path d="M23.3089 121.784H22.7118V126.617H23.3089V121.784Z" fill="#285C4D"/>
<path d="M23.3089 121.784H22.7118V126.617H23.3089V121.784Z" stroke="#285C4D" stroke-width="0.263994"/>
<path d="M25.9108 123.041C26.3822 123.041 26.7782 123.198 27.0925 123.5C27.4068 123.808 27.5576 124.248 27.5639 124.813C27.5639 125.498 27.3942 125.989 27.0611 126.271C26.7279 126.554 26.3445 126.699 25.9171 126.699C25.4771 126.699 25.0874 126.554 24.7605 126.265C24.4337 125.976 24.2703 125.511 24.2703 124.87C24.2703 124.229 24.4274 123.795 24.7417 123.5C25.056 123.198 25.4457 123.047 25.9108 123.041ZM25.9108 126.209C26.2502 126.209 26.5079 126.083 26.6839 125.832C26.8599 125.58 26.9479 125.253 26.9479 124.845C26.9479 124.405 26.8473 124.078 26.6525 123.858C26.4513 123.638 26.2062 123.525 25.9108 123.525C25.6154 123.525 25.3577 123.638 25.1691 123.858C24.9742 124.084 24.88 124.417 24.88 124.864C24.88 125.31 24.9805 125.643 25.1691 125.863C25.3639 126.089 25.6154 126.202 25.9108 126.202V126.209Z" fill="#285C4D"/>
<path d="M25.9108 123.041C26.3822 123.041 26.7782 123.198 27.0925 123.5C27.4068 123.808 27.5576 124.248 27.5639 124.813C27.5639 125.498 27.3942 125.989 27.0611 126.271C26.7279 126.554 26.3445 126.699 25.9171 126.699C25.4771 126.699 25.0874 126.554 24.7605 126.259C24.4337 125.97 24.2703 125.505 24.2703 124.87C24.2703 124.235 24.4274 123.795 24.7417 123.5C25.056 123.198 25.4457 123.047 25.9108 123.041ZM25.9108 126.209C26.2502 126.209 26.5079 126.083 26.6839 125.832C26.8599 125.58 26.9479 125.253 26.9479 124.845C26.9479 124.405 26.8473 124.078 26.6525 123.852C26.4513 123.632 26.2062 123.518 25.9108 123.518C25.6154 123.518 25.3577 123.632 25.1691 123.852C24.9742 124.078 24.88 124.411 24.88 124.857C24.88 125.304 24.9805 125.637 25.1691 125.857C25.3639 126.083 25.6154 126.196 25.9108 126.196V126.209Z" stroke="#285C4D" stroke-width="0.263994"/>
<path d="M30.4053 123.23L30.2041 123.776C30.0533 123.688 29.915 123.644 29.7704 123.644C29.5441 123.644 29.3807 123.745 29.2676 123.94C29.1544 124.141 29.0979 124.418 29.0979 124.776V126.611H28.5007V123.116H29.0413V123.644H29.0539C29.2424 123.242 29.4938 123.035 29.7956 123.035C29.9967 123.035 30.2041 123.098 30.4053 123.223V123.23Z" fill="#285C4D"/>
<path d="M30.4053 123.229L30.2041 123.776C30.0533 123.688 29.9087 123.644 29.7704 123.644C29.5441 123.644 29.3807 123.745 29.2676 123.94C29.1544 124.141 29.0979 124.417 29.0979 124.776V126.611H28.5007V123.116H29.0413V123.644H29.0539C29.2424 123.242 29.4938 123.041 29.7956 123.041C29.9967 123.041 30.2041 123.104 30.4053 123.229Z" stroke="#285C4D" stroke-width="0.263994"/>
<path d="M34.0813 125.014H31.4539C31.4791 125.398 31.5859 125.693 31.7871 125.901C31.9819 126.102 32.2333 126.202 32.5288 126.202C32.755 126.202 32.9436 126.146 33.1008 126.026C33.2579 125.907 33.371 125.725 33.4527 125.486L34.0624 125.561C33.9619 125.926 33.7796 126.209 33.5156 126.404C33.2516 126.598 32.9185 126.693 32.5225 126.693C31.9945 126.693 31.5859 126.535 31.2905 126.215C30.9951 125.894 30.8442 125.454 30.8442 124.895C30.8442 124.342 30.9888 123.896 31.2779 123.556C31.5608 123.21 31.9694 123.041 32.4911 123.041C32.7488 123.041 32.9939 123.097 33.2327 123.21C33.4716 123.324 33.6727 123.512 33.8362 123.782C34.0059 124.046 34.0876 124.461 34.0876 125.021L34.0813 125.014ZM33.4716 124.53C33.4465 124.172 33.3396 123.921 33.1385 123.764C32.9436 123.606 32.7236 123.531 32.4911 123.525C32.2145 123.525 31.9819 123.619 31.7996 123.808C31.6174 123.996 31.5105 124.235 31.4854 124.53H33.4716Z" fill="#285C4D"/>
<path d="M34.0813 125.021H31.4539C31.4791 125.404 31.5922 125.7 31.7871 125.907C31.9819 126.108 32.2333 126.209 32.5288 126.209C32.755 126.209 32.9436 126.152 33.1008 126.033C33.2579 125.913 33.371 125.731 33.4527 125.492L34.0624 125.568C33.9619 125.932 33.7796 126.215 33.5156 126.41C33.2516 126.605 32.9185 126.699 32.5225 126.699C31.9945 126.699 31.5859 126.542 31.2905 126.215C30.9951 125.894 30.8442 125.454 30.8442 124.895C30.8442 124.342 30.9888 123.896 31.2779 123.556C31.5608 123.21 31.9694 123.041 32.4911 123.041C32.7488 123.041 32.9939 123.097 33.2327 123.21C33.4716 123.324 33.6727 123.512 33.8362 123.782C34.0059 124.053 34.0876 124.461 34.0876 125.021H34.0813ZM33.4716 124.53C33.4465 124.172 33.3333 123.921 33.1385 123.764C32.9436 123.606 32.7236 123.531 32.4911 123.525C32.2145 123.525 31.9819 123.619 31.7996 123.808C31.6174 123.996 31.5105 124.235 31.4854 124.53H33.4716Z" stroke="#285C4D" stroke-width="0.263994"/>
<path d="M37.0232 124.097C36.9981 123.908 36.9226 123.763 36.7906 123.669C36.6649 123.575 36.4826 123.525 36.2501 123.525C36.0238 123.525 35.8415 123.562 35.7032 123.638C35.565 123.713 35.4958 123.826 35.4895 123.971C35.4895 124.109 35.5461 124.21 35.6592 124.266C35.7724 124.323 35.9861 124.398 36.3192 124.486C36.6901 124.581 36.9666 124.662 37.1489 124.738C37.3312 124.807 37.4758 124.914 37.5763 125.039C37.6832 125.171 37.7335 125.354 37.7335 125.586C37.7335 125.901 37.6077 126.165 37.35 126.372C37.0923 126.586 36.7529 126.693 36.3255 126.693C35.8981 126.693 35.5335 126.598 35.2821 126.416C35.037 126.227 34.8798 125.945 34.8232 125.567L35.4141 125.479C35.4455 125.725 35.5335 125.901 35.6844 126.026C35.8352 126.146 36.0489 126.209 36.3192 126.209C36.5895 126.209 36.778 126.158 36.9163 126.051C37.0546 125.945 37.1238 125.813 37.1238 125.649C37.1238 125.542 37.0924 125.461 37.0295 125.398C36.9666 125.335 36.8849 125.285 36.7906 125.253C36.6964 125.222 36.4763 125.165 36.1432 125.083C35.6467 124.964 35.3135 124.826 35.1564 124.656C34.9992 124.486 34.9175 124.285 34.9175 124.053C34.9175 123.763 35.0307 123.518 35.2695 123.33C35.5021 123.141 35.8164 123.047 36.2124 123.047C36.6335 123.047 36.9541 123.129 37.1866 123.292C37.4192 123.456 37.5575 123.701 37.6078 124.027L37.0232 124.103V124.097Z" fill="#285C4D"/>
<path d="M37.0232 124.097C36.9981 123.909 36.9226 123.764 36.7906 123.67C36.6649 123.576 36.4826 123.525 36.2501 123.525C36.0238 123.525 35.8415 123.563 35.7032 123.638C35.565 123.714 35.4958 123.827 35.4895 123.972C35.4895 124.11 35.5461 124.21 35.6592 124.267C35.7724 124.323 35.9861 124.399 36.3192 124.487C36.6901 124.581 36.9666 124.663 37.1489 124.738C37.3312 124.807 37.4758 124.914 37.5763 125.04C37.6832 125.172 37.7335 125.354 37.7335 125.587C37.7335 125.901 37.6077 126.159 37.35 126.373C37.0923 126.586 36.7529 126.693 36.3255 126.693C35.8981 126.693 35.5335 126.599 35.2821 126.41C35.037 126.222 34.8798 125.939 34.8232 125.562L35.4141 125.474C35.4455 125.719 35.5335 125.901 35.6844 126.021C35.8352 126.14 36.0489 126.197 36.3192 126.197C36.5895 126.197 36.778 126.146 36.9163 126.039C37.0546 125.933 37.1238 125.801 37.1238 125.637C37.1238 125.53 37.0924 125.449 37.0295 125.386C36.9666 125.323 36.8849 125.273 36.7906 125.241C36.6964 125.21 36.4763 125.153 36.1432 125.071C35.6467 124.952 35.3135 124.814 35.1564 124.644C34.9992 124.474 34.9175 124.273 34.9175 124.034C34.9175 123.745 35.0307 123.5 35.2695 123.312C35.5021 123.123 35.8164 123.029 36.2124 123.029C36.6335 123.029 36.9541 123.11 37.1866 123.274C37.4192 123.437 37.5575 123.682 37.6078 124.009L37.0232 124.091V124.097Z" stroke="#285C4D" stroke-width="0.263994"/>
<path d="M40.0908 126.611C39.9148 126.643 39.7639 126.662 39.6445 126.662C39.3868 126.662 39.192 126.618 39.0725 126.53C38.9531 126.442 38.8839 126.322 38.8525 126.184C38.8211 126.046 38.8148 125.845 38.8148 125.599V123.588H38.3811V123.129H38.8148V122.256L39.4119 121.897V123.129H40.0091V123.588H39.4119V125.637C39.4119 125.813 39.4308 125.939 39.4685 126.008C39.4999 126.083 39.5942 126.121 39.7451 126.121C39.8331 126.121 39.9211 126.109 40.0091 126.096L40.0908 126.624V126.611Z" fill="#285C4D"/>
<path d="M40.0908 126.611C39.9148 126.643 39.7639 126.662 39.6445 126.662C39.3868 126.662 39.192 126.618 39.0725 126.53C38.9531 126.442 38.8839 126.322 38.8525 126.184C38.8274 126.039 38.8148 125.845 38.8148 125.599V123.588H38.3811V123.129H38.8148V122.256L39.4119 121.897V123.129H40.0091V123.588H39.4119V125.637C39.4119 125.813 39.4308 125.939 39.4685 126.008C39.4999 126.083 39.5942 126.121 39.7451 126.121C39.8331 126.121 39.9211 126.109 40.0091 126.096L40.0908 126.624V126.611Z" stroke="#285C4D" stroke-width="0.263994"/>
<path d="M43.9133 126.617H43.2847C43.2281 126.504 43.1842 126.359 43.159 126.183C42.763 126.523 42.3293 126.699 41.8642 126.699C41.4933 126.699 41.1979 126.611 40.9905 126.422C40.7768 126.24 40.6699 125.995 40.6699 125.693C40.6699 125.392 40.7705 125.165 40.9779 124.977C41.1853 124.788 41.5436 124.662 42.0528 124.6L42.6059 124.518C42.8133 124.486 42.983 124.442 43.1213 124.398C43.1213 124.216 43.1213 124.097 43.1024 124.021C43.0961 123.946 43.0584 123.87 43.0081 123.789C42.9578 123.707 42.8699 123.644 42.7504 123.6C42.6247 123.55 42.4676 123.531 42.2664 123.531C42.0087 123.531 41.8076 123.581 41.6631 123.669C41.5185 123.764 41.4116 123.94 41.355 124.197L40.7705 124.122C40.8333 123.764 40.9968 123.493 41.2671 123.311C41.5311 123.129 41.8956 123.041 42.3607 123.041C42.7819 123.041 43.0898 123.104 43.2847 123.223C43.4796 123.349 43.599 123.5 43.6493 123.676C43.6933 123.852 43.7184 124.078 43.7184 124.354V125.153C43.7184 125.637 43.731 125.964 43.7436 126.127C43.7624 126.29 43.819 126.454 43.9133 126.617ZM43.1213 125.077V124.864C42.807 124.964 42.4299 125.046 41.9773 125.109C41.5311 125.165 41.3048 125.354 41.3048 125.681C41.3048 125.838 41.3676 125.97 41.487 126.077C41.6127 126.177 41.7825 126.234 42.0087 126.234C42.3042 126.234 42.5619 126.146 42.7819 125.976C43.0019 125.8 43.115 125.505 43.1213 125.084V125.077Z" fill="#285C4D"/>
<path d="M43.9132 126.618H43.2846C43.2281 126.504 43.1841 126.36 43.159 126.184C42.763 126.523 42.3292 126.699 41.8641 126.699C41.4933 126.699 41.1979 126.611 40.9841 126.423C40.7704 126.24 40.6636 125.995 40.6636 125.694C40.6636 125.392 40.7641 125.166 40.9716 124.977C41.179 124.788 41.5373 124.663 42.0464 124.6L42.5995 124.518C42.807 124.487 42.9767 124.443 43.115 124.392C43.115 124.216 43.1149 124.091 43.0961 124.015C43.0835 123.94 43.0521 123.864 43.0018 123.783C42.9515 123.701 42.8635 123.638 42.7441 123.594C42.6247 123.55 42.4612 123.525 42.2601 123.525C42.0024 123.525 41.8013 123.569 41.6567 123.663C41.5121 123.758 41.4053 123.934 41.3487 124.191L40.7641 124.116C40.827 123.758 40.9904 123.487 41.2607 123.305C41.5247 123.129 41.8893 123.035 42.3544 123.035C42.7755 123.035 43.0835 123.098 43.2784 123.217C43.4732 123.343 43.5926 123.494 43.6429 123.67C43.6869 123.852 43.7121 124.072 43.7121 124.348V125.147C43.7121 125.631 43.7247 125.958 43.7372 126.121C43.7561 126.284 43.8126 126.448 43.9069 126.611L43.9132 126.618ZM43.1212 125.078V124.864C42.8069 124.964 42.4298 125.046 41.9773 125.109C41.5247 125.166 41.3047 125.354 41.3047 125.681C41.3047 125.838 41.3676 125.976 41.487 126.077C41.6127 126.178 41.7824 126.234 42.0087 126.234C42.3041 126.234 42.5618 126.146 42.7818 125.976C43.0018 125.8 43.1149 125.505 43.1212 125.084V125.078Z" stroke="#285C4D" stroke-width="0.263994"/>
<path d="M45.4973 121.784H44.9001V126.617H45.4973V121.784Z" fill="#285C4D"/>
<path d="M45.4973 121.784H44.9001V126.617H45.4973V121.784Z" stroke="#285C4D" stroke-width="0.263994"/>
<path d="M50.7069 123.23L50.5057 123.776C50.3549 123.688 50.2166 123.644 50.0721 123.644C49.8521 123.644 49.6823 123.745 49.5692 123.94C49.456 124.141 49.3995 124.418 49.3995 124.776V126.611H48.8024V123.116H49.3429V123.644H49.3555C49.5441 123.242 49.7955 123.035 50.0972 123.035C50.2983 123.035 50.5057 123.098 50.7069 123.223V123.23Z" fill="#285C4D"/>
<path d="M50.7069 123.229L50.5058 123.776C50.3549 123.688 50.2104 123.644 50.0721 123.644C49.8521 123.644 49.6824 123.745 49.5692 123.94C49.4561 124.141 49.3996 124.417 49.3996 124.776V126.611H48.8087V123.116H49.3493V123.644H49.3618C49.5504 123.242 49.8018 123.041 50.1035 123.041C50.3047 123.041 50.5121 123.104 50.7132 123.229H50.7069Z" stroke="#285C4D" stroke-width="0.263994"/>
<path d="M54.3846 125.014H51.7572C51.7824 125.398 51.8955 125.693 52.0904 125.901C52.2852 126.102 52.5366 126.202 52.8321 126.202C53.0583 126.202 53.2469 126.146 53.4041 126.026C53.5612 125.907 53.6743 125.725 53.7561 125.486L54.3657 125.561C54.2652 125.926 54.0829 126.209 53.8189 126.404C53.5549 126.598 53.2218 126.693 52.8258 126.693C52.2978 126.693 51.8892 126.535 51.5875 126.215C51.2921 125.894 51.1412 125.454 51.1412 124.895C51.1412 124.342 51.2858 123.896 51.5749 123.556C51.8578 123.21 52.2663 123.041 52.788 123.041C53.0458 123.041 53.2909 123.097 53.5298 123.21C53.7686 123.324 53.9697 123.512 54.1332 123.782C54.3029 124.046 54.3846 124.461 54.3846 125.021V125.014ZM53.7749 124.53C53.7497 124.172 53.6429 123.921 53.4418 123.764C53.2469 123.606 53.0269 123.531 52.7943 123.525C52.5115 123.525 52.2852 123.619 52.1029 123.808C51.9207 123.996 51.8138 124.235 51.7887 124.53H53.7749Z" fill="#285C4D"/>
<path d="M54.3846 125.021H51.7572C51.7824 125.404 51.8955 125.7 52.0904 125.907C52.2852 126.108 52.5366 126.209 52.8321 126.209C53.0583 126.209 53.2469 126.152 53.4041 126.033C53.5612 125.913 53.6743 125.731 53.7561 125.492L54.3657 125.568C54.2652 125.932 54.0829 126.215 53.8189 126.41C53.5549 126.605 53.2218 126.699 52.8258 126.699C52.2978 126.699 51.8892 126.542 51.5875 126.215C51.2921 125.894 51.1412 125.454 51.1412 124.895C51.1412 124.342 51.2858 123.896 51.5749 123.556C51.8578 123.21 52.2663 123.041 52.788 123.041C53.0458 123.041 53.2909 123.097 53.5298 123.21C53.7623 123.324 53.9697 123.512 54.1332 123.782C54.3029 124.053 54.3846 124.461 54.3846 125.021ZM53.7749 124.53C53.7497 124.172 53.6429 123.921 53.4418 123.764C53.2469 123.606 53.0269 123.531 52.7943 123.525C52.5178 123.525 52.2852 123.619 52.1029 123.808C51.9207 123.996 51.8138 124.235 51.7887 124.53H53.7749Z" stroke="#285C4D" stroke-width="0.263994"/>
<path d="M57.3263 124.097C57.3012 123.908 57.2257 123.763 57.0937 123.669C56.968 123.575 56.7858 123.525 56.5532 123.525C56.3269 123.525 56.1446 123.562 56.0063 123.638C55.868 123.713 55.7926 123.826 55.7926 123.971C55.7926 124.109 55.8492 124.21 55.9561 124.266C56.0692 124.323 56.2829 124.398 56.616 124.486C56.9869 124.581 57.2634 124.662 57.4457 124.738C57.628 124.807 57.7726 124.914 57.8731 125.039C57.98 125.171 58.0303 125.354 58.0303 125.586C58.0303 125.901 57.9046 126.165 57.6469 126.372C57.3892 126.586 57.0497 126.693 56.6223 126.693C56.1949 126.693 55.8303 126.598 55.5789 126.416C55.3275 126.227 55.1766 125.945 55.1138 125.567L55.7046 125.479C55.736 125.725 55.824 125.901 55.9749 126.026C56.1257 126.146 56.3395 126.209 56.6097 126.209C56.88 126.209 57.0686 126.158 57.2069 126.051C57.3452 125.945 57.4143 125.813 57.4143 125.649C57.4143 125.542 57.3829 125.461 57.32 125.398C57.2572 125.335 57.1754 125.285 57.0812 125.253C56.9869 125.222 56.7669 125.165 56.4338 125.083C55.9372 124.964 55.6041 124.826 55.4469 124.656C55.2898 124.486 55.2081 124.285 55.2081 124.053C55.2081 123.763 55.3212 123.518 55.5601 123.33C55.7926 123.141 56.1069 123.047 56.5029 123.047C56.9177 123.047 57.2446 123.129 57.4771 123.292C57.7097 123.456 57.848 123.701 57.8983 124.027L57.3137 124.103L57.3263 124.097Z" fill="#285C4D"/>
<path d="M57.3265 124.097C57.3013 123.909 57.2259 123.764 57.0939 123.67C56.9682 123.576 56.7859 123.525 56.5534 123.525C56.3271 123.525 56.1448 123.563 56.0065 123.638C55.8682 123.714 55.7928 123.827 55.7928 123.972C55.7928 124.11 55.8494 124.21 55.9625 124.267C56.0757 124.323 56.2894 124.399 56.6225 124.487C56.9933 124.581 57.2699 124.663 57.4522 124.738C57.6345 124.807 57.779 124.914 57.8796 125.04C57.9865 125.172 58.0367 125.354 58.0367 125.587C58.0367 125.901 57.911 126.159 57.6533 126.373C57.3956 126.586 57.0562 126.693 56.6288 126.693C56.2014 126.693 55.8368 126.599 55.5854 126.41C55.3339 126.222 55.1831 125.939 55.1202 125.562L55.7111 125.474C55.7425 125.719 55.8305 125.901 55.9814 126.021C56.1322 126.14 56.3459 126.197 56.6162 126.197C56.8865 126.197 57.0751 126.146 57.2133 126.039C57.3516 125.933 57.4207 125.801 57.4207 125.637C57.4207 125.53 57.3893 125.449 57.3265 125.386C57.2636 125.323 57.1819 125.273 57.0876 125.241C56.9933 125.21 56.7733 125.153 56.4402 125.071C55.9436 124.952 55.6105 124.814 55.4534 124.644C55.2963 124.474 55.2145 124.273 55.2145 124.034C55.2145 123.745 55.3277 123.5 55.5665 123.312C55.7991 123.123 56.1134 123.029 56.5094 123.029C56.9242 123.029 57.2511 123.11 57.4836 123.274C57.7162 123.437 57.8545 123.682 57.9047 124.009L57.3202 124.091L57.3265 124.097Z" stroke="#285C4D" stroke-width="0.263994"/>
<path d="M59.5823 123.569C59.8086 123.217 60.1418 123.041 60.5818 123.041C61.0217 123.041 61.4052 123.21 61.6754 123.537C61.9394 123.87 62.0777 124.304 62.0777 124.838C62.0777 125.41 61.9331 125.863 61.6314 126.196C61.336 126.529 60.9715 126.699 60.544 126.699C60.1669 126.699 59.8652 126.548 59.6389 126.253H59.62V127.962H59.0229V123.122H59.5635V123.569H59.5761H59.5823ZM60.5063 126.209C60.7829 126.209 61.0154 126.095 61.1914 125.869C61.3737 125.643 61.4617 125.297 61.468 124.838C61.468 124.411 61.38 124.078 61.204 123.852C61.028 123.625 60.808 123.506 60.5315 123.506C60.2549 123.506 60.0161 123.632 59.8338 123.889C59.6515 124.147 59.5635 124.48 59.5572 124.889C59.5572 125.322 59.6452 125.649 59.8149 125.876C59.9909 126.102 60.2172 126.209 60.5 126.209H60.5063Z" fill="#285C4D"/>
<path d="M59.5823 123.569C59.8086 123.217 60.1418 123.041 60.5818 123.041C61.0217 123.041 61.4052 123.21 61.6754 123.537C61.9394 123.87 62.0777 124.304 62.0777 124.838C62.0777 125.41 61.9331 125.857 61.6314 126.196C61.336 126.529 60.9715 126.699 60.544 126.699C60.1669 126.699 59.8652 126.548 59.6389 126.253H59.62V127.962H59.0229V123.122H59.5635V123.575H59.5761L59.5823 123.569ZM60.5063 126.209C60.7829 126.209 61.0154 126.095 61.1914 125.869C61.3737 125.643 61.4617 125.297 61.468 124.838C61.468 124.411 61.38 124.078 61.204 123.852C61.028 123.625 60.808 123.506 60.5315 123.506C60.2549 123.506 60.0161 123.632 59.8338 123.889C59.6515 124.147 59.5635 124.48 59.5572 124.889C59.5572 125.322 59.6452 125.649 59.8149 125.876C59.9909 126.095 60.2172 126.209 60.5 126.209H60.5063Z" stroke="#285C4D" stroke-width="0.263994"/>
<path d="M64.4785 123.041C64.95 123.041 65.3459 123.198 65.6602 123.5C65.9682 123.808 66.1254 124.248 66.1316 124.813C66.1316 125.498 65.9619 125.989 65.6288 126.271C65.2894 126.554 64.9122 126.699 64.4848 126.699C64.0448 126.699 63.6551 126.554 63.3283 126.265C63.0014 125.976 62.838 125.511 62.838 124.87C62.838 124.229 62.9952 123.795 63.3094 123.5C63.6237 123.198 64.0134 123.047 64.4785 123.041ZM64.4785 126.209C64.818 126.209 65.0757 126.083 65.2516 125.832C65.4276 125.58 65.5156 125.253 65.5156 124.845C65.5156 124.405 65.4151 124.078 65.2202 123.858C65.0191 123.638 64.774 123.525 64.4785 123.525C64.1831 123.525 63.9254 123.638 63.7368 123.858C63.542 124.084 63.4477 124.417 63.4477 124.864C63.4477 125.31 63.5483 125.643 63.7431 125.863C63.938 126.089 64.1894 126.202 64.4848 126.202L64.4785 126.209Z" fill="#285C4D"/>
<path d="M64.4785 123.041C64.95 123.041 65.3459 123.198 65.6602 123.5C65.9682 123.808 66.1254 124.248 66.1316 124.813C66.1316 125.498 65.9619 125.989 65.6288 126.271C65.2894 126.554 64.9122 126.699 64.4848 126.699C64.0448 126.699 63.6551 126.554 63.3283 126.259C63.0014 125.97 62.838 125.505 62.838 124.87C62.838 124.235 62.9952 123.795 63.3094 123.5C63.6237 123.198 64.0134 123.047 64.4785 123.041ZM64.4785 126.209C64.818 126.209 65.0757 126.083 65.2516 125.832C65.4276 125.58 65.5156 125.253 65.5156 124.845C65.5156 124.405 65.4151 124.078 65.2202 123.852C65.0191 123.632 64.774 123.518 64.4785 123.518C64.1831 123.518 63.9254 123.632 63.7368 123.852C63.542 124.078 63.4414 124.411 63.4414 124.857C63.4414 125.304 63.542 125.637 63.7368 125.857C63.9317 126.083 64.1831 126.196 64.4785 126.196V126.209Z" stroke="#285C4D" stroke-width="0.263994"/>
<path d="M69.9534 126.617H69.3563V124.493C69.3563 124.134 69.2934 123.889 69.1677 123.751C69.0357 123.619 68.8598 123.55 68.6272 123.55C68.4512 123.55 68.2815 123.594 68.1243 123.682C67.9672 123.77 67.854 123.889 67.7912 124.046C67.7221 124.204 67.6906 124.424 67.6906 124.706V126.617H67.0935V123.122H67.6278V123.613H67.6403C67.7661 123.424 67.9232 123.28 68.1055 123.185C68.2878 123.091 68.5015 123.041 68.7466 123.041C68.9289 123.041 69.1175 123.078 69.2935 123.141C69.4757 123.204 69.6203 123.305 69.7209 123.437C69.8214 123.569 69.8906 123.707 69.9157 123.858C69.9471 124.009 69.9597 124.21 69.9534 124.461V126.617Z" fill="#285C4D"/>
<path d="M69.9533 126.617H69.3562V124.493C69.3562 124.134 69.2933 123.889 69.1613 123.751C69.0293 123.619 68.8533 123.55 68.6207 123.55C68.4447 123.55 68.275 123.594 68.1179 123.682C67.9607 123.77 67.8476 123.889 67.7848 124.04C67.7156 124.197 67.6842 124.417 67.6842 124.7V126.611H67.087V123.116H67.6213V123.613H67.6339C67.7596 123.424 67.9168 123.28 68.099 123.185C68.2813 123.091 68.495 123.041 68.7401 123.041C68.9224 123.041 69.111 123.072 69.287 123.141C69.4693 123.204 69.6139 123.305 69.7144 123.437C69.815 123.569 69.8841 123.707 69.9093 123.858C69.9407 124.009 69.9533 124.21 69.947 124.468V126.623L69.9533 126.617Z" stroke="#285C4D" stroke-width="0.263994"/>
<path d="M73.0707 124.097C73.0456 123.908 72.9702 123.763 72.8382 123.669C72.7125 123.575 72.5302 123.525 72.2976 123.525C72.0713 123.525 71.8891 123.562 71.7508 123.638C71.6125 123.713 71.5371 123.826 71.5371 123.971C71.5371 124.116 71.5936 124.21 71.7005 124.266C71.8073 124.323 72.0336 124.398 72.3605 124.486C72.7313 124.581 73.0079 124.662 73.1902 124.738C73.3724 124.807 73.517 124.914 73.6239 125.039C73.7244 125.171 73.781 125.354 73.781 125.586C73.781 125.901 73.6553 126.165 73.3976 126.372C73.1399 126.586 72.8005 126.693 72.3731 126.693C71.9456 126.693 71.581 126.598 71.3296 126.416C71.0782 126.227 70.9274 125.945 70.8645 125.567L71.4553 125.479C71.4868 125.725 71.5811 125.901 71.7256 126.026C71.8765 126.146 72.0839 126.209 72.3605 126.209C72.637 126.209 72.8193 126.158 72.9576 126.051C73.0959 125.945 73.165 125.813 73.165 125.649C73.165 125.542 73.1336 125.461 73.0707 125.398C73.0079 125.335 72.9262 125.285 72.8319 125.253C72.7376 125.222 72.5176 125.165 72.1845 125.083C71.6879 124.964 71.3548 124.826 71.1977 124.656C71.0405 124.486 70.9588 124.285 70.9588 124.053C70.9588 123.763 71.0782 123.518 71.3108 123.33C71.5434 123.141 71.8576 123.047 72.2536 123.047C72.6748 123.047 72.9953 123.129 73.2279 123.292C73.4604 123.456 73.5987 123.701 73.649 124.027L73.0644 124.103L73.0707 124.097Z" fill="#285C4D"/>
<path d="M73.0707 124.097C73.0456 123.909 72.9702 123.764 72.8382 123.67C72.7125 123.576 72.5302 123.525 72.2976 123.525C72.0713 123.525 71.8891 123.563 71.7508 123.638C71.6125 123.714 71.5371 123.827 71.5371 123.972C71.5371 124.116 71.5936 124.21 71.7005 124.267C71.8136 124.323 72.0336 124.399 72.3605 124.487C72.7313 124.581 73.0079 124.663 73.1902 124.738C73.3724 124.807 73.517 124.914 73.6239 125.04C73.7244 125.172 73.781 125.354 73.781 125.587C73.781 125.901 73.6553 126.159 73.3976 126.373C73.1399 126.586 72.8005 126.693 72.3731 126.693C71.9456 126.693 71.581 126.599 71.3296 126.41C71.0782 126.222 70.9274 125.939 70.8645 125.562L71.4553 125.474C71.4868 125.719 71.5811 125.901 71.7256 126.021C71.8765 126.14 72.0839 126.197 72.3605 126.197C72.637 126.197 72.8193 126.146 72.9576 126.039C73.0959 125.933 73.165 125.801 73.165 125.637C73.165 125.53 73.1336 125.449 73.0707 125.386C73.0079 125.323 72.9262 125.273 72.8319 125.241C72.7376 125.21 72.5176 125.153 72.1845 125.071C71.6879 124.952 71.3548 124.814 71.1977 124.644C71.0405 124.474 70.9588 124.273 70.9588 124.034C70.9588 123.745 71.0782 123.5 71.3108 123.312C71.5434 123.123 71.8576 123.029 72.2536 123.029C72.6748 123.029 72.9953 123.11 73.2279 123.274C73.4604 123.437 73.5987 123.682 73.649 124.009L73.0644 124.091L73.0707 124.097Z" stroke="#285C4D" stroke-width="0.263994"/>
<path d="M77.8104 126.617H77.1818C77.1253 126.504 77.0813 126.36 77.0624 126.184C76.6664 126.523 76.2327 126.699 75.7676 126.699C75.3967 126.699 75.1076 126.611 74.8939 126.423C74.6802 126.24 74.5734 125.995 74.5734 125.694C74.5734 125.392 74.6739 125.166 74.8814 124.977C75.0825 124.788 75.4471 124.663 75.9562 124.6L76.5093 124.518C76.7168 124.487 76.8864 124.443 77.0247 124.399C77.0247 124.216 77.0247 124.097 77.0059 124.022C76.9933 123.946 76.9619 123.871 76.9116 123.789C76.8613 123.707 76.7733 123.644 76.6539 123.6C76.5282 123.55 76.371 123.531 76.1762 123.531C75.9185 123.531 75.7173 123.582 75.5727 123.67C75.4282 123.764 75.3213 123.94 75.2648 124.198L74.6802 124.122C74.7431 123.764 74.9065 123.494 75.1768 123.311C75.4407 123.129 75.8053 123.041 76.2705 123.041C76.6916 123.041 76.9996 123.104 77.1944 123.223C77.3893 123.349 77.5087 123.5 77.559 123.676C77.603 123.852 77.6281 124.078 77.6281 124.355V125.153C77.6281 125.637 77.6407 125.964 77.6533 126.127C77.6721 126.291 77.7287 126.454 77.823 126.617H77.8104ZM77.0247 125.077V124.864C76.7104 124.964 76.3333 125.046 75.8808 125.109C75.4282 125.166 75.2082 125.354 75.2082 125.681C75.2082 125.838 75.2711 125.97 75.3905 126.077C75.5162 126.177 75.6859 126.234 75.9122 126.234C76.2076 126.234 76.4653 126.146 76.6853 125.976C76.9116 125.8 77.0184 125.505 77.0247 125.084V125.077ZM77.0562 121.702L76.327 122.632H75.8368L76.2767 121.702H77.0562Z" fill="#285C4D"/>
<path d="M77.8102 126.617H77.1817C77.1251 126.504 77.0811 126.36 77.056 126.184C76.66 126.523 76.2263 126.699 75.7612 126.699C75.3903 126.699 75.0949 126.611 74.8875 126.423C74.6738 126.24 74.5669 125.995 74.5669 125.694C74.5669 125.392 74.6675 125.166 74.8749 124.977C75.076 124.788 75.4343 124.663 75.9497 124.6L76.5029 124.518C76.7103 124.487 76.88 124.443 77.0183 124.392C77.0183 124.216 77.0183 124.091 76.9994 124.015C76.9868 123.94 76.9554 123.864 76.9051 123.783C76.8548 123.701 76.7668 123.638 76.6474 123.594C76.5217 123.55 76.3646 123.525 76.1697 123.525C75.912 123.525 75.7109 123.569 75.5663 123.663C75.4155 123.758 75.3149 123.934 75.2583 124.191L74.6737 124.116C74.7366 123.758 74.9 123.487 75.1703 123.305C75.4343 123.129 75.7989 123.035 76.264 123.035C76.6851 123.035 76.9931 123.098 77.188 123.217C77.3828 123.343 77.5023 123.494 77.5525 123.67C77.5965 123.852 77.6217 124.072 77.6217 124.348V125.147C77.6217 125.631 77.6343 125.957 77.6468 126.121C77.6657 126.284 77.7222 126.448 77.8165 126.611L77.8102 126.617ZM77.0245 125.077V124.864C76.7103 124.964 76.3332 125.046 75.8806 125.109C75.428 125.166 75.208 125.354 75.208 125.681C75.208 125.838 75.2709 125.976 75.3903 126.077C75.5097 126.177 75.6857 126.234 75.912 126.234C76.2074 126.234 76.4651 126.146 76.6851 125.976C76.9114 125.8 77.0182 125.505 77.0245 125.084V125.077ZM77.056 121.702L76.3268 122.632H75.8366L76.2765 121.702H77.056Z" stroke="#285C4D" stroke-width="0.263994"/>
<path d="M81.6509 123.122L80.3246 126.617H79.7715L78.439 123.122H79.0675L79.7904 125.146C79.9287 125.53 80.0104 125.787 80.0355 125.919H80.0481C80.0858 125.781 80.1424 125.593 80.2304 125.354L81.0475 123.122H81.6572H81.6509Z" fill="#285C4D"/>
<path d="M81.6509 123.122L80.3246 126.617H79.7715L78.439 123.122H79.0675L79.7904 125.146C79.9287 125.53 80.0104 125.787 80.0355 125.919H80.0481C80.0858 125.781 80.1424 125.593 80.2304 125.354L81.0475 123.122H81.6572H81.6509Z" stroke="#285C4D" stroke-width="0.263994"/>
<path d="M85.5036 125.014H82.8762C82.9014 125.398 83.0145 125.693 83.2094 125.901C83.4042 126.102 83.6494 126.202 83.9511 126.202C84.1773 126.202 84.3722 126.146 84.5231 126.026C84.6802 125.907 84.7933 125.725 84.8813 125.486L85.491 125.561C85.3905 125.926 85.2082 126.209 84.9442 126.404C84.6802 126.598 84.3471 126.693 83.9511 126.693C83.4231 126.693 83.0145 126.535 82.7191 126.215C82.4237 125.894 82.2728 125.454 82.2728 124.895C82.2728 124.342 82.4174 123.896 82.7002 123.556C82.9894 123.21 83.3917 123.041 83.9196 123.041C84.1773 123.041 84.4225 123.097 84.655 123.21C84.8939 123.324 85.095 123.512 85.2585 123.782C85.4282 124.046 85.5099 124.461 85.5036 125.021V125.014ZM84.8939 124.53C84.8688 124.172 84.7556 123.921 84.5608 123.764C84.3659 123.606 84.1459 123.531 83.9133 123.525C83.6368 123.525 83.4042 123.619 83.222 123.808C83.0397 123.996 82.9391 124.235 82.9077 124.53H84.8939Z" fill="#285C4D"/>
<path d="M85.5036 125.021H82.8762C82.9014 125.404 83.0145 125.7 83.2094 125.907C83.4042 126.108 83.6494 126.209 83.9511 126.209C84.1773 126.209 84.3722 126.152 84.5231 126.033C84.6802 125.913 84.7933 125.731 84.8813 125.492L85.491 125.568C85.3905 125.932 85.2082 126.215 84.9442 126.41C84.6802 126.605 84.3471 126.699 83.9511 126.699C83.4231 126.699 83.0145 126.542 82.7191 126.215C82.4237 125.894 82.2728 125.454 82.2728 124.895C82.2728 124.342 82.4174 123.896 82.7002 123.556C82.9894 123.21 83.3917 123.041 83.9196 123.041C84.1773 123.041 84.4225 123.097 84.655 123.21C84.8939 123.324 85.095 123.512 85.2585 123.782C85.4282 124.053 85.5099 124.461 85.5036 125.021ZM84.8939 124.53C84.8688 124.172 84.7556 123.921 84.5608 123.764C84.3659 123.606 84.1459 123.531 83.9133 123.525C83.6368 123.525 83.4042 123.619 83.222 123.808C83.0397 123.996 82.9391 124.235 82.9077 124.53H84.8939Z" stroke="#285C4D" stroke-width="0.263994"/>
<path d="M87.0826 121.784H86.4855V126.617H87.0826V121.784Z" fill="#285C4D"/>
<path d="M87.0826 121.784H86.4855V126.617H87.0826V121.784Z" stroke="#285C4D" stroke-width="0.263994"/>
</g>
<defs>
<filter id="filter0_d_1295_76257" x="0" y="0" width="107.651" height="143.962" filterUnits="userSpaceOnUse" color-interpolation-filters="sRGB">
<feFlood flood-opacity="0" result="BackgroundImageFix"/>
<feColorMatrix in="SourceAlpha" type="matrix" values="0 0 0 0 0 0 0 0 0 0 0 0 0 0 0 0 0 0 127 0" result="hardAlpha"/>
<feOffset dy="2"/>
<feGaussianBlur stdDeviation="4"/>
<feComposite in2="hardAlpha" operator="out"/>
<feColorMatrix type="matrix" values="0 0 0 0 0 0 0 0 0 0 0 0 0 0 0 0 0 0 0.12 0"/>
<feBlend mode="normal" in2="BackgroundImageFix" result="effect1_dropShadow_1295_76257"/>
<feBlend mode="normal" in="SourceGraphic" in2="effect1_dropShadow_1295_76257" result="shape"/>
</filter>
</defs>
</svg>
