<svg width="527" height="176" viewBox="0 0 527 176" fill="none" xmlns="http://www.w3.org/2000/svg">
<g clip-path="url(#clip0_901_12454)">
<path d="M250.67 50.6628C249.591 54.0354 241.542 87.4124 241.542 87.4124L202.616 75.4353C202.616 75.4353 216.331 44.0088 217.589 40.0791C220.511 30.9439 230.286 25.9075 239.421 28.83C248.557 31.7526 253.593 41.5275 250.67 50.6628Z" fill="#2DA74B"/>
<path d="M242.409 124.309C237.034 141.109 219.057 150.372 202.257 144.997C185.456 139.622 176.194 121.645 181.569 104.844L201.958 63.0583C207.706 49.984 220.421 42.4524 233.704 46.7019C246.987 50.9514 252.521 62.56 250.06 78.4472L242.409 124.309Z" fill="#206A3B"/>
<path d="M243.814 124.758C238.191 142.335 219.384 152.025 201.807 146.402C184.23 140.779 174.54 121.971 180.163 104.395C185.787 86.8181 204.594 77.1278 222.17 82.751C239.747 88.3742 249.437 107.181 243.814 124.758Z" fill="#2DA74B"/>
<path d="M238.027 122.907C233.427 137.287 218.039 145.215 203.659 140.615C189.278 136.014 181.35 120.627 185.951 106.246C190.551 91.8656 205.939 83.9375 220.319 88.5382C234.7 93.1389 242.628 108.526 238.027 122.907Z" fill="#1E1C1B"/>
<path d="M276.329 50.6628C277.408 54.0354 285.458 87.4124 285.458 87.4124L324.383 75.4353C324.383 75.4353 310.668 44.0088 309.411 40.0791C306.488 30.9439 296.713 25.9075 287.578 28.83C278.443 31.7526 273.407 41.5275 276.329 50.6628Z" fill="#2DA74B"/>
<path d="M284.591 124.309C289.965 141.109 307.942 150.372 324.743 144.997C341.543 139.622 350.806 121.645 345.431 104.844L325.041 63.0583C318.694 49.2853 306.579 42.4524 293.296 46.7019C280.013 50.9514 274.08 63.5581 276.94 78.4472L284.591 124.309Z" fill="#206A3B"/>
<path d="M283.185 124.758C288.809 142.335 307.616 152.025 325.192 146.402C342.769 140.779 352.459 121.972 346.837 104.395C341.213 86.8183 322.406 77.128 304.829 82.7513C287.252 88.3745 277.562 107.182 283.185 124.758Z" fill="#2DA74B"/>
<path d="M288.972 122.907C293.573 137.287 308.96 145.215 323.341 140.615C337.722 136.014 345.649 120.627 341.049 106.246C336.448 91.8656 321.061 83.9375 306.68 88.5382C292.3 93.1389 284.372 108.526 288.972 122.907Z" fill="#1E1C1B"/>
<path d="M272.669 104.779C272.669 109.843 268.564 113.948 263.5 113.948C258.436 113.948 254.331 109.843 254.331 104.779L256.114 85.8153C256.114 81.7363 259.421 78.4294 263.5 78.4294C267.579 78.4294 270.886 81.7363 270.886 85.8153L272.669 104.779Z" fill="#206A3B"/>
<path d="M272.394 105.068C272.394 100.155 268.412 96.1733 263.5 96.1733C258.588 96.1733 254.605 100.155 254.605 105.068C254.605 109.98 258.588 113.962 263.5 113.962C268.412 113.962 272.394 109.98 272.394 105.068Z" fill="#2DA74B"/>
<path d="M258.259 97.8827L246.236 101.369L248.968 84.9903L259.71 79.4755L258.259 97.8827Z" fill="#206A3B"/>
<path d="M268.741 97.8827L280.764 101.369L278.169 85.8157L267.93 79.9051L268.741 97.8827Z" fill="#206A3B"/>
<path d="M333.606 114.101C332.558 114.101 331.709 113.252 331.709 112.205C331.709 103.52 324.644 96.4551 315.96 96.4551C314.912 96.4551 314.063 95.6061 314.063 94.5587C314.063 93.5114 314.912 92.6624 315.96 92.6624C326.735 92.6624 335.502 101.429 335.502 112.205C335.502 113.252 334.653 114.101 333.606 114.101Z" fill="white"/>
<path d="M229.635 114.101C228.588 114.101 227.739 113.252 227.739 112.205C227.739 103.52 220.673 96.4551 211.989 96.4551C210.942 96.4551 210.092 95.6061 210.092 94.5587C210.092 93.5114 210.942 92.6624 211.989 92.6624C222.765 92.6624 231.531 101.429 231.531 112.205C231.531 113.252 230.682 114.101 229.635 114.101Z" fill="white"/>
</g>
<defs>
<clipPath id="clip0_901_12454">
<rect width="169.869" height="120" fill="white" transform="translate(178.565 28)"/>
</clipPath>
</defs>
</svg>
