<svg width="646" height="565" viewBox="0 0 646 565" fill="none" xmlns="http://www.w3.org/2000/svg">
<g clip-path="url(#clip0_84_145)">
<path d="M306.651 529.961V147.402H329.703V511.8L338.873 527.032L348.328 529.961L350.59 531.133L338.873 532.305L316.611 534.062L306.651 529.961Z" stroke="#888888" stroke-width="0.585849" stroke-miterlimit="10" stroke-linecap="round"/>
<path d="M191.906 466.68L193.582 472.548L204.128 476.649L207.057 478.992L180.92 479.668L173.56 476.759L173.663 163.806L180.694 162.634V462.47L191.906 466.68Z" stroke="#888888" stroke-width="0.585849" stroke-miterlimit="10" stroke-linecap="round"/>
<path d="M116.25 453.801L115.664 172.008L121.523 171.238V440.443L132.654 444.592V454.693L137.341 455.559V456.559L121.812 456.125L116.25 453.801Z" stroke="#888888" stroke-width="0.585849" stroke-miterlimit="10" stroke-linecap="round"/>
<path d="M178.664 34.673L134.997 30.8181L38.2292 65.3832V184.85L54.7361 183.725H102.173L100.432 371.196L54.3289 372.954L13.1408 362.994V261.643L28.9587 262.415V204.229L-5.60639 205.987L-7.36394 387.6L116.209 434.184L115.664 172.008L121.523 171.238L130.56 170.971L173.663 165.208V163.806L178.937 162.927L178.664 34.673Z" stroke="#888888" stroke-width="0.585849" stroke-miterlimit="10" stroke-linecap="round"/>
<path d="M121.523 440.443L173.663 459.88V165.208L121.523 172.179V440.443Z" stroke="#888888" stroke-width="0.585849" stroke-miterlimit="10" stroke-linecap="round"/>
<path d="M306.651 529.961L316.611 534.062V147.402H306.651V529.961Z" stroke="#888888" stroke-width="0.585849" stroke-miterlimit="10" stroke-linecap="round"/>
<path d="M180.694 462.547L306.651 509.457V147.402L180.687 164.392L180.694 462.547Z" stroke="#888888" stroke-width="0.585849" stroke-miterlimit="10" stroke-linecap="round"/>
<path d="M592.547 420.994L555.053 423.923V414.839L546.423 405.291L549.716 405.2V135.685L178.664 114.893V36.1254L549.716 68.8984V67.3318L560.325 68.2651V406.933L580.83 405.902L592.547 408.306V420.994Z" stroke="#888888" stroke-width="0.585849" stroke-miterlimit="10" stroke-linecap="round"/>
<path d="M549.716 67.3317L580.83 70.07V405.901L560.325 406.933L549.716 405.2V135.685V67.3317Z" stroke="#888888" stroke-width="0.585849" stroke-miterlimit="10" stroke-linecap="round"/>
<path d="M40.2462 184.603V67.5356L81.0992 53.3774V183.725" stroke="#888888" stroke-width="0.585849" stroke-miterlimit="10" stroke-linecap="round"/>
<path d="M96.9172 360.139L82.2709 357.722V268.782H96.9172V360.139Z" stroke="#888888" stroke-width="0.585849" stroke-miterlimit="10" stroke-linecap="round"/>
<path d="M17.8275 266.943L50.2912 268.888L50.3164 367.681L17.8275 360.065V266.943Z" stroke="#888888" stroke-width="0.585849" stroke-miterlimit="10" stroke-linecap="round"/>
<path d="M96.9172 268.782H59.9987V368.662L96.9172 367.49V268.782Z" stroke="#888888" stroke-width="0.585849" stroke-miterlimit="10" stroke-linecap="round"/>
<path d="M33.0596 262.637L50.2912 263.507V189.646L33.0596 190.362V262.637Z" stroke="#888888" stroke-width="0.585849" stroke-miterlimit="10" stroke-linecap="round"/>
<path d="M28.9587 207.477L16.07 208.169V261.661L28.9587 262.415V207.477Z" stroke="#888888" stroke-width="0.585849" stroke-miterlimit="10" stroke-linecap="round"/>
<path d="M13.3259 208.3L-2.97651 209.081L-3.38895 291.471L13.1408 293.399L13.3259 208.3Z" stroke="#888888" stroke-width="0.585849" stroke-miterlimit="10" stroke-linecap="round"/>
<path d="M13.1408 302.476L-3.43289 300.361L-3.84885 383.499L13.1408 389.704V302.476Z" stroke="#888888" stroke-width="0.585849" stroke-miterlimit="10" stroke-linecap="round"/>
<path d="M25.4073 361.852L50.3164 361.212V356.688L17.8275 357.56V360.065L25.4073 361.852Z" stroke="#888888" stroke-width="0.585849" stroke-miterlimit="10" stroke-linecap="round"/>
<path d="M17.8275 293.938L34.3057 295.867V267.895L17.8275 266.943V293.938Z" stroke="#888888" stroke-width="0.585849" stroke-miterlimit="10" stroke-linecap="round"/>
<path d="M17.8275 303.136L34.3057 305.043V357.127L17.8275 357.569V303.136Z" stroke="#888888" stroke-width="0.585849" stroke-miterlimit="10" stroke-linecap="round"/>
<path d="M15.1619 363.454V390.443L34.3057 397.435V368.171L15.1619 363.454Z" stroke="#888888" stroke-width="0.585849" stroke-miterlimit="10" stroke-linecap="round"/>
<path d="M40.2462 369.548V399.903L81.0992 414.74V371.933L54.3289 372.954L40.2462 369.548Z" stroke="#888888" stroke-width="0.585849" stroke-miterlimit="10" stroke-linecap="round"/>
<path d="M86.3719 371.733V416.61L116.193 427.344L115.873 272.606L101.364 271.668L100.432 371.196L86.3719 371.733Z" stroke="#888888" stroke-width="0.585849" stroke-miterlimit="10" stroke-linecap="round"/>
<path d="M101.455 260.433L115.85 261.057L115.664 172.008L121.385 171.257L130.896 170.926L130.881 36.1254L86.3719 51.549L85.786 183.725H102.173L101.455 260.433Z" stroke="#888888" stroke-width="0.585849" stroke-miterlimit="10" stroke-linecap="round"/>
<path d="M189.123 435.96L206.6 440.327V451.24L188.905 452.567L189.123 435.96Z" stroke="#888888" stroke-width="0.585849" stroke-miterlimit="10" stroke-linecap="round"/>
<path d="M188.923 441.457L206.6 440.327V451.24L188.905 452.567L188.923 441.457Z" stroke="#888888" stroke-width="0.585849" stroke-miterlimit="10" stroke-linecap="round"/>
<path d="M173.56 476.759L180.694 479.578V162.634L173.663 163.806L173.56 476.759Z" stroke="#888888" stroke-width="0.585849" stroke-miterlimit="10" stroke-linecap="round"/>
<path d="M121.593 456.034L121.523 171.239L115.664 172.008L116.25 453.801L121.593 456.034Z" stroke="#888888" stroke-width="0.585849" stroke-miterlimit="10" stroke-linecap="round"/>
<path d="M96.9172 263.72L59.9988 263.294L59.666 189.646H96.9172V263.72Z" stroke="#888888" stroke-width="0.585849" stroke-miterlimit="10" stroke-linecap="round"/>
<path d="M329.703 301.212C329.703 301.212 430.267 299.723 444.913 299.137C459.56 298.551 471.276 303.824 477.135 319.642C482.993 335.46 481.236 343.662 480.064 353.035L329.703 359.203V301.212Z" stroke="#888888" stroke-width="0.585849" stroke-miterlimit="10" stroke-linecap="round"/>
<path d="M126.503 304.124V174.589L171.999 168.682V309.379L126.503 304.124Z" stroke="#888888" stroke-width="0.585849" stroke-miterlimit="10" stroke-linecap="round"/>
<path d="M130.881 435.746V308.535L166.047 312.684V432.374L130.881 435.746Z" stroke="#888888" stroke-width="0.585849" stroke-miterlimit="10" stroke-linecap="round"/>
<path d="M130.881 174.049V304.625L171.999 309.379V168.682L130.881 174.049Z" stroke="#888888" stroke-width="0.585849" stroke-miterlimit="10" stroke-linecap="round"/>
<path d="M166.165 308.705L166.639 169.381L130.881 174.021V304.651L166.165 308.705Z" stroke="#888888" stroke-width="0.585849" stroke-miterlimit="10" stroke-linecap="round"/>
<path d="M134.872 305.112V270.102L166.295 271.486L166.165 308.705L134.872 305.112Z" stroke="#888888" stroke-width="0.585849" stroke-miterlimit="10" stroke-linecap="round"/>
<path d="M134.872 309.064V328.429L166.053 327.547L166.047 312.684L134.872 309.064Z" stroke="#888888" stroke-width="0.585849" stroke-miterlimit="10" stroke-linecap="round"/>
<path d="M134.872 309.064V435.23L166.047 432.374V312.684L134.872 309.064Z" stroke="#888888" stroke-width="0.585849" stroke-miterlimit="10" stroke-linecap="round"/>
<path d="M134.872 272.071V173.528L166.639 169.381L166.295 271.485L134.872 272.071Z" stroke="#888888" stroke-width="0.585849" stroke-miterlimit="10" stroke-linecap="round"/>
<path d="M134.872 170.401V30.8182L166.633 33.6138L166.639 166.148L134.872 170.401Z" stroke="#888888" stroke-width="0.585849" stroke-miterlimit="10" stroke-linecap="round"/>
<path d="M551.538 411.034L592.547 408.306V420.994L555.053 423.923V414.839L551.538 411.034Z" stroke="#888888" stroke-width="0.585849" stroke-miterlimit="10" stroke-linecap="round"/>
<path d="M189.123 432.391L248.652 450.286V434.789L199.561 360.711L200.027 384.671C200.027 384.671 201.198 384.671 202.956 384.671C204.713 384.671 205.299 385.257 205.299 387.6C205.299 389.944 205.299 393.459 205.299 393.459L207.643 394.63V409.277L193.582 410.448L189.123 408.776V432.391Z" stroke="#888888" stroke-width="0.585849" stroke-miterlimit="10" stroke-linecap="round"/>
<path d="M199.561 360.711L199.413 353.141L253.339 434.789V449.642L248.652 450.286V434.789L199.561 360.711Z" stroke="#888888" stroke-width="0.585849" stroke-miterlimit="10" stroke-linecap="round"/>
<path d="M304.308 425.095L249.499 428.974L206.471 363.58L304.308 359.612V425.095Z" stroke="#888888" stroke-width="0.585849" stroke-miterlimit="10" stroke-linecap="round"/>
<path d="M180.694 162.634H190.653V163.047L180.694 164.358V162.634Z" stroke="#888888" stroke-width="0.585849" stroke-miterlimit="10" stroke-linecap="round"/>
<path d="M188.895 458.741L189.123 315.506L184.272 314.859L184.829 457.399L188.895 458.741Z" stroke="#888888" stroke-width="0.585849" stroke-miterlimit="10" stroke-linecap="round"/>
<path d="M189.596 166.397L304.308 151.503V324.328L188.895 311.2L189.596 166.397Z" stroke="#888888" stroke-width="0.585849" stroke-miterlimit="10" stroke-linecap="round"/>
<path d="M304.308 151.503L184.272 167.088V310.674L304.308 324.328V151.503Z" stroke="#888888" stroke-width="0.585849" stroke-miterlimit="10" stroke-linecap="round"/>
<path d="M184.272 314.859L304.308 328.859V499.173L184.829 457.403L184.272 314.859Z" stroke="#888888" stroke-width="0.585849" stroke-miterlimit="10" stroke-linecap="round"/>
<path d="M126.503 307.987L171.999 313.395V452.768L126.503 436.918V307.987Z" stroke="#888888" stroke-width="0.585849" stroke-miterlimit="10" stroke-linecap="round"/>
<path d="M171.999 442.539L147.279 444.12L171.999 452.768V442.539Z" stroke="#888888" stroke-width="0.585849" stroke-miterlimit="10" stroke-linecap="round"/>
<path d="M193.582 410.448V395.281L191.917 394.227C191.917 394.227 191.917 389.012 191.917 386.818C191.917 385.106 190.318 384.911 189.011 384.911L189.123 408.776L193.582 410.448Z" stroke="#888888" stroke-width="0.585849" stroke-miterlimit="10" stroke-linecap="round"/>
<path d="M189.011 384.671H200.027L203.795 384.736C203.795 384.736 205.286 384.82 205.293 387.203C205.299 389.586 205.293 393.459 205.293 393.459L207.643 394.63V409.277L193.582 410.448L189.123 408.776L189.011 384.671Z" stroke="#888888" stroke-width="0.585849" stroke-miterlimit="10" stroke-linecap="round"/>
<path d="M196.731 410.186V395.89L204.775 395.686L204.997 409.497L203.438 409.627L203.278 398.007L198.326 398.213V410.053L196.731 410.186Z" stroke="#888888" stroke-width="0.585849" stroke-miterlimit="10" stroke-linecap="round"/>
<path d="M200.027 384.671L198.694 316.654L193.403 316.001L194.23 384.671H200.027Z" stroke="#888888" stroke-width="0.585849" stroke-miterlimit="10" stroke-linecap="round"/>
<path d="M198.642 312.225L197.922 266.87H192.41L193.254 311.596L198.642 312.225Z" stroke="#888888" stroke-width="0.585849" stroke-miterlimit="10" stroke-linecap="round"/>
<path d="M189.108 266.87H204.025V257.046L201.93 256.46L200.805 164.941L189.596 166.397L189.108 266.87Z" stroke="#888888" stroke-width="0.585849" stroke-miterlimit="10" stroke-linecap="round"/>
<path d="M184.272 162.634V130.424L182.51 129.838V126.894C182.51 126.894 187.489 126.705 192.923 126.705C198.356 126.705 203.108 126.894 203.108 126.894V129.595L201.055 130.181L200.752 161.685L190.543 163.062L190.57 162.634H184.272Z" stroke="#888888" stroke-width="0.585849" stroke-miterlimit="10" stroke-linecap="round"/>
<path d="M304.308 301.806L198.522 303.273L198.642 312.225L304.308 324.328V301.806Z" stroke="#888888" stroke-width="0.585849" stroke-miterlimit="10" stroke-linecap="round"/>
<path d="M407.694 299.95C407.694 299.95 405.451 295.539 400.699 295.539C395.954 295.539 329.703 296.413 329.703 296.413V301.212L407.694 299.95Z" stroke="#888888" stroke-width="0.585849" stroke-miterlimit="10" stroke-linecap="round"/>
<path d="M304.308 296.877L198.427 298.519L198.522 303.273L304.308 301.806V296.877Z" stroke="#888888" stroke-width="0.585849" stroke-miterlimit="10" stroke-linecap="round"/>
<path d="M211.097 363.386C211.097 363.386 215.683 334.864 205.092 317.344L198.694 316.654L199.413 353.14L206.471 363.58L211.097 363.386Z" stroke="#888888" stroke-width="0.585849" stroke-miterlimit="10" stroke-linecap="round"/>
<path d="M202.246 312.647C202.246 312.647 201.369 310.978 198.642 309.093V312.21L202.246 312.647Z" stroke="#888888" stroke-width="0.585849" stroke-miterlimit="10" stroke-linecap="round"/>
<path d="M488.266 410.606V352.81L329.703 359.204V423.239L481.757 411.779V411.124L488.266 410.606Z" stroke="#888888" stroke-width="0.585849" stroke-miterlimit="10" stroke-linecap="round"/>
<path d="M206.6 442.672L246.219 453.936L265.684 452.331V451.069L253.339 447.784V449.642L248.652 450.286L189.123 432.391V435.96L206.6 440.327V442.672Z" stroke="#888888" stroke-width="0.585849" stroke-miterlimit="10" stroke-linecap="round"/>
<path d="M481.218 342.017L487.68 342.045L555.053 414.839V425.094L552.458 425.374L552.534 415.212L485.536 342.036L481.218 342.017Z" stroke="#888888" stroke-width="0.585849" stroke-miterlimit="10" stroke-linecap="round"/>
<path d="M552.458 425.374L488.266 410.606V352.81L480.064 353.035C480.064 353.035 480.826 347.631 481.218 342.017L485.536 342.036L552.534 415.212L552.458 425.374Z" stroke="#888888" stroke-width="0.585849" stroke-miterlimit="10" stroke-linecap="round"/>
<path d="M206.6 451.24L247.633 463.843L304.308 459.081V457.495L247.633 462.256L206.6 449.496V451.24Z" stroke="#888888" stroke-width="0.585849" stroke-miterlimit="10" stroke-linecap="round"/>
<path d="M329.756 455.486L597.656 433.17V434.696L329.756 457.079V455.486Z" stroke="#888888" stroke-width="0.585849" stroke-miterlimit="10" stroke-linecap="round"/>
<path d="M597.656 433.17V433.019L557.484 423.752L555.053 423.923V425.094L552.458 425.374L488.266 410.606L481.757 411.124V411.837L329.703 423.239V455.539L597.656 433.17Z" stroke="#888888" stroke-width="0.585849" stroke-miterlimit="10" stroke-linecap="round"/>
<path d="M481.757 411.124L549.657 427.956L566.149 426.608V426.503L555.053 423.923V425.094L552.458 425.374L488.266 410.606L481.757 411.04V411.124Z" stroke="#888888" stroke-width="0.585849" stroke-miterlimit="10" stroke-linecap="round"/>
<path d="M566.149 426.608L549.657 427.956L481.757 411.124V411.837L549.891 428.878L566.149 427.547V426.608Z" stroke="#888888" stroke-width="0.585849" stroke-miterlimit="10" stroke-linecap="round"/>
<path d="M206.6 441.675L246.219 452.765L265.684 451.174V452.331L246.219 453.936L206.6 442.672V441.675Z" stroke="#888888" stroke-width="0.585849" stroke-miterlimit="10" stroke-linecap="round"/>
<path d="M566.149 427.547L329.703 446.896V448.036L566.149 428.315V427.547Z" stroke="#888888" stroke-width="0.585849" stroke-miterlimit="10" stroke-linecap="round"/>
<path d="M206.6 442.672L246.219 453.936L304.308 449.071V450.352L246.219 455.178L206.6 443.799V442.672Z" stroke="#888888" stroke-width="0.585849" stroke-miterlimit="10" stroke-linecap="round"/>
<path d="M503.867 266.148L509.796 265.94L510.874 367.107L504.963 360.718L503.867 266.148Z" stroke="#888888" stroke-width="0.585849" stroke-miterlimit="10" stroke-linecap="round"/>
<path d="M193.861 353.746L190.36 348.605H189.123L189.071 347.635H193.787L193.861 353.746Z" stroke="#888888" stroke-width="0.585849" stroke-miterlimit="10" stroke-linecap="round"/>
<path d="M189.071 332.444H193.606L193.787 347.635H189.071V332.444Z" stroke="#888888" stroke-width="0.585849" stroke-miterlimit="10" stroke-linecap="round"/>
<path d="M198.332 292.587L304.308 290.918V296.877L198.427 298.519L198.332 292.587Z" stroke="#888888" stroke-width="0.585849" stroke-miterlimit="10" stroke-linecap="round"/>
<path d="M192.897 292.578H188.984L188.955 298.551L193.011 298.553L192.897 292.578Z" stroke="#888888" stroke-width="0.585849" stroke-miterlimit="10" stroke-linecap="round"/>
<path d="M329.703 290.504L394.653 289.576L393.593 295.539L329.703 296.413V290.504Z" stroke="#888888" stroke-width="0.585849" stroke-miterlimit="10" stroke-linecap="round"/>
<path d="M197.986 270.826H304.308V290.918L198.332 292.587L197.986 270.826Z" stroke="#888888" stroke-width="0.585849" stroke-miterlimit="10" stroke-linecap="round"/>
<path d="M329.703 270.982L383.557 269.679L394.653 289.577L329.703 290.504V270.982Z" stroke="#888888" stroke-width="0.585849" stroke-miterlimit="10" stroke-linecap="round"/>
<path d="M192.486 270.826H189.089L188.984 292.578H192.897L192.486 270.826Z" stroke="#888888" stroke-width="0.585849" stroke-miterlimit="10" stroke-linecap="round"/>
<path d="M396.083 295.539L397.664 288.505L384.963 266.443L379.146 269.679L384.729 266.129H390.125L402.316 288.505L400.699 295.539H396.083Z" stroke="#888888" stroke-width="0.585849" stroke-miterlimit="10" stroke-linecap="round"/>
<path d="M329.703 258.454C329.703 258.454 371.277 258.289 375.742 258.454C380.206 258.619 381.302 265.585 380.921 268.552L379.146 269.679L329.703 270.982V258.454Z" stroke="#888888" stroke-width="0.585849" stroke-miterlimit="10" stroke-linecap="round"/>
<path d="M201.276 203.117C201.276 203.117 216.573 203.117 223.898 203.117C231.224 203.117 242.6 211.271 244.477 223.138L201.528 223.633L201.276 203.117Z" stroke="#888888" stroke-width="0.585849" stroke-miterlimit="10" stroke-linecap="round"/>
<path d="M304.308 210.506H299.834V222.449H304.308V210.506Z" stroke="#888888" stroke-width="0.585849" stroke-miterlimit="10" stroke-linecap="round"/>
<path d="M304.308 258.38H204.025V266.87H197.922L197.986 270.826H304.308V258.38Z" stroke="#888888" stroke-width="0.585849" stroke-miterlimit="10" stroke-linecap="round"/>
<path d="M351.35 217.552H355.927V225.298H351.35V217.552Z" stroke="#888888" stroke-width="0.585849" stroke-miterlimit="10" stroke-linecap="round"/>
<path d="M497.054 257.736V266.346L515.514 265.761V257.184L512.772 256.522L509.925 146.4L511.595 144.851V142.347C511.595 142.347 501.758 140.855 494.324 143.095V145.965L496.316 147.082L499.362 256.828L497.054 257.736Z" stroke="#888888" stroke-width="0.585849" stroke-miterlimit="10" stroke-linecap="round"/>
<path d="M409.68 299.914V209.77H384.541V230.024L379.146 233.971V260.482C379.146 260.482 381.372 264.097 380.921 268.552L384.729 266.129H390.125L402.316 288.505L400.699 295.539C400.699 295.539 404.952 295.216 407.694 299.95L409.68 299.914Z" stroke="#888888" stroke-width="0.585849" stroke-miterlimit="10" stroke-linecap="round"/>
<path d="M386.457 209.77V230.024L380.991 234.298V265.341C380.991 265.341 380.306 262.302 379.146 260.481V233.971L384.541 230.024V209.77H386.457Z" stroke="#888888" stroke-width="0.585849" stroke-miterlimit="10" stroke-linecap="round"/>
<path d="M392.743 209.77V270.675L390.125 266.129H384.729L380.921 268.552L380.991 234.298L386.457 230.024V209.77H392.743Z" stroke="#888888" stroke-width="0.585849" stroke-miterlimit="10" stroke-linecap="round"/>
<path d="M379.146 237.555L329.703 237.916V258.454H374.717C374.717 258.454 377.839 258.207 379.146 260.481V237.555Z" stroke="#888888" stroke-width="0.585849" stroke-miterlimit="10" stroke-linecap="round"/>
<path d="M304.308 237.916L201.713 238.752L201.93 256.46L204.025 257.046V258.38H304.308V237.916Z" stroke="#888888" stroke-width="0.585849" stroke-miterlimit="10" stroke-linecap="round"/>
<path d="M384.542 209.77L329.703 210.351V237.916L379.146 237.555V233.971L384.542 230.024V209.77Z" stroke="#888888" stroke-width="0.585849" stroke-miterlimit="10" stroke-linecap="round"/>
<path d="M201.528 223.633L304.308 222.449V237.916L201.713 238.752L201.528 223.633Z" stroke="#888888" stroke-width="0.585849" stroke-miterlimit="10" stroke-linecap="round"/>
<path d="M329.703 222.449C329.703 222.449 342.788 222.483 342.787 237.82L329.703 237.916V222.449Z" stroke="#888888" stroke-width="0.585849" stroke-miterlimit="10" stroke-linecap="round"/>
<path d="M59.9987 361.241L95.5322 367.396L95.0108 367.52L59.9987 368.662V361.241Z" stroke="#888888" stroke-width="0.585849" stroke-miterlimit="10" stroke-linecap="round"/>
<path d="M59.9987 268.782H82.2709V357.722L59.9987 358.224V268.782Z" stroke="#888888" stroke-width="0.585849" stroke-miterlimit="10" stroke-linecap="round"/>
<path d="M94.1836 268.782H96.9171V360.139L94.1836 359.688V268.782Z" stroke="#888888" stroke-width="0.585849" stroke-miterlimit="10" stroke-linecap="round"/>
<path d="M40.2527 258L40.2462 190.078L50.2912 189.646V258.396L40.2527 258Z" stroke="#888888" stroke-width="0.585849" stroke-miterlimit="10" stroke-linecap="round"/>
<path d="M40.2463 190.078L38.2825 190.145V262.902L40.2527 263.009L50.2912 263.507V258.396L40.2521 257.989L40.2463 190.078Z" stroke="#888888" stroke-width="0.585849" stroke-miterlimit="10" stroke-linecap="round"/>
<path d="M33.0596 204.085H38.2825V262.902L33.0596 262.624V204.085Z" stroke="#888888" stroke-width="0.585849" stroke-miterlimit="10" stroke-linecap="round"/>
<path d="M34.2454 262.686L34.3057 207.295H33.0596V262.625L34.2454 262.686Z" stroke="#888888" stroke-width="0.585849" stroke-miterlimit="10" stroke-linecap="round"/>
<path d="M92.4618 225.644C92.4618 225.644 93.3288 236.91 84.015 243.648C74.8388 250.287 67.0476 243.851 66.9937 239.212C66.9299 233.747 71.3161 231.862 74.6947 228.185C78.0733 224.508 79.2585 223.409 78.1653 221.521C77.0721 219.633 75.1839 219.136 75.1839 219.136C75.1839 219.136 74.6291 218.913 74.4112 219.311C74.1938 219.71 74.2501 219.976 74.7375 220.217C75.6737 220.68 76.7394 220.806 77.2748 222.319C77.5888 223.206 76.8741 224.512 73.9384 227.557C71.0021 230.601 65.8437 233.182 65.6627 238.728C65.4817 244.273 72.1146 248.406 78.784 247.282C85.4538 246.159 89.6743 240.369 91.2532 237.785C93.3898 234.29 94.0998 229.022 93.9188 223.332C93.9188 223.332 93.9358 222.453 93.0658 222.525C92.1958 222.598 92.4038 223.286 92.4132 223.757C92.4296 224.584 92.5262 227.012 92.4618 225.644Z" stroke="#888888" stroke-width="0.585849" stroke-miterlimit="10" stroke-linecap="round"/>
<path d="M96.9025 206.283H87.4211V225.644H92.4618C92.4618 225.644 92.3844 224.218 92.3915 223.415C92.3979 222.612 92.6873 222.485 93.0658 222.526C93.4437 222.566 93.9047 222.559 93.9235 223.494C93.9428 224.429 93.9235 225.644 93.9235 225.644H96.9025V206.283Z" stroke="#888888" stroke-width="0.585849" stroke-miterlimit="10" stroke-linecap="round"/>
<path d="M96.9148 205.17H85.2066V226.798H92.4788L92.4618 225.644H87.4211V206.283H96.9148V205.17Z" stroke="#888888" stroke-width="0.585849" stroke-miterlimit="10" stroke-linecap="round"/>
<path d="M85.2066 226.798H86.3929V205.17H85.2066V226.798Z" stroke="#888888" stroke-width="0.585849" stroke-miterlimit="10" stroke-linecap="round"/>
<path d="M76.8682 224.058C76.8682 224.058 77.5607 224.138 77.8126 224.499C77.8343 224.529 77.8759 224.53 77.8935 224.497C78.0675 224.174 78.8648 223.238 78.3422 221.876C77.6591 220.097 76.2431 219.405 75.1839 219.136C75.1839 219.136 74.6736 218.873 74.4112 219.311C74.1493 219.749 74.4598 220.109 74.9759 220.327C75.4921 220.545 76.5782 221.056 77.1629 222.039C77.6779 222.906 76.8682 224.058 76.8682 224.058Z" stroke="#888888" stroke-width="0.585849" stroke-miterlimit="10" stroke-linecap="round"/>
<path d="M77.2127 222.98L59.8148 221.79V219.073L78.5772 217.991L78.5174 221.79L78.3422 221.876C78.3422 221.876 77.8214 220.171 76.4171 219.624C75.0123 219.077 74.632 218.896 74.4112 219.311C74.1903 219.727 74.3883 220.048 74.9759 220.327C75.5636 220.606 76.7546 221.105 77.1629 222.039C77.5713 222.973 77.2127 222.98 77.2127 222.98Z" stroke="#888888" stroke-width="0.585849" stroke-miterlimit="10" stroke-linecap="round"/>
<path d="M85.2066 212.854H72.697V218.33L78.5772 217.991L78.5174 221.79C78.5174 221.79 78.9492 223.161 77.8935 224.497C77.8935 224.497 76.4816 226.246 75.512 227.297H89.4523V226.798H85.2066V212.854Z" stroke="#888888" stroke-width="0.585849" stroke-miterlimit="10" stroke-linecap="round"/>
<path d="M72.697 222.684V227.297H74.3163C74.3163 227.297 76.7986 224.763 77.2128 222.98L72.697 222.684Z" stroke="#888888" stroke-width="0.585849" stroke-miterlimit="10" stroke-linecap="round"/>
<path d="M85.2066 212.854H79.3277V227.297H85.2066V212.854Z" stroke="#888888" stroke-width="0.585849" stroke-miterlimit="10" stroke-linecap="round"/>
<path d="M68.524 189.646V218.57L59.8148 219.073L59.666 189.646H68.524Z" stroke="#888888" stroke-width="0.585849" stroke-miterlimit="10" stroke-linecap="round"/>
<path d="M59.8148 221.79L68.524 222.386V232.466C68.524 232.466 66.8081 234.253 66.074 236.367C65.3393 238.482 65.0218 241.148 68.524 244.667V263.294H59.9987L59.8148 221.79Z" stroke="#888888" stroke-width="0.585849" stroke-miterlimit="10" stroke-linecap="round"/>
<path d="M50.2912 268.888L40.2521 268.302L40.2462 356.91L50.3164 356.688L50.2912 268.888Z" stroke="#888888" stroke-width="0.585849" stroke-miterlimit="10" stroke-linecap="round"/>
<path d="M38.2825 268.157V356.946L40.2463 356.91L40.2521 268.302L38.2825 268.157Z" stroke="#888888" stroke-width="0.585849" stroke-miterlimit="10" stroke-linecap="round"/>
<path d="M524.296 134.261C524.296 134.261 526.856 139.739 533.218 152.626C539.581 165.512 543.131 170.13 541.988 179.754C540.846 189.378 532.58 195.919 518.76 200.771C518.76 200.771 517.723 201.149 518.086 202.13C518.449 203.11 519.316 202.651 520.078 202.455C521.255 202.153 525.227 200.7 533.148 195.806C541.344 190.737 543.043 185.987 543.857 179.695C544.701 173.148 542.352 166.111 539.053 160.332C535.749 154.552 526.44 134.381 526.44 134.381L524.296 134.261Z" stroke="#888888" stroke-width="0.585849" stroke-miterlimit="10" stroke-linecap="round"/>
<path d="M522.708 199.275V197.995H514.307V208.012H522.708V201.502C522.708 201.502 521.431 201.936 520.306 202.399C519.187 202.861 518.127 202.789 518.086 202.13C518.051 201.471 517.746 201.144 519.111 200.646C520.476 200.148 522.708 199.275 522.708 199.275Z" stroke="#888888" stroke-width="0.585849" stroke-miterlimit="10" stroke-linecap="round"/>
<path d="M514.307 197.995L511.237 198.177L511.559 208.068L514.307 208.012V197.995Z" stroke="#888888" stroke-width="0.585849" stroke-miterlimit="10" stroke-linecap="round"/>
<path d="M487.657 199.848L488.02 209.09C488.02 209.09 458.599 210.272 444.105 210.745C444.105 210.745 444.105 210.004 444.175 209.022C444.21 208.491 444.234 207.975 446.378 207.168C447.409 206.781 446.694 205.037 445.98 204.906C445.452 204.809 443.384 204.809 441.714 207.103C441.556 207.327 441.258 208.317 441.217 208.723C441.123 209.719 441.217 210.93 441.217 210.93C439.875 210.963 437.256 210.945 436.834 210.934C432.997 210.835 427.637 209.634 427.637 202.519C427.637 195.405 427.637 149.442 427.637 149.442C427.637 149.442 430.736 149.575 432.159 149.283C434.614 148.778 435.932 147.087 435.932 147.087C435.932 147.087 435.932 195.234 435.932 197.529C435.932 199.824 436.02 203.209 440.543 202.907C445.071 202.606 487.657 199.848 487.657 199.848Z" stroke="#888888" stroke-width="0.585849" stroke-miterlimit="10" stroke-linecap="round"/>
<path d="M489.865 199.661L497.991 199.028L498.261 208.608L490.264 208.971L489.865 199.661Z" stroke="#888888" stroke-width="0.585849" stroke-miterlimit="10" stroke-linecap="round"/>
<path d="M184.375 115.285V126.705C184.375 126.705 192.923 126.705 200.495 126.641V116.375L184.375 115.285Z" stroke="#888888" stroke-width="0.585849" stroke-miterlimit="10" stroke-linecap="round"/>
<path d="M509.925 142.148V133.425L495.783 132.663L495.718 142.716C495.718 142.716 500.698 141.371 509.925 142.148Z" stroke="#888888" stroke-width="0.585849" stroke-miterlimit="10" stroke-linecap="round"/>
<path d="M494.611 243.712V241.621H497.23V245.28C497.23 245.28 495.923 245.89 495.923 247.632C495.923 249.374 495.923 252.921 495.923 254.435C495.923 255.949 497.733 255.675 497.733 257.469L497.054 257.736V259.878H494.921C494.921 259.878 494.921 258.648 494.921 257.938C494.921 257.228 494.681 256.659 493.644 255.855C492.601 255.05 492.314 254.246 492.314 252.92C492.314 251.595 492.314 249.134 492.314 248.518C492.314 247.903 489.239 247.43 489.239 245.111C489.239 242.791 485.196 132.07 485.196 132.07L487.299 132.188C487.299 132.188 491.506 241.498 491.588 243.407C491.588 243.407 491.506 244.569 492.871 244.652C494.242 244.734 494.611 244.515 494.611 243.712Z" stroke="#888888" stroke-width="0.585849" stroke-miterlimit="10" stroke-linecap="round"/>
<path d="M497.054 265.341L443.027 264.681C443.027 264.681 443.097 299.217 443.027 299.217C442.962 299.217 454.375 297.817 462.805 302.421C471.23 307.024 476.86 314.306 480 329.148H504.6L503.867 266.148L497.054 266.346V265.341Z" stroke="#888888" stroke-width="0.585849" stroke-miterlimit="10" stroke-linecap="round"/>
<path d="M504.6 329.148H498.513V266.346L503.867 266.148L504.6 329.148Z" stroke="#888888" stroke-width="0.585849" stroke-miterlimit="10" stroke-linecap="round"/>
<path d="M307.417 143.368C307.313 143.371 309.48 143.415 311.674 141.995C313.323 140.927 314.995 138.887 315.68 136.177C317.233 130.022 314.588 126.469 312.811 125.284C312.088 124.802 310.154 124.466 310.154 124.466L430.249 132.549C430.249 132.549 437.543 133.145 437.444 140.457C437.344 147.77 434.62 149.793 428.357 149.478C422.1 149.163 307.417 143.368 307.417 143.368Z" stroke="#888888" stroke-width="0.585849" stroke-miterlimit="10" stroke-linecap="round"/>
<path d="M307.628 123.914C307.628 123.914 309.468 123.959 310.739 125.184C312.673 127.05 314.193 131.751 312.564 136.485C311.269 140.244 308.818 141.745 306.47 142.705C304.624 143.461 302.591 143.295 302.591 143.295L200.977 138.331L201.055 130.181L203.108 129.595V126.894C203.108 126.894 201.506 126.701 200.495 126.641V116.375L307.628 123.914Z" stroke="#888888" stroke-width="0.585849" stroke-miterlimit="10" stroke-linecap="round"/>
<path d="M184.272 137.516V130.424L182.51 129.838V126.894C182.51 126.894 183.853 126.753 184.375 126.705V115.285L178.664 114.893L178.883 137.253L184.272 137.516Z" stroke="#888888" stroke-width="0.585849" stroke-miterlimit="10" stroke-linecap="round"/>
<path d="M305.604 143.017C305.604 143.017 306.457 143.794 309.506 143.037C312.536 142.286 315.151 138.703 315.842 135.484C316.172 133.942 316.774 128.736 313.549 125.811C312.19 124.577 309.864 124.415 309.864 124.415C309.864 124.415 313.862 127.159 313.059 134.406C312.545 139.054 309.256 142.107 305.604 143.017Z" stroke="#888888" stroke-width="0.585849" stroke-miterlimit="10" stroke-linecap="round"/>
<path d="M452.963 130.264V184.879H470.187V131.229L452.963 130.264Z" stroke="#888888" stroke-width="0.585849" stroke-miterlimit="10" stroke-linecap="round"/>
<path d="M457.825 184.879V188.522H465.049V184.879H457.825Z" stroke="#888888" stroke-width="0.585849" stroke-miterlimit="10" stroke-linecap="round"/>
<path d="M462.975 188.522C462.975 188.522 462.975 189.549 462.975 191.458C462.975 193.368 462.155 193.629 461.44 194.584C460.719 195.538 460.807 195.712 460.807 196.927C460.807 198.143 460.866 198.881 461.891 199.365C462.916 199.849 463.584 200.304 463.584 201.409L460.801 201.589C460.801 201.589 460.122 199.984 458.845 198.977C457.79 198.151 457.919 196.569 458.224 195.055C458.523 193.542 460.374 193.735 460.374 191.859C460.374 189.982 460.374 188.522 460.374 188.522H462.975Z" stroke="#888888" stroke-width="0.585849" stroke-miterlimit="10" stroke-linecap="round"/>
<path d="M444.726 205C444.726 205 441.216 205.819 441.216 208.971C441.216 212.123 441.216 217.552 441.216 217.552H444.105C444.105 217.552 444.105 211.752 444.105 209.77C444.105 207.788 445.241 207.581 446.378 207.168C447.514 206.755 446.641 204.079 444.726 205Z" stroke="#888888" stroke-width="0.585849" stroke-miterlimit="10" stroke-linecap="round"/>
<path d="M433.987 299.434C433.987 299.434 434.016 248.077 434.016 244.338C434.016 240.598 433.718 237.916 439.102 237.916C444.491 237.916 463.936 237.916 468.869 237.916C473.807 237.916 474.92 237.916 477.346 237.916C479.765 237.916 479.572 232.869 477.246 232.869C474.92 232.869 442.3 232.869 437.549 232.869C432.798 232.869 428.75 235.391 428.75 243.732C428.75 252.073 428.75 299.558 428.75 299.558L433.987 299.434Z" stroke="#888888" stroke-width="0.585849" stroke-miterlimit="10" stroke-linecap="round"/>
<path d="M449.77 264.682V237.916H446.325V264.682H449.77Z" stroke="#888888" stroke-width="0.585849" stroke-miterlimit="10" stroke-linecap="round"/>
<path d="M466.162 264.964V237.916C466.162 237.916 473.473 237.916 475.875 237.916C478.271 237.916 479.056 237.743 479.056 235.126H488.899C488.899 235.126 489.086 242.259 489.227 244.633C489.373 247.006 490.627 247.33 491.418 247.821C492.203 248.313 492.314 248.239 492.314 249.23C492.314 250.222 492.32 252.193 492.343 253.535C492.367 254.877 493.117 255.405 493.644 255.855V265.295L466.162 264.964Z" stroke="#888888" stroke-width="0.585849" stroke-miterlimit="10" stroke-linecap="round"/>
<path d="M487.463 265.221V235.126H488.899C488.899 235.126 489.162 243.161 489.209 244.258C489.25 245.353 489.268 246.505 490.34 247.163C491.418 247.821 491.471 247.797 491.875 248.102C492.285 248.407 492.314 248.646 492.314 249.23C492.314 249.816 492.303 252.608 492.338 253.284C492.379 253.959 492.314 254.958 493.644 255.855V265.295L487.463 265.221Z" stroke="#888888" stroke-width="0.585849" stroke-miterlimit="10" stroke-linecap="round"/>
<path d="M493.392 244.667V235.126H491.266L491.588 243.407C491.588 243.407 491.559 244.742 493.392 244.667Z" stroke="#888888" stroke-width="0.585849" stroke-miterlimit="10" stroke-linecap="round"/>
<path d="M463.578 224.426C463.578 220.671 462.799 217.552 460.151 217.552C457.497 217.552 440.373 217.552 440.373 217.552C440.373 217.552 438.867 217.771 438.615 219.622H439.33C439.33 219.622 440.156 220.722 440.162 224.426C440.168 227.27 439.271 229.98 439.271 229.98H438.768C438.768 229.98 439.418 231.88 442.417 231.88C445.423 231.88 458.751 231.88 460.151 231.88C462.741 231.88 463.578 228.523 463.578 224.426Z" stroke="#888888" stroke-width="0.585849" stroke-miterlimit="10" stroke-linecap="round"/>
<path d="M439.33 219.622H437.379C437.379 219.622 437.162 220.096 436.998 221.425C436.998 221.425 437.432 222.294 437.432 224.819C437.432 226.758 436.887 228.271 436.887 228.271C436.887 228.271 437.022 229.154 437.485 229.825H439.272C439.272 229.825 439.998 227.871 440.15 224.724C440.303 221.673 439.33 219.622 439.33 219.622Z" stroke="#888888" stroke-width="0.585849" stroke-miterlimit="10" stroke-linecap="round"/>
<path d="M436.887 221.193H429.406C429.406 221.193 430.226 222.829 430.226 224.732C430.226 226.635 429.781 228.271 429.781 228.271H436.887C436.887 228.271 437.432 226.929 437.432 224.819C437.432 222.709 436.887 221.193 436.887 221.193Z" stroke="#888888" stroke-width="0.585849" stroke-miterlimit="10" stroke-linecap="round"/>
<path d="M423.038 220.252H427.338L429.406 221.193C429.406 221.193 430.226 222.782 430.226 224.732C430.226 226.682 429.781 228.271 429.781 228.271L427.338 229.825H422.575C422.575 229.825 423.413 228.202 423.489 224.932C423.559 222.062 423.038 220.252 423.038 220.252Z" stroke="#888888" stroke-width="0.585849" stroke-miterlimit="10" stroke-linecap="round"/>
<path d="M427.642 220.742C427.642 220.742 428.474 222.236 428.504 224.681C428.527 227.301 427.73 229.414 427.73 229.414L429.781 228.271C429.781 228.271 430.226 226.662 430.226 224.732C430.226 222.802 429.406 221.193 429.406 221.193L427.642 220.742Z" stroke="#888888" stroke-width="0.585849" stroke-miterlimit="10" stroke-linecap="round"/>
<path d="M418.116 219.936C418.116 219.936 418.245 218.787 418.802 218.787C419.716 218.787 421.022 218.787 421.772 218.787C421.772 218.787 423.571 220.431 423.571 224.932C423.571 229.432 421.614 231.275 421.614 231.275C421.614 231.275 419.446 231.275 418.802 231.275C418.509 231.275 418.263 230.773 418.116 229.95C418.116 229.95 419.757 228.661 419.757 224.72C419.757 220.779 418.116 219.936 418.116 219.936Z" stroke="#888888" stroke-width="0.585849" stroke-miterlimit="10" stroke-linecap="round"/>
<path d="M418.116 219.936C418.116 219.936 418.187 219.385 418.667 218.927C418.667 218.927 420.847 220.757 420.847 224.744C420.847 228.731 418.773 231.124 418.773 231.124C418.773 231.124 418.257 230.969 418.116 229.95C418.116 229.95 419.757 228.281 419.757 224.72C419.757 221.159 418.116 219.936 418.116 219.936Z" stroke="#888888" stroke-width="0.585849" stroke-miterlimit="10" stroke-linecap="round"/>
<path d="M418.216 219.936H415.838C415.838 219.937 414.443 220.436 414.461 224.54C414.473 228.739 415.861 229.656 415.861 229.656H418.339C418.339 229.656 419.569 228.632 419.728 224.719C419.868 221.193 418.216 219.936 418.216 219.936Z" stroke="#888888" stroke-width="0.585849" stroke-miterlimit="10" stroke-linecap="round"/>
<path d="M416.224 219.936C416.857 219.936 418.333 220.686 418.333 224.528C418.333 228.37 417.091 229.656 416.224 229.656C415.363 229.656 414.461 228.303 414.461 224.54C414.461 220.777 415.322 219.936 416.224 219.936Z" stroke="#888888" stroke-width="0.585849" stroke-miterlimit="10" stroke-linecap="round"/>
<path d="M446.882 129.923V202.525L453.631 202.055V184.879H452.963V130.264L446.882 129.923Z" stroke="#888888" stroke-width="0.585849" stroke-miterlimit="10" stroke-linecap="round"/>
<path d="M446.882 210.652V217.552H453.631V210.353L446.882 210.652Z" stroke="#888888" stroke-width="0.585849" stroke-miterlimit="10" stroke-linecap="round"/>
<path d="M549.306 135.662L526.44 134.381L526.915 135.403L549.306 135.662Z" stroke="#888888" stroke-width="0.585849" stroke-miterlimit="10" stroke-linecap="round"/>
<path d="M509.925 135.192V133.425L524.296 134.261L524.823 135.377L509.925 135.192Z" stroke="#888888" stroke-width="0.585849" stroke-miterlimit="10" stroke-linecap="round"/>
<path d="M495.718 135.017L495.783 132.663L487.299 132.188L487.405 134.914L495.718 135.017Z" stroke="#888888" stroke-width="0.585849" stroke-miterlimit="10" stroke-linecap="round"/>
<path d="M485.302 134.888L485.196 132.07L470.187 131.228V134.701L485.302 134.888Z" stroke="#888888" stroke-width="0.585849" stroke-miterlimit="10" stroke-linecap="round"/>
<path d="M446.882 134.413V129.923L219.995 117.209L307.113 123.877C307.113 123.877 308.676 124.031 309.579 124.402C309.579 124.402 311.163 124.449 312.748 124.556C314.333 124.664 430.249 132.548 430.249 132.548C430.249 132.548 432.804 132.887 434.632 134.261L446.882 134.413Z" stroke="#888888" stroke-width="0.585849" stroke-miterlimit="10" stroke-linecap="round"/>
<path d="M510.569 338.925C510.569 338.925 521.554 342.704 526.516 346.054C531.478 349.403 533.622 352.784 532.38 354.893C531.144 357.001 521.033 356.08 517.312 344.543L520.751 346.243C520.751 346.243 522.327 349.94 524.776 351.545C528.947 354.275 533.224 354.948 525.128 348.922C519.187 344.502 510.569 342.017 510.569 342.017V338.925Z" stroke="#888888" stroke-width="0.585849" stroke-miterlimit="10" stroke-linecap="round"/>
<path d="M519.972 342.627C519.972 342.627 516.604 334.127 510.569 328.814V332.548C510.569 332.548 514.582 336.457 516.662 341.224L519.972 342.627Z" stroke="#888888" stroke-width="0.585849" stroke-miterlimit="10" stroke-linecap="round"/>
<path d="M543.629 402.495V384.557H533.734V391.804L543.629 402.495Z" stroke="#888888" stroke-width="0.585849" stroke-miterlimit="10" stroke-linecap="round"/>
<path d="M449.676 232.869V231.88H446.325V232.869H449.676Z" stroke="#888888" stroke-width="0.585849" stroke-miterlimit="10" stroke-linecap="round"/>
<path d="M406.446 148.366V209.77H409.68V299.914L428.75 299.558C428.75 299.558 428.75 249.198 428.75 243.732C428.75 238.266 429.904 236.297 432.253 234.398C434.602 232.499 437.86 232.869 439.963 232.869C442.072 232.869 446.325 232.869 446.325 232.869V231.88C446.325 231.88 444.755 231.88 443.22 231.88C441.691 231.88 439.992 231.911 438.527 229.825H437.485C437.485 229.825 437.139 229.444 436.887 228.271H429.781L427.338 229.825H422.575C422.575 229.825 422.229 230.586 421.614 231.275H418.802C418.802 231.275 418.087 230.656 418.116 229.656C418.116 229.656 417.009 229.656 416.224 229.656C415.445 229.656 414.461 227.859 414.461 224.796C414.461 221.733 415.228 220.014 415.838 219.936C416.453 219.858 418.116 219.936 418.116 219.936C418.116 219.936 418.251 218.787 418.802 218.787C419.353 218.787 421.772 218.787 421.772 218.787C421.772 218.787 422.376 219.371 422.71 220.252H427.338L429.406 221.193H437.028C437.028 221.193 437.174 219.969 437.379 219.622H438.615C438.615 219.622 438.721 217.785 440.373 217.552H441.216V210.93C441.216 210.93 439.529 210.93 437.52 210.93C435.504 210.93 432.745 210.514 431.158 209.579C429.564 208.644 427.637 207.007 427.637 202.381C427.637 197.755 427.637 149.442 427.637 149.442L406.446 148.366Z" stroke="#888888" stroke-width="0.585849" stroke-miterlimit="10" stroke-linecap="round"/>
<path d="M494.71 145.999C494.71 145.999 500.756 144.197 511.19 144.955L509.925 146.4C509.925 146.4 502.725 146.007 496.316 147.082L494.71 145.999Z" stroke="#888888" stroke-width="0.585849" stroke-miterlimit="10" stroke-linecap="round"/>
<path d="M498.143 257.739L499.362 256.828C499.362 256.828 502.643 256.896 506.134 256.828C509.626 256.76 512.772 256.522 512.772 256.522L514.746 257.21C514.746 257.21 511.507 257.604 506.24 257.717C500.967 257.829 498.143 257.739 498.143 257.739Z" stroke="#888888" stroke-width="0.585849" stroke-miterlimit="10" stroke-linecap="round"/>
<path d="M183.379 129.789C183.379 129.789 190.599 129.25 201.908 129.807L201.055 130.181L184.143 130.38L183.379 129.789Z" stroke="#888888" stroke-width="0.585849" stroke-miterlimit="10" stroke-linecap="round"/>
<path d="M204.025 257.046V257.444C204.025 257.444 192.37 257.681 189.142 257.551L189.159 256.432L201.93 256.46L204.025 257.046Z" stroke="#888888" stroke-width="0.585849" stroke-miterlimit="10" stroke-linecap="round"/>
<path d="M549.716 67.3318L549.487 67.3025L544.789 68.463L549.716 68.8983V67.3318Z" stroke="#888888" stroke-width="0.585849" stroke-miterlimit="10" stroke-linecap="round"/>
<path d="M38.3475 369.09V404.832L-7.36394 387.6L-5.60639 205.987L28.9587 204.229V262.415L13.1408 261.643V362.994L38.3475 369.09Z" stroke="#888888" stroke-width="0.585849" stroke-miterlimit="10" stroke-linecap="round"/>
<path d="M159.639 454.652L137.341 456.559V455.559L135.642 455.245V445.706L159.639 454.652Z" stroke="#888888" stroke-width="0.585849" stroke-miterlimit="10" stroke-linecap="round"/>
<path d="M116.193 437.46L-19.0745 385.966V396.067L116.193 448.955V437.46Z" stroke="#888888" stroke-width="0.585849" stroke-miterlimit="10" stroke-linecap="round"/>
<path d="M-7.34461 385.6L-19.0745 385.837V385.966L116.193 437.46L116.209 434.184L-7.36395 387.6L-7.34461 385.6Z" stroke="#888888" stroke-width="0.585849" stroke-miterlimit="10" stroke-linecap="round"/>
<path d="M126.503 180.25L171.999 175.515V190.018L126.503 193.761V180.25Z" stroke="#888888" stroke-width="0.11717" stroke-miterlimit="10" stroke-linecap="round"/>
<path d="M126.503 207.172L171.999 204.385V190.018L126.503 193.761V207.172Z" stroke="#888888" stroke-width="0.11717" stroke-miterlimit="10" stroke-linecap="round"/>
<path d="M126.503 220.193L171.999 218.15V204.385L126.503 207.172V220.193Z" stroke="#888888" stroke-width="0.11717" stroke-miterlimit="10" stroke-linecap="round"/>
<path d="M126.503 234.415L171.999 233.647V218.15L126.503 220.193V234.415Z" stroke="#888888" stroke-width="0.11717" stroke-miterlimit="10" stroke-linecap="round"/>
<path d="M126.503 246.257L171.999 246.722V233.647L126.503 234.415V246.257Z" stroke="#888888" stroke-width="0.11717" stroke-miterlimit="10" stroke-linecap="round"/>
<path d="M126.503 260.528L171.999 261.599V246.722L126.503 246.257V260.528Z" stroke="#888888" stroke-width="0.11717" stroke-miterlimit="10" stroke-linecap="round"/>
<path d="M126.503 273.964L171.999 276.161V261.599L126.503 260.528V273.964Z" stroke="#888888" stroke-width="0.11717" stroke-miterlimit="10" stroke-linecap="round"/>
<path d="M126.503 288.327L171.999 291.375V276.161L126.503 273.964V288.327Z" stroke="#888888" stroke-width="0.11717" stroke-miterlimit="10" stroke-linecap="round"/>
<path d="M126.503 300.954L171.999 305.09V291.375L126.503 288.327V300.954Z" stroke="#888888" stroke-width="0.11717" stroke-miterlimit="10" stroke-linecap="round"/>
<path d="M126.503 314.354L171.999 319.581V333.913L126.503 327.828V314.354Z" stroke="#888888" stroke-width="0.11717" stroke-miterlimit="10" stroke-linecap="round"/>
<path d="M126.503 340.648L171.999 348.159V333.914L126.503 327.828V340.648Z" stroke="#888888" stroke-width="0.11717" stroke-miterlimit="10" stroke-linecap="round"/>
<path d="M126.503 353.554L171.997 362.05L171.999 348.159L126.503 340.648V353.554Z" stroke="#888888" stroke-width="0.11717" stroke-miterlimit="10" stroke-linecap="round"/>
<path d="M126.503 365.783L171.999 375.661L171.997 362.05L126.503 353.554V365.783Z" stroke="#888888" stroke-width="0.11717" stroke-miterlimit="10" stroke-linecap="round"/>
<path d="M126.503 380.126L171.999 390.823V375.661L126.503 365.783V380.126Z" stroke="#888888" stroke-width="0.11717" stroke-miterlimit="10" stroke-linecap="round"/>
<path d="M126.503 393.352L171.999 404.885V390.823L126.503 380.126V393.352Z" stroke="#888888" stroke-width="0.11717" stroke-miterlimit="10" stroke-linecap="round"/>
<path d="M126.503 393.352L171.999 404.885V418.839L126.503 407.007V393.352Z" stroke="#888888" stroke-width="0.11717" stroke-miterlimit="10" stroke-linecap="round"/>
<path d="M126.503 418.416L171.999 432.093V418.839L126.503 407.007V418.416Z" stroke="#888888" stroke-width="0.11717" stroke-miterlimit="10" stroke-linecap="round"/>
<path d="M126.503 432.716L171.999 447.303V432.093L126.503 418.416V432.716Z" stroke="#888888" stroke-width="0.11717" stroke-miterlimit="10" stroke-linecap="round"/>
<path d="M184.272 174.237L304.308 161.744V179.135L184.272 189.009V174.237Z" stroke="#888888" stroke-width="0.11717" stroke-miterlimit="10" stroke-linecap="round"/>
<path d="M184.272 203.632L304.308 196.279V179.135L184.272 189.009V203.632Z" stroke="#888888" stroke-width="0.11717" stroke-miterlimit="10" stroke-linecap="round"/>
<path d="M184.272 217.599L304.308 212.208V196.279L184.272 203.632V217.599Z" stroke="#888888" stroke-width="0.11717" stroke-miterlimit="10" stroke-linecap="round"/>
<path d="M184.272 233.44L304.308 231.415V212.207L184.272 217.599V233.44Z" stroke="#888888" stroke-width="0.11717" stroke-miterlimit="10" stroke-linecap="round"/>
<path d="M184.272 261.599L304.308 264.603V248.073L184.272 246.847V261.599Z" stroke="#888888" stroke-width="0.11717" stroke-miterlimit="10" stroke-linecap="round"/>
<path d="M184.272 276.754L304.308 282.553V264.603L184.272 261.599V276.754Z" stroke="#888888" stroke-width="0.11717" stroke-miterlimit="10" stroke-linecap="round"/>
<path d="M184.272 292.197L304.308 300.075V282.553L184.272 276.754V292.197Z" stroke="#888888" stroke-width="0.11717" stroke-miterlimit="10" stroke-linecap="round"/>
<path d="M184.272 306.206L304.308 317.118V300.075L184.272 292.197V306.206Z" stroke="#888888" stroke-width="0.11717" stroke-miterlimit="10" stroke-linecap="round"/>
<path d="M184.272 320.992L304.308 334.782V351.612L184.272 335.556V320.992Z" stroke="#888888" stroke-width="0.11717" stroke-miterlimit="10" stroke-linecap="round"/>
<path d="M184.41 350.208L304.308 370.002V351.612L184.272 335.556L184.41 350.208Z" stroke="#888888" stroke-width="0.11717" stroke-miterlimit="10" stroke-linecap="round"/>
<path d="M184.465 364.331L304.308 386.615V370.002L184.41 350.208L184.465 364.331Z" stroke="#888888" stroke-width="0.11717" stroke-miterlimit="10" stroke-linecap="round"/>
<path d="M184.52 378.303L304.308 404.387V386.615L184.465 364.331L184.52 378.303Z" stroke="#888888" stroke-width="0.11717" stroke-miterlimit="10" stroke-linecap="round"/>
<path d="M184.581 393.781L304.308 421.93V404.387L184.52 378.303L184.581 393.781Z" stroke="#888888" stroke-width="0.11717" stroke-miterlimit="10" stroke-linecap="round"/>
<path d="M184.52 408.059L304.308 438.425V421.93L184.581 393.781L184.52 408.059Z" stroke="#888888" stroke-width="0.11717" stroke-miterlimit="10" stroke-linecap="round"/>
<path d="M184.692 422.319L304.308 453.247V438.425L184.52 408.059L184.692 422.319Z" stroke="#888888" stroke-width="0.11717" stroke-miterlimit="10" stroke-linecap="round"/>
<path d="M184.744 435.746L304.308 471.867V453.247L184.692 422.319L184.744 435.746Z" stroke="#888888" stroke-width="0.11717" stroke-miterlimit="10" stroke-linecap="round"/>
<path d="M184.806 451.529L304.308 489.722V471.867L184.744 435.746L184.806 451.529Z" stroke="#888888" stroke-width="0.11717" stroke-miterlimit="10" stroke-linecap="round"/>
<path d="M299.724 152.098L299.834 497.608L294.488 495.74V152.778L299.724 152.098Z" stroke="#888888" stroke-width="0.11717" stroke-miterlimit="10" stroke-linecap="round"/>
<path d="M294.488 152.778L289.143 153.472V493.871L294.488 495.74V152.778Z" stroke="#888888" stroke-width="0.11717" stroke-miterlimit="10" stroke-linecap="round"/>
<path d="M283.797 154.166V492.002L289.143 493.871V153.472L283.797 154.166Z" stroke="#888888" stroke-width="0.11717" stroke-miterlimit="10" stroke-linecap="round"/>
<path d="M278.452 154.86V490.134L283.797 492.002V154.166L278.452 154.86Z" stroke="#888888" stroke-width="0.11717" stroke-miterlimit="10" stroke-linecap="round"/>
<path d="M273.106 155.554V488.265L278.452 490.134V154.86L273.106 155.554Z" stroke="#888888" stroke-width="0.11717" stroke-miterlimit="10" stroke-linecap="round"/>
<path d="M267.761 156.248V486.396L273.106 488.265V155.554L267.761 156.248Z" stroke="#888888" stroke-width="0.11717" stroke-miterlimit="10" stroke-linecap="round"/>
<path d="M262.415 156.943V484.527L267.761 486.396V156.248L262.415 156.943Z" stroke="#888888" stroke-width="0.11717" stroke-miterlimit="10" stroke-linecap="round"/>
<path d="M257.07 157.636V482.658L262.415 484.527V156.943L257.07 157.636Z" stroke="#888888" stroke-width="0.11717" stroke-miterlimit="10" stroke-linecap="round"/>
<path d="M251.724 158.331V480.789L257.07 482.658V157.636L251.724 158.331Z" stroke="#888888" stroke-width="0.11717" stroke-miterlimit="10" stroke-linecap="round"/>
<path d="M246.378 159.025V478.92L251.724 480.789V158.331L246.378 159.025Z" stroke="#888888" stroke-width="0.11717" stroke-miterlimit="10" stroke-linecap="round"/>
<path d="M241.033 159.718V477.052L246.378 478.92V159.025L241.033 159.718Z" stroke="#888888" stroke-width="0.11717" stroke-miterlimit="10" stroke-linecap="round"/>
<path d="M235.687 160.413V475.183L241.032 477.052V159.718L235.687 160.413Z" stroke="#888888" stroke-width="0.11717" stroke-miterlimit="10" stroke-linecap="round"/>
<path d="M230.341 161.107V473.314L235.687 475.183V160.413L230.341 161.107Z" stroke="#888888" stroke-width="0.11717" stroke-miterlimit="10" stroke-linecap="round"/>
<path d="M224.996 161.801V471.445L230.341 473.314V161.107L224.996 161.801Z" stroke="#888888" stroke-width="0.11717" stroke-miterlimit="10" stroke-linecap="round"/>
<path d="M219.65 162.495V469.576L224.996 471.445V161.801L219.65 162.495Z" stroke="#888888" stroke-width="0.11717" stroke-miterlimit="10" stroke-linecap="round"/>
<path d="M214.305 163.189V467.707L219.65 469.576V162.495L214.305 163.189Z" stroke="#888888" stroke-width="0.11717" stroke-miterlimit="10" stroke-linecap="round"/>
<path d="M208.959 163.883V465.839L214.305 467.707V163.189L208.959 163.883Z" stroke="#888888" stroke-width="0.11717" stroke-miterlimit="10" stroke-linecap="round"/>
<path d="M203.614 164.577V463.97L208.959 465.839V163.883L203.614 164.577Z" stroke="#888888" stroke-width="0.11717" stroke-miterlimit="10" stroke-linecap="round"/>
<path d="M198.268 165.271V462.101L203.614 463.97V164.577L198.268 165.271Z" stroke="#888888" stroke-width="0.11717" stroke-miterlimit="10" stroke-linecap="round"/>
<path d="M192.923 165.965V460.233L198.268 462.101V165.271L192.923 165.965Z" stroke="#888888" stroke-width="0.11717" stroke-miterlimit="10" stroke-linecap="round"/>
<path d="M187.577 166.66V458.306L192.923 460.233V165.965L187.577 166.66Z" stroke="#888888" stroke-width="0.11717" stroke-miterlimit="10" stroke-linecap="round"/>
<path d="M169.783 168.97V451.995L164.657 450.199V169.635L169.783 168.97Z" stroke="#888888" stroke-width="0.11717" stroke-miterlimit="10" stroke-linecap="round"/>
<path d="M159.531 170.309L164.657 169.635V450.199L159.531 448.406V170.309Z" stroke="#888888" stroke-width="0.11717" stroke-miterlimit="10" stroke-linecap="round"/>
<path d="M154.405 170.966L159.531 170.309V448.406L154.405 446.613V170.966Z" stroke="#888888" stroke-width="0.11717" stroke-miterlimit="10" stroke-linecap="round"/>
<path d="M149.279 171.632L154.405 170.966V446.613L149.279 444.853V171.632Z" stroke="#888888" stroke-width="0.11717" stroke-miterlimit="10" stroke-linecap="round"/>
<path d="M144.154 172.297L149.279 171.632V444.853L144.154 443.067V172.297Z" stroke="#888888" stroke-width="0.11717" stroke-miterlimit="10" stroke-linecap="round"/>
<path d="M139.027 172.963L144.154 172.297V443.067L139.027 441.281V172.963Z" stroke="#888888" stroke-width="0.11717" stroke-miterlimit="10" stroke-linecap="round"/>
<path d="M133.902 173.655L139.027 172.963V441.281L133.902 439.495V173.655Z" stroke="#888888" stroke-width="0.11717" stroke-miterlimit="10" stroke-linecap="round"/>
<path d="M128.776 174.294L133.902 173.654V439.495L128.776 437.709V174.294Z" stroke="#888888" stroke-width="0.11717" stroke-miterlimit="10" stroke-linecap="round"/>
<path d="M28.9587 236.596H20.9771V248.856H28.9587V236.596Z" stroke="#888888" stroke-width="0.585849" stroke-miterlimit="10" stroke-linecap="round"/>
<path d="M115.774 224.991H111.488V240.185H115.806L115.774 224.991Z" stroke="#888888" stroke-width="0.585849" stroke-miterlimit="10" stroke-linecap="round"/>
<path d="M115.756 285.996L109.711 285.447V299.971L115.932 300.756L115.756 285.996Z" stroke="#888888" stroke-width="0.585849" stroke-miterlimit="10" stroke-linecap="round"/>
<path d="M555.053 414.839L552.534 415.212L552.458 425.374L555.053 425.094V414.839Z" stroke="#888888" stroke-width="0.585849" stroke-miterlimit="10" stroke-linecap="round"/>
<path d="M592.547 418.191L645.707 427.547" stroke="#888888" stroke-width="0.585849" stroke-miterlimit="10" stroke-linecap="round"/>
<path d="M94.1836 263.693V226.798H96.9171V263.72L94.1836 263.693Z" stroke="#888888" stroke-width="0.585849" stroke-miterlimit="10" stroke-linecap="round"/>
<path d="M96.9171 205.17H94.1836V189.646H96.9171V205.17Z" stroke="#888888" stroke-width="0.585849" stroke-miterlimit="10" stroke-linecap="round"/>
<path d="M93.9235 225.644H96.9172V226.798H93.9118L93.9235 225.644Z" stroke="#888888" stroke-width="0.585849" stroke-miterlimit="10" stroke-linecap="round"/>
<path d="M59.9858 258.79L66.8877 259.07V242.727C66.8877 242.727 63.7534 239.208 66.9621 234.469V222.279L59.8148 221.79L59.9858 258.79Z" stroke="#888888" stroke-width="0.585849" stroke-miterlimit="10" stroke-linecap="round"/>
<path d="M68.524 218.57V189.646H66.8936V218.658L68.524 218.57Z" stroke="#888888" stroke-width="0.585849" stroke-miterlimit="10" stroke-linecap="round"/>
<path d="M91.9404 189.646H87.2513V263.609L91.9404 263.72V189.646Z" stroke="#888888" stroke-width="0.11717" stroke-miterlimit="10" stroke-linecap="round"/>
<path d="M87.2512 189.646H82.5615V263.555L87.2512 263.609V189.646Z" stroke="#888888" stroke-width="0.11717" stroke-miterlimit="10" stroke-linecap="round"/>
<path d="M77.8718 189.646H82.5615V263.555L77.8718 263.501V189.646Z" stroke="#888888" stroke-width="0.11717" stroke-miterlimit="10" stroke-linecap="round"/>
<path d="M73.1821 189.646H77.8718V263.5L73.1821 263.446V189.646Z" stroke="#888888" stroke-width="0.11717" stroke-miterlimit="10" stroke-linecap="round"/>
<path d="M68.524 189.646H73.1821V263.446L68.524 263.393V189.646Z" stroke="#888888" stroke-width="0.11717" stroke-miterlimit="10" stroke-linecap="round"/>
<path d="M63.8032 189.646H68.524V263.393L63.8032 263.339V189.646Z" stroke="#888888" stroke-width="0.11717" stroke-miterlimit="10" stroke-linecap="round"/>
<path d="M44.7069 189.878L48.2103 189.736V263.393L44.7069 263.225V189.878Z" stroke="#888888" stroke-width="0.11717" stroke-miterlimit="10" stroke-linecap="round"/>
<path d="M41.2029 190.024L44.7069 189.878V263.225L41.2029 263.049V190.024Z" stroke="#888888" stroke-width="0.11717" stroke-miterlimit="10" stroke-linecap="round"/>
<path d="M37.6996 190.169L41.2029 190.024V263.049L37.6996 262.871V190.169Z" stroke="#888888" stroke-width="0.11717" stroke-miterlimit="10" stroke-linecap="round"/>
<path d="M34.1956 190.315L37.6996 190.169V262.871L34.2454 262.685L34.1956 190.315Z" stroke="#888888" stroke-width="0.11717" stroke-miterlimit="10" stroke-linecap="round"/>
<path d="M87.2513 268.782H91.9404V367.681L87.2513 367.797V268.782Z" stroke="#888888" stroke-width="0.11717" stroke-miterlimit="10" stroke-linecap="round"/>
<path d="M82.5615 268.782H87.2512V367.797L82.5615 367.926V268.782Z" stroke="#888888" stroke-width="0.11717" stroke-miterlimit="10" stroke-linecap="round"/>
<path d="M77.8718 268.782H82.5615V367.926L77.8718 368.079V268.782Z" stroke="#888888" stroke-width="0.11717" stroke-miterlimit="10" stroke-linecap="round"/>
<path d="M73.1821 268.782H77.8718V368.079L73.1821 368.243V268.782Z" stroke="#888888" stroke-width="0.11717" stroke-miterlimit="10" stroke-linecap="round"/>
<path d="M68.493 268.782H73.1821V368.243L68.493 368.385V268.782Z" stroke="#888888" stroke-width="0.11717" stroke-miterlimit="10" stroke-linecap="round"/>
<path d="M63.8032 268.782H68.493V368.385L63.8032 368.541V268.782Z" stroke="#888888" stroke-width="0.11717" stroke-miterlimit="10" stroke-linecap="round"/>
<path d="M44.7069 268.562L48.2103 268.782V367.188L44.7069 366.367V268.562Z" stroke="#888888" stroke-width="0.11717" stroke-miterlimit="10" stroke-linecap="round"/>
<path d="M41.2029 268.344L44.7069 268.562V366.367L41.2029 365.545V268.344Z" stroke="#888888" stroke-width="0.11717" stroke-miterlimit="10" stroke-linecap="round"/>
<path d="M37.6996 268.157L41.2029 268.344V365.545L37.6996 364.724V268.157Z" stroke="#888888" stroke-width="0.11717" stroke-miterlimit="10" stroke-linecap="round"/>
<path d="M34.1956 267.923L37.6996 268.157V364.724L34.1956 363.903V267.923Z" stroke="#888888" stroke-width="0.11717" stroke-miterlimit="10" stroke-linecap="round"/>
<path d="M30.6922 267.686L34.1956 267.924V363.903L30.6922 363.081V267.686Z" stroke="#888888" stroke-width="0.11717" stroke-miterlimit="10" stroke-linecap="round"/>
<path d="M27.1888 267.484L30.6922 267.686V363.081L27.1888 362.26V267.484Z" stroke="#888888" stroke-width="0.11717" stroke-miterlimit="10" stroke-linecap="round"/>
<path d="M23.6849 267.282L27.1888 267.484V362.26L23.6849 361.446V267.282Z" stroke="#888888" stroke-width="0.11717" stroke-miterlimit="10" stroke-linecap="round"/>
<path d="M20.1815 267.079L23.6849 267.282V361.446L20.1815 360.62V267.079Z" stroke="#888888" stroke-width="0.11717" stroke-miterlimit="10" stroke-linecap="round"/>
<path d="M28.9587 185.482V262.415L13.1407 261.643V362.995L54.736 372.954V183.725L28.9587 185.482Z" stroke="#888888" stroke-width="0.585849" stroke-miterlimit="10" stroke-linecap="round"/>
<path d="M34.3057 363.928L50.3152 363.454V367.681L34.3057 363.928Z" stroke="#888888" stroke-width="0.585849" stroke-miterlimit="10" stroke-linecap="round"/>
<path d="M59.9987 363.766L86.7931 367.806L59.9987 368.662V363.766Z" stroke="#888888" stroke-width="0.585849" stroke-miterlimit="10" stroke-linecap="round"/>
<path d="M96.9172 192.88L59.9232 192.949V197.455L96.9172 197.36V192.88Z" stroke="#888888" stroke-width="0.11717" stroke-miterlimit="10" stroke-linecap="round"/>
<path d="M59.9232 197.455L96.9172 197.36V201.84H59.9232V197.455Z" stroke="#888888" stroke-width="0.11717" stroke-miterlimit="10" stroke-linecap="round"/>
<path d="M59.9232 206.415V201.84H96.9172L96.9025 206.283L59.9232 206.415Z" stroke="#888888" stroke-width="0.11717" stroke-miterlimit="10" stroke-linecap="round"/>
<path d="M59.9232 210.82V206.415L96.9025 206.283L96.9172 211.004L59.9232 210.82Z" stroke="#888888" stroke-width="0.11717" stroke-miterlimit="10" stroke-linecap="round"/>
<path d="M59.9232 215.301V210.82L96.9172 211.004V215.484L59.9232 215.301Z" stroke="#888888" stroke-width="0.11717" stroke-miterlimit="10" stroke-linecap="round"/>
<path d="M96.9025 219.965L59.9232 219.781V215.301L96.9172 215.484L96.9025 219.965Z" stroke="#888888" stroke-width="0.11717" stroke-miterlimit="10" stroke-linecap="round"/>
<path d="M59.9232 224.262V219.781L96.9025 219.965L96.9172 224.445L59.9232 224.262Z" stroke="#888888" stroke-width="0.11717" stroke-miterlimit="10" stroke-linecap="round"/>
<path d="M59.9232 228.667L96.9172 229.129V224.445L59.9232 224.262V228.667Z" stroke="#888888" stroke-width="0.11717" stroke-miterlimit="10" stroke-linecap="round"/>
<path d="M59.9232 233.148L96.9025 233.609L96.9172 229.129L59.9232 228.667V233.148Z" stroke="#888888" stroke-width="0.11717" stroke-miterlimit="10" stroke-linecap="round"/>
<path d="M59.9232 237.628L96.9172 238.089L96.9025 233.609L59.9232 233.148V237.628Z" stroke="#888888" stroke-width="0.11717" stroke-miterlimit="10" stroke-linecap="round"/>
<path d="M59.9232 242.109L96.9172 242.57V238.089L59.9232 237.628V242.109Z" stroke="#888888" stroke-width="0.11717" stroke-miterlimit="10" stroke-linecap="round"/>
<path d="M59.9232 246.59L96.9172 247.05V242.57L59.9232 242.109V246.59Z" stroke="#888888" stroke-width="0.11717" stroke-miterlimit="10" stroke-linecap="round"/>
<path d="M59.9231 251.07C59.8968 250.939 59.9231 246.59 59.9231 246.59L96.9171 247.05L96.9148 251.53L59.9231 251.07Z" stroke="#888888" stroke-width="0.11717" stroke-miterlimit="10" stroke-linecap="round"/>
<path d="M59.9706 255.551L96.9172 256.077L96.9148 251.53L59.9232 251.07L59.9706 255.551Z" stroke="#888888" stroke-width="0.11717" stroke-miterlimit="10" stroke-linecap="round"/>
<path d="M59.9987 260.032L59.9706 255.551L96.9172 256.077V260.491L59.9987 260.032Z" stroke="#888888" stroke-width="0.11717" stroke-miterlimit="10" stroke-linecap="round"/>
<path d="M59.9987 272.174L96.9172 272.105V277.591L59.9987 277.685V272.174Z" stroke="#888888" stroke-width="0.11717" stroke-miterlimit="10" stroke-linecap="round"/>
<path d="M59.9987 283.171L96.9172 283.076V277.591L59.9987 277.685V283.171Z" stroke="#888888" stroke-width="0.11717" stroke-miterlimit="10" stroke-linecap="round"/>
<path d="M59.9987 288.632C60.0069 288.523 59.9987 283.171 59.9987 283.171L96.9172 283.076V288.563L59.9987 288.632Z" stroke="#888888" stroke-width="0.11717" stroke-miterlimit="10" stroke-linecap="round"/>
<path d="M59.9987 294.118V288.632L96.9172 288.563V294.049L59.9987 294.118Z" stroke="#888888" stroke-width="0.11717" stroke-miterlimit="10" stroke-linecap="round"/>
<path d="M59.9987 299.628V294.118L96.9172 294.049V299.535L59.9987 299.628Z" stroke="#888888" stroke-width="0.11717" stroke-miterlimit="10" stroke-linecap="round"/>
<path d="M59.9987 305.09V299.628L96.9172 299.535V305.021L59.9987 305.09Z" stroke="#888888" stroke-width="0.11717" stroke-miterlimit="10" stroke-linecap="round"/>
<path d="M59.9987 310.576V305.09L96.9172 305.021V310.507L59.9987 310.576Z" stroke="#888888" stroke-width="0.11717" stroke-miterlimit="10" stroke-linecap="round"/>
<path d="M59.9987 316.062V310.576L96.9172 310.507V315.992L59.9987 316.062Z" stroke="#888888" stroke-width="0.11717" stroke-miterlimit="10" stroke-linecap="round"/>
<path d="M59.9987 321.547V316.061L96.9172 315.992V321.478L59.9987 321.547Z" stroke="#888888" stroke-width="0.11717" stroke-miterlimit="10" stroke-linecap="round"/>
<path d="M59.9987 327.033V321.547L96.9172 321.478V326.708L59.9987 327.033Z" stroke="#888888" stroke-width="0.11717" stroke-miterlimit="10" stroke-linecap="round"/>
<path d="M59.9987 332.674V327.033L96.9172 326.708V332.089L59.9987 332.674Z" stroke="#888888" stroke-width="0.11717" stroke-miterlimit="10" stroke-linecap="round"/>
<path d="M59.9987 338.316V332.674L96.9172 332.089V337.144L59.9987 338.316Z" stroke="#888888" stroke-width="0.11717" stroke-miterlimit="10" stroke-linecap="round"/>
<path d="M59.9987 343.802V338.316L96.9172 337.145V342.63L59.9987 343.802Z" stroke="#888888" stroke-width="0.11717" stroke-miterlimit="10" stroke-linecap="round"/>
<path d="M59.9987 349.287V343.802L96.9172 342.63V348.116L59.9987 349.287Z" stroke="#888888" stroke-width="0.11717" stroke-miterlimit="10" stroke-linecap="round"/>
<path d="M59.9987 354.773V349.287L96.9172 348.116V353.554L59.9987 354.773Z" stroke="#888888" stroke-width="0.11717" stroke-miterlimit="10" stroke-linecap="round"/>
<path d="M59.9987 360.259V354.773L96.9172 353.554V359.089L59.9987 360.259Z" stroke="#888888" stroke-width="0.11717" stroke-miterlimit="10" stroke-linecap="round"/>
<path d="M59.9987 365.783V360.259L96.9172 359.089V364.575L59.9987 365.783Z" stroke="#888888" stroke-width="0.11717" stroke-miterlimit="10" stroke-linecap="round"/>
<path d="M50.2918 271.882L17.8275 269.817V274.855L50.2912 277.344L50.2918 271.882Z" stroke="#888888" stroke-width="0.11717" stroke-miterlimit="10" stroke-linecap="round"/>
<path d="M17.8275 274.855L50.2912 277.344L50.2947 282.71L17.8275 279.741V274.855Z" stroke="#888888" stroke-width="0.11717" stroke-miterlimit="10" stroke-linecap="round"/>
<path d="M50.2965 288.09L17.8275 284.631V279.741L50.2947 282.71L50.2965 288.09Z" stroke="#888888" stroke-width="0.11717" stroke-miterlimit="10" stroke-linecap="round"/>
<path d="M17.8275 289.55V284.631L50.2965 288.09L50.2982 293.568L17.8275 289.55Z" stroke="#888888" stroke-width="0.11717" stroke-miterlimit="10" stroke-linecap="round"/>
<path d="M17.8275 294.457V289.55L50.2982 293.569L50.2994 299.007L17.8275 294.457Z" stroke="#888888" stroke-width="0.11717" stroke-miterlimit="10" stroke-linecap="round"/>
<path d="M17.8275 299.307V294.457L50.2994 299.007L50.3012 304.253L17.8275 299.307Z" stroke="#888888" stroke-width="0.11717" stroke-miterlimit="10" stroke-linecap="round"/>
<path d="M17.8275 304.892V299.307L50.3012 304.253L50.2918 309.891L17.8275 304.892Z" stroke="#888888" stroke-width="0.11717" stroke-miterlimit="10" stroke-linecap="round"/>
<path d="M17.8275 309.817V304.892L50.2918 309.891V315.074L17.8275 309.817Z" stroke="#888888" stroke-width="0.11717" stroke-miterlimit="10" stroke-linecap="round"/>
<path d="M17.8275 314.959V309.817L50.2918 315.074V320.754L17.8275 314.959Z" stroke="#888888" stroke-width="0.11717" stroke-miterlimit="10" stroke-linecap="round"/>
<path d="M17.8275 319.902V314.959L50.2918 320.754L50.3076 326.177L17.8275 319.902Z" stroke="#888888" stroke-width="0.11717" stroke-miterlimit="10" stroke-linecap="round"/>
<path d="M17.8275 324.741V319.902L50.3076 326.177L50.3088 331.207L17.8275 324.741Z" stroke="#888888" stroke-width="0.11717" stroke-miterlimit="10" stroke-linecap="round"/>
<path d="M17.8275 330.353V324.741L50.3088 331.207L50.3105 337.089L17.8275 330.353Z" stroke="#888888" stroke-width="0.11717" stroke-miterlimit="10" stroke-linecap="round"/>
<path d="M17.8275 335.567V330.353L50.3105 337.089L50.2918 342.692L17.8275 335.567Z" stroke="#888888" stroke-width="0.11717" stroke-miterlimit="10" stroke-linecap="round"/>
<path d="M17.8276 341.023C17.7953 340.759 17.8276 335.567 17.8276 335.567L50.2918 342.692V348.485L17.8276 341.023Z" stroke="#888888" stroke-width="0.11717" stroke-miterlimit="10" stroke-linecap="round"/>
<path d="M17.8135 346.195L17.8276 341.023L50.2918 348.485L50.3164 353.746L17.8135 346.195Z" stroke="#888888" stroke-width="0.11717" stroke-miterlimit="10" stroke-linecap="round"/>
<path d="M17.8135 351.309V346.195L50.3164 353.746L50.2918 359.089L17.8135 351.309Z" stroke="#888888" stroke-width="0.11717" stroke-miterlimit="10" stroke-linecap="round"/>
<path d="M17.8276 356.688L17.8135 351.309L50.2918 359.089L50.3164 364.704L17.8276 356.688Z" stroke="#888888" stroke-width="0.11717" stroke-miterlimit="10" stroke-linecap="round"/>
<path d="M50.2912 192.88L33.0596 193.443V197.722L50.2912 197.36V192.88Z" stroke="#888888" stroke-width="0.11717" stroke-miterlimit="10" stroke-linecap="round"/>
<path d="M50.2912 197.36L33.0596 197.722V202.091L50.2912 201.84V197.36Z" stroke="#888888" stroke-width="0.11717" stroke-miterlimit="10" stroke-linecap="round"/>
<path d="M33.0596 206.283H50.2912V201.84L33.0596 202.091V206.283Z" stroke="#888888" stroke-width="0.11717" stroke-miterlimit="10" stroke-linecap="round"/>
<path d="M33.0596 210.82H50.2912V206.283H33.0596V210.82Z" stroke="#888888" stroke-width="0.11717" stroke-miterlimit="10" stroke-linecap="round"/>
<path d="M33.0596 215.301H50.2912V210.82H33.0596V215.301Z" stroke="#888888" stroke-width="0.11717" stroke-miterlimit="10" stroke-linecap="round"/>
<path d="M33.0596 219.781H50.2912V215.301H33.0596V219.781Z" stroke="#888888" stroke-width="0.11717" stroke-miterlimit="10" stroke-linecap="round"/>
<path d="M33.0596 224.483L50.2912 224.262V219.781H33.0596V224.483Z" stroke="#888888" stroke-width="0.11717" stroke-miterlimit="10" stroke-linecap="round"/>
<path d="M33.0596 228.854L50.2912 228.667V224.262L33.0596 224.483V228.854Z" stroke="#888888" stroke-width="0.11717" stroke-miterlimit="10" stroke-linecap="round"/>
<path d="M33.0596 233.148H50.2912V228.667L33.0596 228.854V233.148Z" stroke="#888888" stroke-width="0.11717" stroke-miterlimit="10" stroke-linecap="round"/>
<path d="M33.0596 237.424L50.2912 237.628V233.148H33.0596V237.424Z" stroke="#888888" stroke-width="0.11717" stroke-miterlimit="10" stroke-linecap="round"/>
<path d="M33.0596 241.835C33.0596 241.835 50.3633 242.254 50.2912 242.109C50.2191 241.965 50.2912 237.628 50.2912 237.628L33.0596 237.424V241.835Z" stroke="#888888" stroke-width="0.11717" stroke-miterlimit="10" stroke-linecap="round"/>
<path d="M33.0596 246.176L50.2912 246.59V242.109L33.0596 241.835V246.176Z" stroke="#888888" stroke-width="0.11717" stroke-miterlimit="10" stroke-linecap="round"/>
<path d="M33.0596 250.578L50.2912 251.07V246.59L33.0596 246.176V250.578Z" stroke="#888888" stroke-width="0.11717" stroke-miterlimit="10" stroke-linecap="round"/>
<path d="M33.0596 254.94L50.2912 255.551V251.07L33.0596 250.578V254.94Z" stroke="#888888" stroke-width="0.11717" stroke-miterlimit="10" stroke-linecap="round"/>
<path d="M33.0596 259.463L50.2912 260.258V255.551L33.0596 254.94V259.463Z" stroke="#888888" stroke-width="0.11717" stroke-miterlimit="10" stroke-linecap="round"/>
</g>
<defs>
<clipPath id="clip0_84_145">
<rect width="859.124" height="504" fill="white" transform="translate(-213.124 30.5)"/>
</clipPath>
</defs>
</svg>
