<svg width="574" height="420" viewBox="0 0 574 420" fill="none" xmlns="http://www.w3.org/2000/svg">
<path d="M15.3961 164.781C-6.99742 220.594 -5.28592 264.669 31.3851 321.112C62.0208 368.268 159.72 447.15 332.176 393.608C446.774 358.036 513.504 428.045 562.651 344.208C604.249 273.245 508.171 232.547 537.654 155.755C560.12 97.2399 515.45 23.3034 404.473 42.2109C318.376 56.8757 285.767 -76.2876 144.209 67.2888C87.1077 125.2 43.879 93.7989 15.3961 164.79V164.781Z" fill="url(#paint0_linear_1193_69574)"/>
<mask id="mask0_1193_69574" style="mask-type:luminance" maskUnits="userSpaceOnUse" x="0" y="0" width="574" height="412">
<path d="M15.3961 164.781C-6.99742 220.594 -5.28592 264.669 31.3851 321.112C62.0208 368.268 159.72 447.15 332.176 393.608C446.774 358.036 513.504 428.045 562.651 344.208C604.249 273.245 508.171 232.547 537.654 155.755C560.12 97.2399 515.45 23.3034 404.473 42.2109C318.376 56.8757 285.767 -76.2876 144.209 67.2888C87.1077 125.2 43.879 93.7989 15.3961 164.79V164.781Z" fill="white"/>
</mask>
<g mask="url(#mask0_1193_69574)">
<g style="mix-blend-mode:multiply" opacity="0.35">
<g style="mix-blend-mode:multiply">
<path d="M15.3961 164.781C-6.99742 220.594 -5.28592 264.669 31.3851 321.112C62.0208 368.268 159.72 447.15 332.176 393.608C446.774 358.036 513.504 428.045 562.651 344.208C604.249 273.245 508.171 232.547 537.654 155.755C560.12 97.2399 515.45 23.3034 404.473 42.2109C318.376 56.8757 285.767 -76.2876 144.209 67.2888C87.1077 125.2 43.879 93.7989 15.3961 164.79V164.781Z" fill="#006C3E"/>
</g>
<path d="M15.7204 165.42C-6.67314 221.233 -4.96165 265.309 31.7094 321.752C62.3451 368.908 160.044 447.79 332.5 394.247C447.098 358.675 513.828 428.684 562.975 344.848C604.573 273.884 508.496 233.187 537.978 156.395C560.444 97.8794 515.774 23.9519 404.797 42.8504C318.7 57.5152 286.091 -75.648 144.533 67.9283C87.432 125.84 44.2033 94.4384 15.7204 165.429V165.42Z" fill="#006C3E"/>
<path d="M16.0357 166.06C-6.35783 221.873 -4.64634 265.948 32.0247 322.391C62.6604 369.547 160.36 448.429 332.815 394.887C447.413 359.315 514.144 429.324 563.29 345.487C604.889 274.524 508.811 233.826 538.294 157.034C560.759 98.5189 516.089 24.5914 405.112 43.4899C319.015 58.1547 286.407 -75.0086 144.848 68.5678C87.7473 126.479 44.5186 95.0779 16.0357 166.069V166.06Z" fill="#35562C"/>
<path d="M16.36 166.708C-6.03356 222.521 -4.32206 266.597 32.349 323.04C62.9847 370.196 160.684 449.078 333.14 395.535C447.738 359.963 514.468 429.972 563.615 346.136C605.213 275.172 509.135 234.475 538.618 157.683C561.083 99.1675 516.414 25.24 405.437 44.1385C319.339 58.8033 286.731 -74.36 145.172 69.2164C88.0716 127.128 44.8429 95.7265 16.36 166.717V166.708Z" fill="#405F37"/>
<path d="M16.6752 167.348C-5.71831 223.161 -4.00681 267.236 32.6642 323.679C63.2999 370.836 160.999 449.717 333.455 396.175C448.053 360.603 514.783 430.612 563.93 346.776C605.528 275.812 509.45 235.114 538.933 158.322C561.399 99.807 516.729 25.8795 405.752 44.778C319.655 59.4428 287.046 -73.7204 145.488 69.8559C88.3868 127.767 45.1581 96.366 16.6752 167.357V167.348Z" fill="#4A6842"/>
<path d="M16.9995 167.988C-5.39409 223.8 -3.68259 267.876 32.9884 324.319C63.6242 371.475 161.323 450.357 333.779 396.814C448.377 361.242 515.107 431.251 564.254 347.415C605.853 276.451 509.775 235.754 539.257 158.962C561.723 100.447 517.053 26.5192 406.076 45.4177C319.979 60.0825 287.37 -73.0808 145.812 70.4956C88.7111 128.407 45.4823 97.0057 16.9995 167.997V167.988Z" fill="#55714D"/>
<path d="M17.3148 168.627C-5.07872 224.44 -3.36722 268.515 33.3038 324.959C63.9395 372.115 161.639 450.997 334.094 397.454C448.692 361.882 515.423 431.891 564.57 348.055C606.168 277.091 510.09 236.393 539.573 159.601C562.038 101.086 517.368 27.1497 406.391 46.0572C320.294 60.722 287.686 -72.4412 146.127 71.1351C89.0264 129.047 45.7977 97.6453 17.3148 168.636V168.627Z" fill="#607959"/>
<path d="M17.639 169.267C-4.7545 225.079 -3.04301 269.155 33.628 325.598C64.2637 372.754 161.963 451.636 334.419 398.093C449.017 362.521 515.747 432.531 564.894 348.694C606.492 277.73 510.414 237.033 539.897 160.241C562.363 101.726 517.693 27.7982 406.716 46.6967C320.619 61.3615 288.01 -71.8017 146.451 71.7746C89.3506 129.686 46.1219 98.2847 17.639 169.276V169.267Z" fill="#6A8264"/>
<path d="M17.9634 169.906C-4.43016 225.719 -2.71867 269.794 33.9523 326.238C64.5881 373.394 162.287 452.276 334.743 398.733C449.341 363.161 516.071 433.17 565.218 349.334C606.816 278.37 510.739 237.672 540.221 160.88C562.687 102.365 518.017 28.4378 407.04 47.3363C320.943 62.0011 288.334 -71.1621 146.776 72.4142C89.675 130.326 46.4463 98.9243 17.9634 169.915V169.906Z" fill="#758B6F"/>
<path d="M18.2786 170.546C-4.11491 226.359 -2.40342 270.434 34.2676 326.877C64.9033 374.034 162.603 452.915 335.058 399.373C449.656 363.801 516.386 433.81 565.533 349.974C607.132 279.01 511.054 238.312 540.536 161.52C563.002 103.005 518.332 29.0684 407.355 47.9759C321.258 62.6407 288.65 -70.5226 147.091 73.0538C89.9902 130.965 46.7615 99.5639 18.2786 170.555V170.546Z" fill="#80947A"/>
<path d="M18.6029 171.194C-3.79064 227.007 -2.07914 271.083 34.5919 327.526C65.2276 374.682 162.927 453.564 335.382 400.021C449.98 364.449 516.711 434.458 565.858 350.622C607.456 279.658 511.378 238.961 540.861 162.169C563.326 103.653 518.656 29.7259 407.68 48.6244C321.582 63.2892 288.974 -69.874 147.415 73.7023C90.3145 131.614 47.0858 100.212 18.6029 171.203V171.194Z" fill="#8A9D85"/>
<path d="M18.9182 171.834C-3.47533 227.647 -1.76383 271.722 34.9072 328.165C65.5429 375.322 163.242 454.203 335.698 400.661C450.296 365.089 517.026 435.098 566.173 351.262C607.771 280.298 511.693 239.6 541.176 162.808C563.642 104.293 518.972 30.3655 407.995 49.264C321.898 63.9288 289.289 -69.2345 147.731 74.3419C90.6298 132.253 47.4011 100.852 18.9182 171.843V171.834Z" fill="#95A690"/>
<path d="M19.2425 172.473C-3.15105 228.286 -1.43955 272.362 35.2315 328.805C65.8672 375.961 163.566 454.843 336.022 401.3C450.62 365.728 517.35 435.737 566.497 351.901C608.096 280.937 512.018 240.24 541.5 163.448C563.966 104.933 519.296 31.005 408.319 49.9035C322.222 64.5683 289.613 -68.5949 148.055 74.9814C90.9541 132.893 47.7254 101.492 19.2425 172.482V172.473Z" fill="#9FAF9B"/>
<path d="M19.5578 173.113C-2.83574 228.926 -1.12424 273.001 35.5468 329.445C66.1825 376.601 163.882 455.483 336.337 401.94C450.935 366.368 517.666 436.377 566.812 352.541C608.411 281.577 512.333 240.879 541.816 164.087C564.281 105.572 519.611 31.6446 408.634 50.5431C322.537 65.2079 289.929 -67.9554 148.37 75.621C91.2694 133.533 48.0407 102.131 19.5578 173.122V173.113Z" fill="#AAB8A6"/>
<path d="M19.882 173.753C-2.51152 229.565 -0.800024 273.641 35.871 330.084C66.5067 377.24 164.206 456.122 336.662 402.579C451.26 367.007 517.99 437.016 567.137 353.18C608.735 282.216 512.657 241.519 542.14 164.727C564.606 106.212 519.936 32.2842 408.959 51.1827C322.862 65.8475 290.253 -67.3158 148.694 76.2606C91.5936 134.172 48.3649 102.771 19.882 173.762V173.753Z" fill="#B5C1B1"/>
<path d="M20.2063 174.392C-2.18724 230.205 -0.475744 274.28 36.1953 330.724C66.831 377.88 164.53 456.762 336.986 403.219C451.584 367.647 518.314 437.656 567.461 353.82C609.059 282.856 512.982 242.158 542.464 165.366C564.93 106.851 520.26 32.9148 409.283 51.8223C323.186 66.4871 290.577 -66.6762 149.019 76.9002C91.9179 134.812 48.6892 103.41 20.2063 174.401V174.392Z" fill="#BFCABC"/>
<path d="M20.5216 175.032C-1.87193 230.845 -0.160437 274.92 36.5106 331.363C67.1463 378.519 164.846 457.401 337.301 403.859C451.899 368.287 518.629 438.296 567.776 354.459C609.375 283.496 513.297 242.798 542.779 166.006C565.245 107.491 520.575 33.5633 409.598 52.4618C323.501 67.1266 290.893 -66.0366 149.334 77.5397C92.2332 135.451 49.0045 104.05 20.5216 175.041V175.032Z" fill="#CAD2C8"/>
<path d="M20.8459 175.68C-1.54765 231.484 0.163843 275.56 36.8349 332.003C67.4706 379.159 165.17 458.041 337.625 404.498C452.223 368.926 518.954 438.935 568.101 355.099C609.699 284.135 513.621 243.438 543.104 166.645C565.569 108.13 520.899 34.2029 409.923 53.1014C323.825 67.7662 291.217 -65.3971 149.658 78.1793C92.5575 136.091 49.3288 104.689 20.8459 175.68Z" fill="#D5DBD3"/>
<path d="M21.1611 176.32C-1.23242 232.133 0.479074 276.199 37.1591 332.642C67.7948 379.799 165.494 458.68 337.95 405.138C452.548 369.566 519.278 439.575 568.425 355.739C610.023 284.775 513.945 244.077 543.428 167.285C565.894 108.77 521.224 34.8334 410.247 53.7409C324.15 68.4057 291.541 -64.7575 149.983 78.8188C92.8817 136.73 49.653 105.329 21.1701 176.32H21.1611Z" fill="#DFE4DE"/>
<path d="M21.4855 176.96C-0.908065 232.772 0.803427 276.848 37.4744 333.291C68.1102 380.447 165.809 459.329 338.265 405.786C452.863 370.214 519.593 440.223 568.74 356.387C610.339 285.423 514.261 244.726 543.743 167.934C566.209 109.419 521.539 35.491 410.562 54.3895C324.465 69.0543 291.857 -64.1089 150.298 79.4674C93.1971 137.379 49.9683 105.978 21.4855 176.969V176.96Z" fill="#EAEDE9"/>
<path d="M21.8007 177.599C-0.583835 233.412 1.12766 277.487 37.7987 333.931C68.4344 381.087 166.134 459.969 338.589 406.426C453.187 370.854 519.917 440.863 569.064 357.027C610.663 286.063 514.585 245.365 544.068 168.573C566.533 110.058 521.863 36.1305 410.886 55.029C324.789 69.6938 292.181 -63.4694 150.622 80.1069C93.5213 138.018 50.2926 106.617 21.8097 177.608L21.8007 177.599Z" fill="#F4F6F4"/>
<path d="M22.125 178.239C-0.26854 234.051 1.44296 278.127 38.114 334.57C68.7497 381.726 166.449 460.608 338.905 407.065C453.503 371.493 520.233 441.502 569.38 357.666C610.978 286.702 514.9 246.005 544.383 169.213C566.849 110.698 522.179 36.7611 411.202 55.6686C325.105 70.3334 292.496 -62.8299 150.937 80.7465C93.8366 138.658 50.6079 107.257 22.125 178.248V178.239Z" fill="white"/>
</g>
</g>
<path d="M115.951 108.95C130.994 103.951 147.83 103.23 161.531 95.6725C175.835 87.7726 184.429 73.7474 195.058 61.9381C209.813 45.5528 229.522 21.6279 252.501 18.8535C318.015 10.9446 340.976 66.424 385.556 68.5589C410.157 69.7389 466.24 42.1028 504.541 78.8639C552.139 124.552 506.207 157.295 502.01 204.92C498.677 242.681 593.034 302.817 530.709 353.514C491.966 385.032 430.514 333.822 377.08 355.117C162.963 440.458 24.3319 348.559 21.8187 234.466C20.1252 157.394 55.2288 129.11 115.942 108.95H115.951Z" fill="url(#paint1_linear_1193_69574)"/>
<mask id="mask1_1193_69574" style="mask-type:luminance" maskUnits="userSpaceOnUse" x="21" y="18" width="532" height="371">
<path d="M115.951 108.95C130.994 103.951 147.83 103.23 161.531 95.6725C175.835 87.7726 184.429 73.7474 195.058 61.9381C209.813 45.5528 229.522 21.6279 252.501 18.8535C318.015 10.9446 340.976 66.424 385.556 68.5589C410.157 69.7389 466.24 42.1028 504.541 78.8639C552.139 124.552 506.207 157.295 502.01 204.92C498.677 242.681 593.034 302.817 530.709 353.514C491.966 385.032 430.514 333.822 377.08 355.117C162.963 440.458 24.3319 348.559 21.8187 234.466C20.1252 157.394 55.2288 129.11 115.942 108.95H115.951Z" fill="white"/>
</mask>
<g mask="url(#mask1_1193_69574)">
<g style="mix-blend-mode:multiply" opacity="0.35">
<g style="mix-blend-mode:multiply">
<path d="M115.951 108.95C130.994 103.951 147.83 103.23 161.531 95.6725C175.835 87.7726 184.429 73.7474 195.058 61.9381C209.813 45.5528 229.522 21.6279 252.501 18.8535C318.015 10.9446 340.976 66.424 385.556 68.5589C410.157 69.7389 466.24 42.1028 504.541 78.8639C552.139 124.552 506.207 157.295 502.01 204.92C498.677 242.681 593.034 302.817 530.709 353.514C491.966 385.032 430.514 333.822 377.08 355.117C162.963 440.458 24.3319 348.559 21.8187 234.466C20.1252 157.394 55.2288 129.11 115.942 108.95H115.951Z" fill="#006C3E"/>
</g>
<path d="M116.446 109.473C131.49 104.473 148.325 103.753 162.026 96.195C176.331 88.2951 184.924 74.2698 195.553 62.4605C210.308 46.0752 230.018 22.1504 252.997 19.3759C318.511 11.467 341.472 66.9465 386.052 69.0813C410.652 70.2614 466.735 42.6252 505.037 79.3863C552.634 125.074 506.703 157.818 502.505 205.442C499.172 243.203 593.53 303.34 531.204 354.036C492.462 385.555 431.01 334.345 377.575 355.639C163.458 440.98 24.8274 349.082 22.3142 234.988C20.6207 157.917 55.7244 129.632 116.437 109.473H116.446Z" fill="#006C3E"/>
<path d="M116.942 109.995C131.985 104.996 148.821 104.275 162.522 96.7175C176.826 88.8176 185.42 74.7923 196.049 62.983C210.804 46.5977 230.513 22.6728 253.492 19.8984C319.006 11.9895 341.967 67.4689 386.547 69.6038C411.148 70.7838 467.231 43.1477 505.532 79.9088C553.13 125.597 507.198 158.34 503.001 205.965C499.668 243.726 594.025 303.862 531.7 354.559C492.957 386.077 431.505 334.867 378.071 356.162C163.954 441.502 25.3228 349.604 22.8096 235.511C21.1161 158.439 56.2197 130.155 116.933 109.995H116.942Z" fill="#35562C"/>
<path d="M117.437 110.518C132.48 105.518 149.316 104.798 163.017 97.2399C177.322 89.34 185.915 75.3148 196.544 63.5055C211.299 47.1202 231.008 23.1953 253.987 20.4209C319.502 12.512 342.463 67.9914 387.043 70.1262C411.643 71.3063 467.726 43.6702 506.027 80.4312C553.625 126.119 507.694 158.863 503.496 206.487C500.163 244.248 594.521 304.385 532.195 355.081C493.452 386.6 432.001 335.39 378.566 356.684C164.449 442.025 25.8182 350.127 23.3051 236.033C21.6116 158.962 56.7152 130.677 117.428 110.518H117.437Z" fill="#405F37"/>
<path d="M117.924 111.049C132.967 106.05 149.802 105.329 163.503 97.7713C177.808 89.8715 186.401 75.8462 197.031 64.0369C211.786 47.6516 231.495 23.7267 254.474 20.9523C319.988 13.0434 342.949 68.5228 387.529 70.6577C412.129 71.8377 468.212 44.2016 506.514 80.9627C554.111 126.651 508.18 159.394 503.983 207.019C500.65 244.78 595.007 304.916 532.682 355.612C493.939 387.131 432.487 335.921 379.053 357.216C164.936 442.556 26.3046 350.658 23.7914 236.565C22.098 159.493 57.2016 131.209 117.915 111.049H117.924Z" fill="#4A6842"/>
<path d="M118.419 111.571C133.462 106.572 150.298 105.851 163.999 98.2938C178.303 90.3939 186.897 76.3687 197.526 64.5594C212.281 48.1741 231.99 24.2492 254.969 21.4748C320.483 13.5658 343.444 69.0453 388.024 71.1801C412.625 72.3602 468.708 44.724 507.009 81.4851C554.607 127.173 508.676 159.917 504.478 207.541C501.145 245.302 595.503 305.439 533.177 356.135C494.434 387.653 432.983 336.444 379.548 357.738C165.431 443.079 26.8001 351.181 24.2869 237.087C22.5934 160.016 57.697 131.731 118.41 111.571H118.419Z" fill="#55714D"/>
<path d="M118.915 112.094C133.958 107.095 150.793 106.374 164.494 98.8163C178.799 90.9164 187.392 76.8911 198.022 65.0818C212.776 48.6965 232.486 24.7716 255.465 21.9972C320.979 14.0883 343.94 69.5677 388.52 71.7026C413.12 72.8826 469.203 45.2465 507.505 82.0076C555.102 127.695 509.171 160.439 504.974 208.064C501.641 245.825 595.998 305.961 533.673 356.657C494.93 388.176 433.478 336.966 380.043 358.261C165.927 443.601 27.2955 351.703 24.7823 237.609C23.0889 160.538 58.1925 132.253 118.906 112.094H118.915Z" fill="#607959"/>
<path d="M119.41 112.616C134.453 107.617 151.289 106.896 164.99 99.3387C179.294 91.4388 187.888 77.4136 198.517 65.6043C213.272 49.219 232.981 25.2941 255.96 22.5197C321.474 14.6108 344.435 70.0902 389.015 72.2251C413.616 73.4051 469.699 45.769 508 82.5301C555.598 128.218 509.667 160.962 505.469 208.586C502.136 246.347 596.494 306.484 534.168 357.18C495.425 388.698 433.974 337.489 380.539 358.783C166.422 444.124 27.791 352.225 25.2778 238.132C23.5843 161.061 58.688 132.776 119.401 112.616H119.41Z" fill="#6A8264"/>
<path d="M119.905 113.148C134.948 108.148 151.784 107.428 165.485 99.8702C179.79 91.9703 188.383 77.945 199.012 66.1357C213.767 49.7504 233.477 25.8255 256.456 23.0511C321.97 15.1422 344.931 70.6216 389.511 72.7565C414.111 73.9365 470.194 46.3004 508.496 83.0615C556.093 128.749 510.162 161.493 505.964 209.118C502.631 246.878 596.989 307.015 534.663 357.711C495.921 389.23 434.469 338.02 381.034 359.315C166.917 444.655 28.2864 352.757 25.7732 238.663C24.0797 161.592 59.1834 133.307 119.896 113.148H119.905Z" fill="#758B6F"/>
<path d="M120.401 113.67C135.444 108.671 152.28 107.95 165.981 100.393C180.285 92.4927 188.879 78.4675 199.508 66.6582C214.263 50.2729 233.972 26.348 256.951 23.5736C322.465 15.6647 345.426 71.1441 390.006 73.279C414.607 74.459 470.69 46.8229 508.991 83.584C556.589 129.272 510.657 162.015 506.46 209.64C503.127 247.401 597.484 307.537 535.159 358.234C496.416 389.752 434.964 338.543 381.53 359.837C167.413 445.178 28.7819 353.279 26.2687 239.186C24.5752 162.115 59.6788 133.83 120.392 113.67H120.401Z" fill="#80947A"/>
<path d="M120.896 114.193C135.939 109.193 152.775 108.473 166.476 100.915C180.78 93.0151 189.374 78.9899 200.003 67.1806C214.758 50.7953 234.467 26.8704 257.446 24.096C322.961 16.1871 345.922 71.6665 390.502 73.8014C415.102 74.9814 471.185 47.3453 509.486 84.1064C557.084 129.794 511.153 162.538 506.955 210.162C503.622 247.923 597.98 308.06 535.654 358.756C496.911 390.275 435.46 339.065 382.025 360.359C167.908 445.7 29.2772 353.802 26.764 239.708C25.0706 162.637 60.1742 134.352 120.887 114.193H120.896Z" fill="#8A9D85"/>
<path d="M121.392 114.715C136.435 109.716 153.27 108.995 166.971 101.437C181.276 93.5376 189.869 79.5123 200.499 67.703C215.253 51.3177 234.963 27.3928 257.942 24.6184C323.456 16.7095 346.417 72.189 390.997 74.3238C415.597 75.5038 471.68 47.8677 509.982 84.6288C557.579 130.317 511.648 163.06 507.451 210.685C504.118 248.446 598.475 308.582 536.15 359.279C497.407 390.797 435.955 339.587 382.52 360.882C168.404 446.222 29.7726 354.324 27.2594 240.231C25.5659 163.159 60.6696 134.875 121.383 114.715H121.392Z" fill="#95A690"/>
<path d="M121.887 115.238C136.93 110.238 153.766 109.518 167.467 101.96C181.771 94.0601 190.365 80.0348 200.994 68.2255C215.749 51.8402 235.458 27.9153 258.437 25.1409C323.952 17.232 346.913 72.7114 391.492 74.8463C416.093 76.0263 472.176 48.3902 510.477 85.1513C558.075 130.839 512.144 163.583 507.946 211.207C504.613 248.968 598.971 309.105 536.645 359.801C497.902 391.32 436.451 340.11 383.016 361.404C168.899 446.745 30.2681 354.847 27.7549 240.753C26.0615 163.682 61.1651 135.397 121.878 115.238H121.887Z" fill="#9FAF9B"/>
<path d="M122.383 115.769C137.426 110.77 154.261 110.049 167.962 102.491C182.267 94.5915 190.86 80.5663 201.49 68.757C216.244 52.3717 235.954 28.4468 258.933 25.6724C324.447 17.7635 347.408 73.2429 391.988 75.3778C416.588 76.5578 472.671 48.9217 510.973 85.6828C558.57 131.371 512.639 164.114 508.442 211.739C505.109 249.5 599.466 309.636 537.141 360.333C498.398 391.851 436.946 340.641 383.512 361.936C169.395 447.276 30.7636 355.378 28.2504 241.285C26.5569 164.213 61.6605 135.929 122.374 115.769H122.383Z" fill="#AAB8A6"/>
<path d="M122.878 116.291C137.921 111.292 154.757 110.572 168.458 103.014C182.762 95.114 191.356 81.0888 201.985 69.2795C216.74 52.8942 236.449 28.9693 259.428 26.1948C324.942 18.2859 347.903 73.7654 392.483 75.9002C417.084 77.0803 473.167 49.4441 511.468 86.2052C559.066 131.893 513.135 164.637 508.937 212.261C505.604 250.022 599.961 310.159 537.636 360.855C498.893 392.374 437.442 341.164 384.007 362.458C169.89 447.799 31.259 355.901 28.7458 241.807C27.0523 164.736 62.1559 136.451 122.869 116.291H122.878Z" fill="#B5C1B1"/>
<path d="M123.373 116.814C138.417 111.815 155.252 111.094 168.953 103.536C183.258 95.6364 191.851 81.6112 202.48 69.8019C217.235 53.4165 236.945 29.4917 259.924 26.7172C325.438 18.8083 348.399 74.2878 392.979 76.4226C417.579 77.6027 473.662 49.9665 511.964 86.7276C559.561 132.416 513.63 165.159 509.432 212.784C506.099 250.545 600.457 310.681 538.131 361.377C499.389 392.896 437.937 341.686 384.502 362.981C170.385 448.321 31.7544 356.423 29.2412 242.329C27.5477 165.258 62.6514 136.973 123.364 116.814H123.373Z" fill="#BFCABC"/>
<path d="M123.869 117.336C138.912 112.337 155.748 111.616 169.449 104.059C183.753 96.1589 192.347 82.1336 202.976 70.3243C217.731 53.939 237.44 30.0141 260.419 27.2397C325.933 19.3308 348.894 74.8102 393.474 76.9451C418.075 78.1251 474.158 50.489 512.459 87.2501C560.057 132.938 514.125 165.682 509.928 213.306C506.595 251.067 600.952 311.204 538.627 361.9C499.884 393.418 438.432 342.209 384.998 363.503C170.881 448.844 32.2498 356.946 29.7366 242.852C28.0432 165.781 63.1468 137.496 123.86 117.336H123.869Z" fill="#CAD2C8"/>
<path d="M124.364 117.859C139.407 112.86 156.243 112.139 169.944 104.581C184.249 96.6814 192.842 82.6561 203.471 70.8468C218.226 54.4615 237.935 30.5366 260.914 27.7622C326.429 19.8533 349.39 75.3328 393.97 77.4676C418.57 78.6476 474.653 51.0115 512.954 87.7726C560.552 133.461 514.621 166.204 510.423 213.829C507.09 251.59 601.448 311.726 539.122 362.422C500.379 393.941 438.928 342.731 385.493 364.026C171.376 449.366 32.7452 357.468 30.2321 243.374C28.5386 166.303 63.6422 138.018 124.355 117.859H124.364Z" fill="#D5DBD3"/>
<path d="M124.86 118.39C139.903 113.391 156.739 112.67 170.439 105.113C184.744 97.2128 193.337 83.1876 203.967 71.3783C218.722 54.993 238.431 31.0681 261.41 28.2937C326.924 20.3848 349.885 75.8642 394.465 77.999C419.066 79.1791 475.148 51.5429 513.45 88.304C561.047 133.992 515.116 166.736 510.919 214.36C507.586 252.121 601.943 312.258 539.618 362.954C500.875 394.472 439.423 343.263 385.989 364.557C171.872 449.898 33.2407 357.999 30.7275 243.906C29.0341 166.835 64.1377 138.55 124.851 118.39H124.86Z" fill="#DFE4DE"/>
<path d="M125.355 118.913C140.398 113.913 157.234 113.193 170.935 105.635C185.239 97.7353 193.833 83.71 204.462 71.9007C219.217 55.5154 238.926 31.5905 261.905 28.8161C327.419 20.9072 350.381 76.3866 394.96 78.5215C419.561 79.7015 475.644 52.0654 513.945 88.8265C561.543 134.514 515.612 167.258 511.414 214.883C508.081 252.644 602.439 312.78 540.113 363.476C501.37 394.995 439.919 343.785 386.484 365.08C172.367 450.42 33.7362 358.522 31.223 244.428C29.5295 167.357 64.6331 139.072 125.346 118.913H125.355Z" fill="#EAEDE9"/>
<path d="M125.851 119.435C140.894 114.436 157.729 113.715 171.43 106.158C185.735 98.2578 194.328 84.2326 204.958 72.4233C219.712 56.038 239.422 32.1131 262.401 29.3386C327.915 21.4297 350.876 76.9092 395.456 79.044C420.056 80.2241 476.139 52.5879 514.441 89.349C562.038 135.037 516.107 167.78 511.91 215.405C508.577 253.166 602.934 313.303 540.609 363.999C501.866 395.517 440.414 344.308 386.979 365.602C172.863 450.943 34.2316 359.044 31.7184 244.951C30.0249 167.88 65.1285 139.595 125.842 119.435H125.851Z" fill="#F4F6F4"/>
<path d="M126.346 119.958C141.389 114.958 158.225 114.238 171.926 106.68C186.23 98.7801 194.824 84.7549 205.453 72.9456C220.208 56.5603 239.917 32.6354 262.896 29.861C328.41 21.9521 351.371 77.4315 395.951 79.5664C420.552 80.7464 476.635 53.1103 514.936 89.8714C562.534 135.559 516.603 168.303 512.405 215.927C509.072 253.688 603.429 313.825 541.104 364.521C502.361 396.04 440.91 344.83 387.475 366.125C173.358 451.465 34.727 359.567 32.2138 245.473C30.5203 168.402 65.624 140.117 126.337 119.958H126.346Z" fill="white"/>
</g>
</g>
<path d="M138.957 121.633C199.67 114.292 208.588 52.7771 259.365 45.0303C294.136 39.7337 313.088 78.0982 378.287 78.0982C413.436 78.0982 464.429 61.7309 489.471 89.0517C521.557 124.065 472.059 158.367 471.708 203.371C471.455 235.628 535.537 285.666 507.397 318.095C480.103 349.541 427.551 291.341 379.557 319.626C225.379 410.47 43.5638 354.162 41.9064 231.826C40.5732 133.785 120.329 123.885 138.975 121.624L138.957 121.633Z" fill="url(#paint2_linear_1193_69574)"/>
<mask id="mask2_1193_69574" style="mask-type:luminance" maskUnits="userSpaceOnUse" x="41" y="44" width="474" height="321">
<path d="M138.957 121.633C199.67 114.292 208.588 52.7771 259.365 45.0303C294.136 39.7337 313.088 78.0982 378.287 78.0982C413.436 78.0982 464.429 61.7309 489.471 89.0517C521.557 124.065 472.059 158.367 471.708 203.371C471.455 235.628 535.537 285.666 507.397 318.095C480.103 349.541 427.551 291.341 379.557 319.626C225.379 410.47 43.5638 354.162 41.9064 231.826C40.5732 133.785 120.329 123.885 138.975 121.624L138.957 121.633Z" fill="white"/>
</mask>
<g mask="url(#mask2_1193_69574)">
<path d="M45.5095 254.274L44.5366 255.175C42.9062 247.698 42.0054 239.906 41.8883 231.835C41.4109 196.146 51.6709 172.14 65.8222 155.935C68.8128 155.278 71.9115 154.926 75.1093 154.926C99.2144 154.926 118.761 174.473 118.761 198.587C118.761 199.02 118.743 199.461 118.734 199.894C128.157 200.542 136.66 204.551 143.047 210.73C148.794 204.334 157.135 200.299 166.413 200.299C182.222 200.299 195.292 211.982 197.481 227.187C199.625 226.638 201.877 226.341 204.192 226.341C216.506 226.341 226.874 234.673 229.982 246.005C232.711 245.041 235.647 244.5 238.71 244.5C242.538 244.5 246.169 245.329 249.438 246.816C254.528 231.79 268.733 220.963 285.479 220.963C293.469 220.963 300.882 223.422 307.008 227.638C313.728 220.684 323.15 216.36 333.59 216.36C335.157 216.36 336.707 216.468 338.229 216.666C338.193 216 338.175 215.342 338.175 214.666C338.175 193.426 355.398 176.203 376.639 176.203C384.079 176.203 391.033 178.32 396.915 181.986C401.113 160.196 420.282 143.721 443.306 143.721C459.511 143.721 473.788 151.882 482.301 164.303C476.653 176.527 471.834 189.435 471.726 203.371C471.617 217.828 484.409 235.853 496.056 254.256H45.5095V254.274Z" fill="url(#paint3_linear_1193_69574)"/>
<g style="mix-blend-mode:multiply" opacity="0.35">
<path d="M138.957 121.633C199.67 114.292 208.588 52.7771 259.365 45.0303C294.135 39.7337 313.088 78.0982 378.287 78.0982C413.436 78.0982 464.429 61.7309 489.471 89.0517C521.557 124.065 472.059 158.367 471.707 203.371C471.455 235.628 535.537 285.666 507.397 318.095C480.103 349.541 427.551 291.341 379.557 319.626C225.378 410.47 43.5637 354.162 41.9063 231.826C40.5731 133.785 120.329 123.885 138.975 121.624L138.957 121.633Z" fill="#006C3E"/>
<path d="M139.335 122.327C200.048 114.985 208.966 53.4707 259.743 45.724C294.514 40.4273 313.466 78.7918 378.665 78.7918C413.814 78.7918 464.807 62.4245 489.849 89.7454C521.935 124.759 472.437 159.061 472.086 204.073C471.834 236.33 535.915 286.369 507.775 318.797C480.481 350.244 427.929 292.044 379.935 320.329C225.757 411.173 43.942 354.865 42.2846 232.529C40.9514 134.487 120.707 124.588 139.353 122.327H139.335Z" fill="#006C3E"/>
<path d="M139.714 123.011C200.427 115.661 209.345 54.1552 260.122 46.4085C294.892 41.1119 313.845 79.4763 379.044 79.4763C414.192 79.4763 465.186 63.1091 490.228 90.4299C522.314 125.443 472.815 159.745 472.464 204.749C472.212 237.006 536.294 287.045 508.153 319.473C480.859 350.919 428.308 292.719 380.314 321.004C226.135 411.848 44.3204 355.54 42.663 233.205C41.3298 135.163 121.085 125.263 139.732 123.002L139.714 123.011Z" fill="#35562C"/>
<path d="M140.092 123.705C200.805 116.364 209.723 54.8488 260.5 47.1021C295.27 41.8055 314.223 80.1699 379.422 80.1699C414.571 80.1699 465.564 63.8027 490.606 91.1235C522.692 126.137 473.194 160.439 472.842 205.442C472.59 237.699 536.672 287.738 508.532 320.166C481.238 351.613 428.686 293.413 380.692 321.698C226.513 412.542 44.6987 356.234 43.0413 233.898C41.7081 135.857 121.464 125.957 140.11 123.696L140.092 123.705Z" fill="#405F37"/>
<path d="M140.47 124.399C201.183 117.048 210.101 55.5425 260.878 47.7957C295.649 42.4991 314.601 80.8636 379.8 80.8636C414.949 80.8636 465.942 64.4963 490.984 91.8172C523.07 126.831 473.572 161.133 473.221 206.136C472.969 238.393 537.051 288.432 508.91 320.86C481.616 352.307 429.064 294.107 381.07 322.391C226.892 413.236 45.077 356.928 43.4196 234.592C42.0864 136.55 121.842 126.651 140.488 124.39L140.47 124.399Z" fill="#4A6842"/>
<path d="M140.849 125.083C201.562 117.742 210.479 56.2271 261.257 48.4804C296.027 43.1838 314.98 81.5482 380.179 81.5482C415.327 81.5482 466.321 65.181 491.363 92.5018C523.449 127.515 473.95 161.817 473.599 206.821C473.347 239.078 537.429 289.116 509.288 321.545C481.994 352.991 429.443 294.791 381.449 323.076C227.27 413.92 45.4554 357.612 43.798 235.276C42.4648 137.235 122.22 127.335 140.867 125.074L140.849 125.083Z" fill="#55714D"/>
<path d="M141.227 125.777C201.94 118.435 210.858 56.9207 261.635 49.1739C296.406 43.8773 315.358 82.2418 380.557 82.2418C415.706 82.2418 466.699 65.8745 491.741 93.1954C523.827 128.209 474.329 162.511 473.977 207.514C473.725 239.771 537.807 289.81 509.667 322.238C482.373 353.685 429.821 295.485 381.827 323.77C227.648 414.614 45.8338 358.306 44.1763 235.97C42.8431 137.928 122.599 128.029 141.245 125.768L141.227 125.777Z" fill="#607959"/>
<path d="M141.605 126.461C202.318 119.111 211.236 57.6053 262.013 49.8585C296.784 44.5619 315.736 82.9264 380.935 82.9264C416.084 82.9264 467.077 66.5591 492.119 93.8799C524.205 128.893 474.707 163.195 474.356 208.199C474.104 240.456 538.186 290.495 510.045 322.923C482.751 354.369 430.199 296.17 382.205 324.454C228.027 415.299 46.2121 358.99 44.5547 236.655C43.2215 138.613 122.977 128.713 141.623 126.452L141.605 126.461Z" fill="#6A8264"/>
<path d="M141.984 127.155C202.697 119.814 211.614 58.2989 262.392 50.5522C297.162 45.2555 316.115 83.62 381.314 83.62C416.462 83.62 467.456 67.2527 492.498 94.5736C524.584 129.587 475.085 163.889 474.734 208.892C474.482 241.15 538.564 291.188 510.423 323.617C483.129 355.063 430.578 296.863 382.584 325.148C228.405 415.992 46.5903 359.684 44.9329 237.348C43.5997 139.307 123.355 129.407 142.002 127.146L141.984 127.155Z" fill="#758B6F"/>
<path d="M142.371 127.84C203.084 120.498 212.002 58.9836 262.779 51.2368C297.549 45.9402 316.502 84.3047 381.701 84.3047C416.85 84.3047 467.843 67.9374 492.885 95.2582C524.971 130.272 475.473 164.574 475.121 209.577C474.869 241.834 538.951 291.873 510.811 324.301C483.517 355.748 430.965 297.548 382.971 325.833C228.792 416.677 46.9777 360.369 45.3202 238.033C43.9871 139.991 123.743 130.092 142.389 127.831L142.371 127.84Z" fill="#80947A"/>
<path d="M142.749 128.533C203.462 121.183 212.38 59.6771 263.158 51.9303C297.928 46.6337 316.88 84.9982 382.079 84.9982C417.228 84.9982 468.222 68.6309 493.263 95.9518C525.349 130.965 475.851 165.267 475.5 210.271C475.248 242.528 539.33 292.566 511.189 324.995C483.895 356.441 431.343 298.241 383.349 326.526C229.171 417.37 47.3562 361.062 45.6987 238.726C44.3655 140.685 124.121 130.785 142.767 128.524L142.749 128.533Z" fill="#8A9D85"/>
<path d="M143.128 129.218C203.841 121.876 212.758 60.3617 263.536 52.6149C298.306 47.3183 317.259 85.6828 382.458 85.6828C417.606 85.6828 468.6 69.3155 493.642 96.6363C525.728 131.65 476.229 165.952 475.878 210.955C475.626 243.212 539.708 293.251 511.567 325.679C484.273 357.126 431.722 298.926 383.728 327.211C229.549 418.055 47.7344 361.747 46.0769 239.411C44.7438 141.369 124.499 131.47 143.146 129.209L143.128 129.218Z" fill="#95A690"/>
<path d="M143.506 129.911C204.219 122.57 213.137 61.0553 263.914 53.3086C298.684 48.0119 317.637 86.3764 382.836 86.3764C417.985 86.3764 468.978 70.0091 494.02 97.33C526.106 132.344 476.608 166.646 476.256 211.649C476.004 243.906 540.086 293.945 511.946 326.373C484.652 357.819 432.1 299.62 384.106 327.904C229.927 418.749 48.1127 362.44 46.4552 240.105C45.1221 142.063 124.878 132.163 143.524 129.902L143.506 129.911Z" fill="#9FAF9B"/>
<path d="M143.884 130.596C204.597 123.255 213.515 61.74 264.292 53.9932C299.063 48.6966 318.015 87.0611 383.214 87.0611C418.363 87.0611 469.356 70.6938 494.398 98.0146C526.484 133.028 476.986 167.33 476.635 212.333C476.383 244.591 540.465 294.629 512.324 327.058C485.03 358.504 432.478 300.304 384.484 328.589C230.306 419.433 48.491 363.125 46.8336 240.789C45.5004 142.748 125.256 132.848 143.902 130.587L143.884 130.596Z" fill="#AAB8A6"/>
<path d="M144.263 131.29C204.976 123.948 213.893 62.4334 264.671 54.6867C299.441 49.3901 318.394 87.7545 383.593 87.7545C418.741 87.7545 469.735 71.3873 494.777 98.7081C526.863 133.722 477.364 168.024 477.013 213.027C476.761 245.284 540.843 295.323 512.702 327.751C485.408 359.198 432.857 300.998 384.863 329.282C230.684 420.127 48.8693 363.819 47.2119 241.483C45.8787 143.441 125.634 133.542 144.281 131.281L144.263 131.29Z" fill="#B5C1B1"/>
<path d="M144.641 131.974C205.354 124.633 214.272 63.1181 265.049 55.3713C299.819 50.0747 318.772 88.4392 383.971 88.4392C419.12 88.4392 470.113 72.0719 495.155 99.3927C527.241 134.406 477.743 168.708 477.391 213.712C477.139 245.969 541.221 296.007 513.081 328.436C485.787 359.882 433.235 301.682 385.241 329.967C231.062 420.811 49.2477 364.503 47.5902 242.167C46.2571 144.126 126.013 134.226 144.659 131.965L144.641 131.974Z" fill="#BFCABC"/>
<path d="M145.019 132.668C205.732 125.326 214.65 63.8117 265.427 56.0649C300.198 50.7683 319.15 89.1328 384.349 89.1328C419.498 89.1328 470.491 72.7655 495.533 100.086C527.619 135.1 478.121 169.402 477.77 214.405C477.518 246.662 541.599 296.701 513.459 329.129C486.165 360.576 433.613 302.376 385.619 330.661C231.441 421.505 49.626 365.197 47.9685 242.861C46.6354 144.819 126.391 134.92 145.037 132.659L145.019 132.668Z" fill="#CAD2C8"/>
<path d="M145.398 133.361C206.111 126.02 215.028 64.5053 265.806 56.7585C300.576 51.4619 319.529 89.8264 384.728 89.8264C419.876 89.8264 470.87 73.4591 495.912 100.78C527.998 135.794 478.499 170.095 478.148 215.099C477.896 247.356 541.978 297.395 513.837 329.823C486.543 361.269 433.992 303.07 385.998 331.354C231.819 422.199 50.0044 365.89 48.347 243.555C47.0138 145.513 126.769 135.613 145.416 133.352L145.398 133.361Z" fill="#D5DBD3"/>
<path d="M145.776 134.046C206.489 126.705 215.407 65.1899 266.184 57.4431C300.954 52.1465 319.907 90.511 385.106 90.511C420.255 90.511 471.248 74.1437 496.29 101.465C528.376 136.478 478.878 170.78 478.526 215.783C478.274 248.041 542.356 298.079 514.216 330.508C486.922 361.954 434.37 303.754 386.376 332.039C232.197 422.883 50.3827 366.575 48.7253 244.239C47.3921 146.198 127.148 136.298 145.794 134.037L145.776 134.046Z" fill="#DFE4DE"/>
<path d="M146.154 134.74C206.867 127.398 215.785 65.8835 266.562 58.1367C301.333 52.8401 320.285 91.2046 385.484 91.2046C420.633 91.2046 471.626 74.8373 496.668 102.158C528.754 137.172 479.256 171.474 478.905 216.477C478.653 248.734 542.735 298.773 514.594 331.201C487.3 362.648 434.748 304.448 386.754 332.732C232.576 423.577 50.7611 367.269 49.1036 244.933C47.7705 146.891 127.526 136.992 146.172 134.731L146.154 134.74Z" fill="#EAEDE9"/>
<path d="M146.533 135.424C207.246 128.083 216.163 66.5681 266.941 58.8214C301.711 53.5248 320.664 91.8892 385.862 91.8892C421.011 91.8892 472.005 75.522 497.047 102.843C529.133 137.856 479.634 172.158 479.283 217.162C479.031 249.419 543.113 299.457 514.972 331.886C487.678 363.332 435.126 305.132 387.133 333.417C232.954 424.261 51.1393 367.953 49.4819 245.617C48.1487 147.576 127.904 137.676 146.551 135.415L146.533 135.424Z" fill="#F4F6F4"/>
<path d="M146.911 136.118C207.624 128.776 216.542 67.2617 267.319 59.5149C302.089 54.2183 321.042 92.5828 386.241 92.5828C421.39 92.5828 472.383 76.2155 497.425 103.536C529.511 138.55 480.013 172.852 479.661 217.855C479.409 250.112 543.491 300.151 515.351 332.579C488.057 364.026 435.505 305.826 387.511 334.111C233.332 424.955 51.5177 368.647 49.8603 246.311C48.5271 148.269 128.283 138.37 146.929 136.109L146.911 136.118Z" fill="white"/>
</g>
</g>
<g filter="url(#filter0_d_1193_69574)">
<path d="M253.483 138.46V121.606H219.83V138.46H207.336V254.355H265.986V138.46H253.483Z" fill="url(#paint4_linear_1193_69574)"/>
</g>
<g filter="url(#filter1_d_1193_69574)">
<path d="M324.771 254.355V141.64H316.187V131.091H309.89V120.552H304.017V106.257H302.297V120.552H296.423V131.091H290.127V141.64H281.542V254.355H324.771ZM313.466 156.782H316.457V237.997H313.466V156.782ZM305.602 156.782H308.593V237.997H305.602V156.782ZM297.73 156.782H300.711V237.997H297.73V156.782ZM289.857 156.782H292.847V237.997H289.857V156.782Z" fill="url(#paint5_linear_1193_69574)"/>
</g>
<g filter="url(#filter2_d_1193_69574)">
<path d="M237.512 147.36V254.355H282.047V160.556L237.512 147.36ZM275.886 243.888H243.655V240.573H275.886V243.888ZM275.886 235.826H243.655V232.52H275.886V235.826ZM275.886 227.773H243.655V224.467H275.886V227.773ZM275.886 219.711H243.655V216.396H275.886V219.711ZM275.886 211.649H243.655V208.343H275.886V211.649ZM275.886 203.587H243.655V200.281H275.886V203.587ZM275.886 195.534H243.655V192.228H275.886V195.534ZM275.886 187.472H243.655V184.166H275.886V187.472ZM275.886 179.41H243.655V176.104H275.886V179.41ZM275.886 171.348H243.655V168.042H275.886V171.348Z" fill="url(#paint6_linear_1193_69574)"/>
</g>
<g filter="url(#filter3_d_1193_69574)">
<path d="M311.088 153.665V254.355H355.209V153.665H311.088ZM324.366 243.69H318.304V238.222H324.366V243.69ZM324.366 231.367H318.304V225.899H324.366V231.367ZM324.366 219.053H318.304V213.585H324.366V219.053ZM324.366 206.739H318.304V201.272H324.366V206.739ZM324.366 194.426H318.304V188.958H324.366V194.426ZM324.366 182.112H318.304V176.644H324.366V182.112ZM324.366 169.789H318.304V164.321H324.366V169.789ZM336.184 243.69H330.122V238.222H336.184V243.69ZM336.184 231.367H330.122V225.899H336.184V231.367ZM336.184 219.053H330.122V213.585H336.184V219.053ZM336.184 206.739H330.122V201.272H336.184V206.739ZM336.184 194.426H330.122V188.958H336.184V194.426ZM336.184 182.112H330.122V176.644H336.184V182.112ZM336.184 169.789H330.122V164.321H336.184V169.789ZM348.012 243.69H341.949V238.222H348.012V243.69ZM348.012 231.367H341.949V225.899H348.012V231.367ZM348.012 219.053H341.949V213.585H348.012V219.053ZM348.012 206.739H341.949V201.272H348.012V206.739ZM348.012 194.426H341.949V188.958H348.012V194.426ZM348.012 182.112H341.949V176.644H348.012V182.112ZM348.012 169.789H341.949V164.321H348.012V169.789Z" fill="url(#paint7_linear_1193_69574)"/>
</g>
<g filter="url(#filter4_d_1193_69574)">
<path d="M174.52 180.464H123.599V254.355H174.52V180.464Z" fill="url(#paint8_linear_1193_69574)"/>
</g>
<g filter="url(#filter5_d_1193_69574)">
<path d="M131.138 179.977V179.887H130.3V170.636H123.644V157.998H107.916V170.636H101.259V179.887H99.2683V179.977H94.8905V254.355H136.669V179.977H131.138ZM102.745 248.158H99.8989V245.311H102.745V248.158ZM102.745 240.591H99.8989V237.744H102.745V240.591ZM102.745 233.024H99.8989V230.178H102.745V233.024ZM102.745 225.449H99.8989V222.602H102.745V225.449ZM102.745 217.882H99.8989V215.036H102.745V217.882ZM102.745 210.316H99.8989V207.469H102.745V210.316ZM102.745 202.74H99.8989V199.893H102.745V202.74ZM102.745 195.173H99.8989V192.327H102.745V195.173ZM102.745 187.607H99.8989V184.76H102.745V187.607ZM109.871 248.158H107.024V245.311H109.871V248.158ZM109.871 240.591H107.024V237.744H109.871V240.591ZM109.871 233.024H107.024V230.178H109.871V233.024ZM109.871 225.449H107.024V222.602H109.871V225.449ZM109.871 217.882H107.024V215.036H109.871V217.882ZM109.871 210.316H107.024V207.469H109.871V210.316ZM109.871 202.74H107.024V199.893H109.871V202.74ZM109.871 195.173H107.024V192.327H109.871V195.173ZM109.871 187.607H107.024V184.76H109.871V187.607ZM116.987 248.158H114.14V245.311H116.987V248.158ZM116.987 240.591H114.14V237.744H116.987V240.591ZM116.987 233.024H114.14V230.178H116.987V233.024ZM116.987 225.449H114.14V222.602H116.987V225.449ZM116.987 217.882H114.14V215.036H116.987V217.882ZM116.987 210.316H114.14V207.469H116.987V210.316ZM116.987 202.74H114.14V199.893H116.987V202.74ZM116.987 195.173H114.14V192.327H116.987V195.173ZM116.987 187.607H114.14V184.76H116.987V187.607ZM124.103 248.158H121.257V245.311H124.103V248.158ZM124.103 240.591H121.257V237.744H124.103V240.591ZM124.103 233.024H121.257V230.178H124.103V233.024ZM124.103 225.449H121.257V222.602H124.103V225.449ZM124.103 217.882H121.257V215.036H124.103V217.882ZM124.103 210.316H121.257V207.469H124.103V210.316ZM124.103 202.74H121.257V199.893H124.103V202.74ZM124.103 195.173H121.257V192.327H124.103V195.173ZM124.103 187.607H121.257V184.76H124.103V187.607ZM131.219 248.158H128.373V245.311H131.219V248.158ZM131.219 240.591H128.373V237.744H131.219V240.591ZM131.219 233.024H128.373V230.178H131.219V233.024ZM131.219 225.449H128.373V222.602H131.219V225.449ZM131.219 217.882H128.373V215.036H131.219V217.882ZM131.219 210.316H128.373V207.469H131.219V210.316ZM131.219 202.74H128.373V199.893H131.219V202.74ZM131.219 195.173H128.373V192.327H131.219V195.173ZM131.219 187.607H128.373V184.76H131.219V187.607Z" fill="url(#paint9_linear_1193_69574)"/>
</g>
<g filter="url(#filter6_d_1193_69574)">
<path d="M209.11 129.407V98.8793H192.293V75.2336H187.924V98.8793H171.106V129.407H167.052V128.713V254.355H213.164V129.407H209.11ZM178.664 249.067H175.664V135.424H178.664V249.067ZM185.14 249.067H182.132V135.424H185.14V249.067ZM191.608 249.067H188.599V135.424H191.608V249.067ZM198.085 249.067H195.076V135.424H198.085V249.067ZM204.561 249.067H201.562V135.424H204.561V249.067Z" fill="url(#paint10_linear_1193_69574)"/>
</g>
<path d="M44.5276 255.184C67.4616 360.963 235.557 404.48 379.548 319.635C427.551 291.35 480.103 349.55 507.388 318.104C522.917 300.214 510.36 276.956 496.029 254.274H45.5094L44.5276 255.184Z" fill="url(#paint11_linear_1193_69574)"/>
<path style="mix-blend-mode:multiply" d="M396.055 137.385C416.992 132.536 430.034 111.632 425.185 90.6944C420.336 69.757 399.432 56.715 378.494 61.5642C357.557 66.4133 344.515 87.3175 349.364 108.255C354.213 129.192 375.117 142.234 396.055 137.385Z" fill="url(#paint12_radial_1193_69574)"/>
<g filter="url(#filter7_d_1193_69574)">
<path d="M507.334 135.631C520.989 135.631 514.441 114.382 499.74 114.382C498.884 114.382 498.046 114.463 497.227 114.607C496.326 104.933 488.192 97.357 478.274 97.357C476.77 97.357 475.311 97.5371 473.905 97.8704C470.5 93.3845 465.006 90.475 458.799 90.475C448.476 90.475 440.099 98.537 440.099 108.482C440.099 109.833 440.261 111.148 440.549 112.409C438.658 111.779 436.595 111.517 434.442 111.716C427.2 112.382 421.417 118.255 420.885 125.516C420.885 125.588 420.876 125.651 420.867 125.723C420.543 131.109 424.849 135.64 430.244 135.64H507.325L507.334 135.631Z" fill="white"/>
</g>
<g filter="url(#filter8_d_1193_69574)">
<path d="M309.782 71.3963C323.204 71.3963 316.763 50.5161 302.324 50.5161C301.477 50.5161 300.657 50.5971 299.855 50.7323C298.973 41.22 290.974 33.7705 281.227 33.7705C279.75 33.7705 278.309 33.9506 276.93 34.2749C273.588 29.8701 268.184 27.0056 262.085 27.0056C251.934 27.0056 243.709 34.9325 243.709 44.706C243.709 46.0302 243.863 47.3273 244.151 48.5704C242.286 47.9578 240.259 47.6966 238.152 47.8858C231.035 48.5343 225.351 54.3174 224.82 61.4426C224.82 61.5147 224.811 61.5777 224.802 61.6498C224.487 66.9464 228.711 71.4053 234.017 71.4053H309.782V71.3963Z" fill="white"/>
</g>
<g filter="url(#filter9_d_1193_69574)">
<path d="M122.319 137.163C135.219 137.163 129.03 117.093 115.149 117.093C114.338 117.093 113.546 117.165 112.771 117.309C111.924 108.166 104.232 101.014 94.8725 101.014C93.4493 101.014 92.0711 101.185 90.7379 101.501C87.5221 97.2668 82.3335 94.5104 76.4694 94.5104C66.7139 94.5104 58.805 102.122 58.805 111.517C58.805 112.796 58.9581 114.03 59.2284 115.229C57.4358 114.634 55.4901 114.382 53.4633 114.571C46.6264 115.202 41.1586 120.75 40.6542 127.605C40.6542 127.668 40.6452 127.74 40.6452 127.804C40.3389 132.893 44.4014 137.172 49.4999 137.172H122.301L122.319 137.163Z" fill="white"/>
</g>
<path d="M372.188 120.498C389.924 120.498 404.302 106.121 404.302 88.3851C404.302 70.6496 389.924 56.2721 372.188 56.2721C354.453 56.2721 340.075 70.6496 340.075 88.3851C340.075 106.121 354.453 120.498 372.188 120.498Z" fill="url(#paint13_linear_1193_69574)"/>
<path d="M522.206 297.701C522.197 297.512 522.179 297.323 522.152 297.133H522.161C522.179 297.323 522.197 297.512 522.206 297.701Z" fill="#329611"/>
<path style="mix-blend-mode:multiply" d="M91.5594 287.833C102.348 277.044 102.348 259.551 91.5594 248.762C80.7703 237.973 63.2778 237.973 52.4888 248.762C41.6997 259.551 41.6997 277.044 52.4888 287.833C63.2778 298.622 80.7703 298.622 91.5594 287.833Z" fill="url(#paint14_radial_1193_69574)"/>
<path style="mix-blend-mode:multiply" d="M68.8038 255.787C81.8977 255.787 92.5125 245.172 92.5125 232.078C92.5125 218.985 81.8977 208.37 68.8038 208.37C55.7098 208.37 45.0951 218.985 45.0951 232.078C45.0951 245.172 55.7098 255.787 68.8038 255.787Z" fill="url(#paint15_radial_1193_69574)"/>
<path d="M62.6963 335.885V211.811C62.6963 211.054 62.0748 210.433 61.3181 210.433C60.5615 210.433 59.9399 211.054 59.9399 211.811V335.885H62.6873H62.6963Z" fill="url(#paint16_linear_1193_69574)"/>
<path d="M83.5316 251.166C79.397 245.59 77.8116 238.456 79.6582 231.763C80.1536 229.98 80.3878 228.097 80.3338 226.151C80.0545 216.099 71.8394 207.919 61.7866 207.685C61.6335 207.685 61.4803 207.685 61.3272 207.685C50.824 207.685 42.3116 216.189 42.3116 226.692C42.3116 228.421 42.5458 230.088 42.9692 231.682C44.7978 238.411 43.2934 245.554 39.1318 251.148C35.7178 255.742 33.7001 261.435 33.7001 267.606C33.7001 282.793 46.1579 295.206 61.3182 295.215C61.4083 295.215 61.4983 295.215 61.5884 295.215C76.7126 295.071 88.9363 282.757 88.9363 267.597C88.9363 261.444 86.9185 255.76 83.5226 251.166H83.5316Z" fill="url(#paint17_linear_1193_69574)"/>
<path d="M83.5316 251.166C79.397 245.59 77.8116 238.456 79.6582 231.763C80.1536 229.98 80.3878 228.097 80.3338 226.151C80.0545 216.099 71.8394 207.919 61.7866 207.685C61.6335 207.685 61.4803 207.685 61.3272 207.685C50.824 207.685 42.3116 216.189 42.3116 226.692C42.3116 228.421 42.5458 230.088 42.9692 231.682C44.7978 238.411 43.2934 245.554 39.1318 251.148C35.7178 255.742 33.7001 261.435 33.7001 267.606C33.7001 282.793 46.1579 295.206 61.3182 295.215C61.4083 295.215 61.4983 295.215 61.5884 295.215C76.7126 295.071 88.9363 282.757 88.9363 267.597C88.9363 261.444 86.9185 255.76 83.5226 251.166H83.5316Z" fill="url(#paint18_linear_1193_69574)"/>
<g style="mix-blend-mode:multiply" opacity="0.49">
<path d="M83.5316 251.166C79.397 245.59 77.8116 238.456 79.6582 231.763C80.1536 229.98 80.3878 228.097 80.3338 226.151C80.0546 216.099 71.8394 207.919 61.7866 207.685C61.6335 207.685 61.4803 207.685 61.3272 207.685V295.206C61.4173 295.206 61.5074 295.206 61.5974 295.206C76.7216 295.062 88.9453 282.748 88.9453 267.588C88.9453 261.435 86.9276 255.751 83.5316 251.157V251.166Z" fill="#01C269"/>
</g>
<path style="mix-blend-mode:multiply" d="M455.827 309.051C477.428 309.051 494.939 291.54 494.939 269.939C494.939 248.338 477.428 230.826 455.827 230.826C434.226 230.826 416.714 248.338 416.714 269.939C416.714 291.54 434.226 309.051 455.827 309.051Z" fill="url(#paint19_radial_1193_69574)"/>
<path style="mix-blend-mode:multiply" d="M451.278 252.229C469.814 252.229 484.841 237.202 484.841 218.666C484.841 200.129 469.814 185.103 451.278 185.103C432.741 185.103 417.714 200.129 417.714 218.666C417.714 237.202 432.741 252.229 451.278 252.229Z" fill="url(#paint20_radial_1193_69574)"/>
<path d="M442.63 365.611V189.976C442.63 188.904 441.756 188.03 440.684 188.03C439.612 188.03 438.739 188.904 438.739 189.976V365.611H442.63Z" fill="url(#paint21_linear_1193_69574)"/>
<path d="M442.63 365.611V189.976C442.63 188.904 441.756 188.03 440.684 188.03C439.612 188.03 438.739 188.904 438.739 189.976V365.611H442.63Z" fill="url(#paint22_linear_1193_69574)"/>
<path d="M472.113 245.68C466.258 237.781 464.015 227.692 466.636 218.215C467.33 215.693 467.672 213.027 467.591 210.271C467.195 196.038 455.565 184.463 441.333 184.13C441.117 184.13 440.901 184.13 440.684 184.13C425.821 184.13 413.769 196.173 413.769 211.036C413.769 213.477 414.093 215.846 414.706 218.098C417.291 227.62 415.156 237.726 409.274 245.653C404.446 252.157 401.581 260.219 401.59 268.948C401.59 290.45 419.228 308.024 440.684 308.024C440.811 308.024 440.946 308.024 441.072 308.024C462.483 307.817 479.779 290.395 479.779 268.93C479.779 260.219 476.932 252.175 472.113 245.671V245.68Z" fill="url(#paint23_linear_1193_69574)"/>
<g style="mix-blend-mode:multiply" opacity="0.49">
<path d="M472.113 245.68C466.258 237.781 464.015 227.692 466.636 218.215C467.33 215.693 467.672 213.027 467.591 210.271C467.194 196.038 455.565 184.463 441.333 184.13C441.117 184.13 440.901 184.13 440.684 184.13V308.024C440.81 308.024 440.946 308.024 441.072 308.024C462.483 307.817 479.778 290.395 479.778 268.93C479.778 260.219 476.932 252.175 472.113 245.671V245.68Z" fill="#01C269"/>
</g>
<path style="mix-blend-mode:multiply" d="M423.641 310.199C436.084 297.756 436.084 277.583 423.641 265.141C411.199 252.698 391.026 252.698 378.583 265.141C366.141 277.583 366.141 297.756 378.583 310.198C391.026 322.641 411.199 322.641 423.641 310.199Z" fill="url(#paint24_radial_1193_69574)"/>
<path style="mix-blend-mode:multiply" d="M416.737 265.251C427.414 254.575 427.414 237.265 416.737 226.588C406.061 215.912 388.751 215.912 378.074 226.588C367.398 237.265 367.398 254.575 378.074 265.251C388.751 275.928 406.061 275.928 416.737 265.251Z" fill="url(#paint25_radial_1193_69574)"/>
<path d="M390.366 365.611V222.539C390.366 221.665 389.655 220.954 388.781 220.954C387.907 220.954 387.196 221.665 387.196 222.539V365.611H390.366Z" fill="url(#paint26_linear_1193_69574)"/>
<path d="M390.366 365.611V222.539C390.366 221.665 389.655 220.954 388.781 220.954C387.907 220.954 387.196 221.665 387.196 222.539V365.611H390.366Z" fill="url(#paint27_linear_1193_69574)"/>
<path d="M414.382 267.912C409.616 261.48 407.788 253.256 409.923 245.536C410.49 243.482 410.769 241.312 410.706 239.06C410.382 227.466 400.915 218.035 389.313 217.765C389.132 217.765 388.961 217.765 388.781 217.765C376.675 217.765 366.856 227.575 366.856 239.681C366.856 241.672 367.117 243.6 367.622 245.437C369.73 253.193 367.991 261.426 363.199 267.885C359.262 273.181 356.938 279.748 356.938 286.864C356.938 304.385 371.306 318.698 388.79 318.698C388.898 318.698 388.997 318.698 389.105 318.698C406.545 318.527 420.633 304.34 420.633 286.855C420.633 279.757 418.309 273.208 414.391 267.912H414.382Z" fill="url(#paint28_linear_1193_69574)"/>
<path d="M414.382 267.912C409.616 261.48 407.788 253.256 409.923 245.536C410.49 243.482 410.769 241.312 410.706 239.06C410.382 227.466 400.915 218.035 389.313 217.765C389.132 217.765 388.961 217.765 388.781 217.765C376.675 217.765 366.856 227.575 366.856 239.681C366.856 241.672 367.117 243.6 367.622 245.437C369.73 253.193 367.991 261.426 363.199 267.885C359.262 273.181 356.938 279.748 356.938 286.864C356.938 304.385 371.306 318.698 388.79 318.698C388.898 318.698 388.997 318.698 389.105 318.698C406.545 318.527 420.633 304.34 420.633 286.855C420.633 279.757 418.309 273.208 414.391 267.912H414.382Z" fill="url(#paint29_linear_1193_69574)"/>
<g style="mix-blend-mode:multiply" opacity="0.49">
<path d="M414.381 267.912C409.616 261.48 407.788 253.256 409.922 245.536C410.49 243.482 410.769 241.312 410.706 239.06C410.382 227.466 400.915 218.035 389.312 217.765C389.132 217.765 388.961 217.765 388.781 217.765V318.689C388.889 318.689 388.988 318.689 389.096 318.689C406.536 318.518 420.624 304.331 420.624 286.846C420.624 279.748 418.3 273.199 414.381 267.903V267.912Z" fill="#01C269"/>
</g>
<path style="mix-blend-mode:multiply" d="M304.864 364.593C304.864 379.492 299.828 393.22 291.388 404.174C255.167 411.632 222.739 413.002 193.986 410.2C182.393 398.481 175.223 382.366 175.223 364.593C175.223 328.796 204.246 299.773 240.043 299.773C275.841 299.773 304.864 328.796 304.864 364.593Z" fill="url(#paint30_radial_1193_69574)"/>
<path d="M280.281 381.06L268.373 322.238C267.706 318.959 264.833 316.608 261.491 316.608H169.485C166.143 316.608 163.26 318.959 162.603 322.238L150.694 381.06C149.811 385.41 153.135 389.482 157.576 389.482H190.545C195.094 389.482 198.787 393.166 198.787 397.724V419.848H232.188V397.724C232.188 393.175 235.873 389.482 240.431 389.482H273.399C277.84 389.482 281.164 385.41 280.281 381.06Z" fill="white"/>
<path d="M191.635 383.888H158.045L161.9 362.197H193.238L191.635 383.888Z" fill="url(#paint31_linear_1193_69574)"/>
<path d="M191.635 383.888H158.045L161.9 362.197H193.238L191.635 383.888Z" fill="url(#paint32_linear_1193_69574)"/>
<path d="M193.554 358.018H162.648L165.927 339.56H194.914L193.554 358.018Z" fill="url(#paint33_linear_1193_69574)"/>
<path d="M193.554 358.018H162.648L165.927 339.56H194.914L193.554 358.018Z" fill="url(#paint34_linear_1193_69574)"/>
<path d="M194.609 335.881H166L168.828 320H195.78L194.609 335.881Z" fill="url(#paint35_linear_1193_69574)"/>
<path d="M194.609 335.881H166L168.828 320H195.78L194.609 335.881Z" fill="url(#paint36_linear_1193_69574)"/>
<path d="M233.59 383.691H200L201.126 362H232.464L233.59 383.691Z" fill="url(#paint37_linear_1193_69574)"/>
<path d="M230.936 358.018H200.03L200.994 339.56H229.972L230.936 358.018Z" fill="url(#paint38_linear_1193_69574)"/>
<path d="M230.936 358.018H200.03L200.994 339.56H229.972L230.936 358.018Z" fill="url(#paint39_linear_1193_69574)"/>
<path d="M229.792 335.975H201.183L202.003 320.094H228.964L229.792 335.975Z" fill="url(#paint40_linear_1193_69574)"/>
<path d="M229.792 335.975H201.183L202.003 320.094H228.964L229.792 335.975Z" fill="url(#paint41_linear_1193_69574)"/>
<path d="M272.922 383.888H239.332L237.728 362.197H269.067L272.922 383.888Z" fill="url(#paint42_linear_1193_69574)"/>
<path d="M268.319 358.018H237.422L236.062 339.56H265.04L268.319 358.018Z" fill="url(#paint43_linear_1193_69574)"/>
<path d="M268.319 358.018H237.422L236.062 339.56H265.04L268.319 358.018Z" fill="url(#paint44_linear_1193_69574)"/>
<path d="M264.401 335.975H235.792L234.621 320.094H261.572L264.401 335.975Z" fill="url(#paint45_linear_1193_69574)"/>
<path d="M264.401 335.975H235.792L234.621 320.094H261.572L264.401 335.975Z" fill="url(#paint46_linear_1193_69574)"/>
<path d="M301.864 312.663C304.792 313.654 307.395 314.861 309.359 316.068C308.647 315.239 307.936 314.41 307.197 313.609C305.35 311.591 303.423 309.654 301.414 307.808C299.684 308.51 295.063 306.384 290.415 302.619C285.281 298.458 283.263 292.431 283.263 292.431C283.263 292.431 289.578 293.143 294.721 297.305C299.378 301.07 302.441 305.177 302.089 307.006C303.477 308.285 304.837 309.6 306.143 310.951C307.107 311.951 308.044 312.969 308.962 314.014C308.377 312.005 307.909 309.591 307.638 306.97C306.9 299.719 310.061 293.458 310.061 293.458C310.061 293.458 314.412 298.953 315.151 306.204C315.799 312.6 315.034 318.059 313.421 319.401C315.52 322.139 317.493 324.977 319.313 327.895C319.979 328.958 320.61 330.039 321.24 331.129C320.826 328.499 320.655 325.292 320.808 321.851C321.204 313.032 326.086 306.087 326.086 306.087C326.086 306.087 330.329 313.438 329.942 322.256C329.563 330.814 327.321 337.714 324.879 338.011C326.456 341.272 327.879 344.605 329.149 347.992C329.554 349.082 329.942 350.181 330.32 351.289C330.698 347.974 332.131 343.362 334.455 338.534C338.562 329.976 346.327 325.166 346.327 325.166C346.327 325.166 347.426 334.228 343.318 342.785C339.454 350.838 334.527 356.603 331.915 356.288C333.365 361.206 334.518 366.215 335.401 371.268C336.545 368.106 339.328 363.765 343.165 359.45C349.48 352.361 358.263 349.883 358.263 349.883C358.263 349.883 356.812 358.9 350.507 365.989C344.814 372.385 338.751 376.502 336.13 375.916C337.085 382.663 337.589 389.464 337.671 396.274C337.68 397.31 337.689 398.346 337.68 399.382C337.68 400.057 336.617 400.066 336.626 399.382C336.662 391.716 336.202 384.041 335.148 376.448C332.437 377.475 325.78 376.096 318.628 372.835C309.989 368.89 305.035 361.224 305.035 361.224C305.035 361.224 314.079 359.945 322.708 363.891C327.789 366.206 331.987 368.962 334.347 371.34C333.572 366.935 332.59 362.566 331.383 358.261C329.789 360.351 322.168 359.053 313.89 355.216C305.278 351.226 300.36 343.524 300.36 343.524C300.36 343.524 309.413 342.299 318.024 346.298C323.609 348.884 328.113 352 330.284 354.531C329.942 353.451 329.59 352.361 329.221 351.289C327.879 347.37 326.321 343.533 324.564 339.786C323.123 341.767 316.007 340.569 308.278 336.993C300.27 333.282 295.703 326.13 295.703 326.13C295.703 326.13 304.116 324.995 312.124 328.697C316.349 330.652 319.907 332.931 322.177 334.975C321.438 333.579 320.673 332.192 319.871 330.832C317.808 327.319 315.538 323.923 313.079 320.68C312.07 322.436 306.125 322.076 299.459 319.815C292.559 317.473 288.181 312.005 288.181 312.005C288.181 312.005 294.991 310.33 301.891 312.672L301.864 312.663Z" fill="white"/>
<path d="M131.381 306.096C128.463 306.583 125.833 307.321 123.788 308.15C124.58 307.474 125.391 306.808 126.211 306.168C128.256 304.556 130.372 303.024 132.561 301.592C134.084 302.529 138.768 301.232 143.731 298.403C149.217 295.278 152.045 289.9 152.045 289.9C152.045 289.9 145.983 289.594 140.497 292.729C135.525 295.566 132.003 298.953 132.057 300.736C130.553 301.727 129.075 302.754 127.625 303.835C126.562 304.628 125.526 305.448 124.499 306.285C125.364 304.484 126.175 302.277 126.832 299.845C128.643 293.125 126.634 286.738 126.634 286.738C126.634 286.738 121.689 291.251 119.869 297.971C118.266 303.907 118.149 309.168 119.464 310.681C117.059 312.933 114.771 315.302 112.6 317.779C111.807 318.68 111.042 319.599 110.285 320.527C111.078 318.113 111.735 315.113 112.123 311.843C113.113 303.475 109.582 296.17 109.582 296.17C109.582 296.17 104.448 302.448 103.457 310.816C102.493 318.95 103.547 325.796 105.799 326.445C103.808 329.273 101.953 332.192 100.232 335.201C99.6827 336.164 99.1422 337.146 98.6198 338.128C98.7819 334.939 98.1334 330.372 96.6921 325.463C94.1429 316.761 87.5671 311.032 87.5671 311.032C87.5671 311.032 85.135 319.41 87.6842 328.111C90.0893 336.3 93.8456 342.497 96.3498 342.596C94.2239 347.01 92.3683 351.55 90.7559 356.18C90.1704 353.027 88.2157 348.496 85.2611 343.839C80.4059 336.182 72.506 332.489 72.506 332.489C72.506 332.489 72.479 341.209 77.3342 348.866C81.721 355.775 86.7925 360.585 89.3507 360.441C87.414 366.647 85.8917 372.989 84.7567 379.393C84.5855 380.366 84.4234 381.348 84.2703 382.321C84.1712 382.96 85.162 383.122 85.2701 382.483C86.4141 375.25 88.0355 368.088 90.1974 361.089C92.6025 362.476 99.0882 362.206 106.331 360.224C115.077 357.837 120.941 351.379 120.941 351.379C120.941 351.379 112.618 348.784 103.862 351.163C98.7189 352.568 94.332 354.513 91.7378 356.387C93.143 352.352 94.7464 348.388 96.548 344.515C97.728 346.731 105.114 346.686 113.51 344.344C122.247 341.911 128.066 335.408 128.066 335.408C128.066 335.408 119.725 332.859 110.988 335.3C105.322 336.876 100.602 339.119 98.1604 341.173C98.6468 340.2 99.1422 339.236 99.6647 338.281C101.538 334.795 103.601 331.417 105.826 328.156C106.88 330.246 113.771 330.219 121.608 328.03C129.733 325.769 135.138 319.734 135.138 319.734C135.138 319.734 127.382 317.365 119.266 319.626C114.987 320.815 111.276 322.418 108.826 323.995C109.735 322.788 110.672 321.608 111.636 320.446C114.122 317.455 116.789 314.609 119.608 311.924C120.284 313.735 125.95 314.311 132.579 313.212C139.443 312.068 144.416 307.582 144.416 307.582C144.416 307.582 138.254 304.952 131.39 306.096H131.381Z" fill="white"/>
<path style="mix-blend-mode:multiply" d="M531.448 296.079C501.605 296.079 477.41 320.274 477.41 350.118C477.41 364.674 483.175 377.871 492.534 387.59C520.098 386.825 542.807 378.051 562.651 344.208C568.614 334.038 571.74 324.49 572.821 315.365C562.912 303.583 548.058 296.079 531.457 296.079H531.448Z" fill="url(#paint47_radial_1193_69574)"/>
<path d="M536.15 309.537C536.15 309.537 521.926 327.337 519.422 350.901C519.224 352.748 519.071 354.567 518.945 356.351C517.972 353.396 516.864 350.37 515.63 347.298C506.388 324.292 486.994 310.429 486.994 310.429C486.994 310.429 482.571 333.858 491.813 356.864C493.488 361.035 495.281 364.981 497.128 368.647C494.957 366.791 492.624 364.936 490.165 363.116C473.572 350.847 453.773 349.487 453.773 349.487C453.773 349.487 460.871 368.025 477.454 380.303C494.047 392.572 510.333 398.679 513.846 393.932C514.189 393.472 514.387 392.932 514.477 392.31C516.756 393.86 518.801 394.4 520.449 393.743C521.458 393.337 522.26 392.5 522.863 391.293C524.061 393.418 525.475 394.689 527.088 394.86C533.826 395.571 541.311 377.06 543.815 353.496C546.32 329.94 536.15 309.546 536.15 309.546V309.537Z" fill="white"/>
<defs>
<filter id="filter0_d_1193_69574" x="204.633" y="118.904" width="76.6659" height="150.765" filterUnits="userSpaceOnUse" color-interpolation-filters="sRGB">
<feFlood flood-opacity="0" result="BackgroundImageFix"/>
<feColorMatrix in="SourceAlpha" type="matrix" values="0 0 0 0 0 0 0 0 0 0 0 0 0 0 0 0 0 0 127 0" result="hardAlpha"/>
<feOffset dx="6.3055" dy="6.3055"/>
<feGaussianBlur stdDeviation="4.50393"/>
<feColorMatrix type="matrix" values="0 0 0 0 0.0117647 0 0 0 0 0.266667 0 0 0 0 0.054902 0 0 0 0.5 0"/>
<feBlend mode="normal" in2="BackgroundImageFix" result="effect1_dropShadow_1193_69574"/>
<feBlend mode="normal" in="SourceGraphic" in2="effect1_dropShadow_1193_69574" result="shape"/>
</filter>
<filter id="filter1_d_1193_69574" x="278.84" y="103.554" width="61.2445" height="166.114" filterUnits="userSpaceOnUse" color-interpolation-filters="sRGB">
<feFlood flood-opacity="0" result="BackgroundImageFix"/>
<feColorMatrix in="SourceAlpha" type="matrix" values="0 0 0 0 0 0 0 0 0 0 0 0 0 0 0 0 0 0 127 0" result="hardAlpha"/>
<feOffset dx="6.3055" dy="6.3055"/>
<feGaussianBlur stdDeviation="4.50393"/>
<feColorMatrix type="matrix" values="0 0 0 0 0.0117647 0 0 0 0 0.266667 0 0 0 0 0.054902 0 0 0 0.5 0"/>
<feBlend mode="normal" in2="BackgroundImageFix" result="effect1_dropShadow_1193_69574"/>
<feBlend mode="normal" in="SourceGraphic" in2="effect1_dropShadow_1193_69574" result="shape"/>
</filter>
<filter id="filter2_d_1193_69574" x="234.81" y="144.657" width="62.5506" height="125.011" filterUnits="userSpaceOnUse" color-interpolation-filters="sRGB">
<feFlood flood-opacity="0" result="BackgroundImageFix"/>
<feColorMatrix in="SourceAlpha" type="matrix" values="0 0 0 0 0 0 0 0 0 0 0 0 0 0 0 0 0 0 127 0" result="hardAlpha"/>
<feOffset dx="6.3055" dy="6.3055"/>
<feGaussianBlur stdDeviation="4.50393"/>
<feColorMatrix type="matrix" values="0 0 0 0 0.0117647 0 0 0 0 0.266667 0 0 0 0 0.054902 0 0 0 0.5 0"/>
<feBlend mode="normal" in2="BackgroundImageFix" result="effect1_dropShadow_1193_69574"/>
<feBlend mode="normal" in="SourceGraphic" in2="effect1_dropShadow_1193_69574" result="shape"/>
</filter>
<filter id="filter3_d_1193_69574" x="308.386" y="150.963" width="62.1362" height="118.706" filterUnits="userSpaceOnUse" color-interpolation-filters="sRGB">
<feFlood flood-opacity="0" result="BackgroundImageFix"/>
<feColorMatrix in="SourceAlpha" type="matrix" values="0 0 0 0 0 0 0 0 0 0 0 0 0 0 0 0 0 0 127 0" result="hardAlpha"/>
<feOffset dx="6.3055" dy="6.3055"/>
<feGaussianBlur stdDeviation="4.50393"/>
<feColorMatrix type="matrix" values="0 0 0 0 0.0117647 0 0 0 0 0.266667 0 0 0 0 0.054902 0 0 0 0.5 0"/>
<feBlend mode="normal" in2="BackgroundImageFix" result="effect1_dropShadow_1193_69574"/>
<feBlend mode="normal" in="SourceGraphic" in2="effect1_dropShadow_1193_69574" result="shape"/>
</filter>
<filter id="filter4_d_1193_69574" x="120.896" y="177.761" width="68.9372" height="91.9072" filterUnits="userSpaceOnUse" color-interpolation-filters="sRGB">
<feFlood flood-opacity="0" result="BackgroundImageFix"/>
<feColorMatrix in="SourceAlpha" type="matrix" values="0 0 0 0 0 0 0 0 0 0 0 0 0 0 0 0 0 0 127 0" result="hardAlpha"/>
<feOffset dx="6.3055" dy="6.3055"/>
<feGaussianBlur stdDeviation="4.50393"/>
<feColorMatrix type="matrix" values="0 0 0 0 0.0117647 0 0 0 0 0.266667 0 0 0 0 0.054902 0 0 0 0.5 0"/>
<feBlend mode="normal" in2="BackgroundImageFix" result="effect1_dropShadow_1193_69574"/>
<feBlend mode="normal" in="SourceGraphic" in2="effect1_dropShadow_1193_69574" result="shape"/>
</filter>
<filter id="filter5_d_1193_69574" x="92.1881" y="155.296" width="59.7942" height="114.373" filterUnits="userSpaceOnUse" color-interpolation-filters="sRGB">
<feFlood flood-opacity="0" result="BackgroundImageFix"/>
<feColorMatrix in="SourceAlpha" type="matrix" values="0 0 0 0 0 0 0 0 0 0 0 0 0 0 0 0 0 0 127 0" result="hardAlpha"/>
<feOffset dx="6.3055" dy="6.3055"/>
<feGaussianBlur stdDeviation="4.50393"/>
<feColorMatrix type="matrix" values="0 0 0 0 0.0117647 0 0 0 0 0.266667 0 0 0 0 0.054902 0 0 0 0.5 0"/>
<feBlend mode="normal" in2="BackgroundImageFix" result="effect1_dropShadow_1193_69574"/>
<feBlend mode="normal" in="SourceGraphic" in2="effect1_dropShadow_1193_69574" result="shape"/>
</filter>
<filter id="filter6_d_1193_69574" x="164.35" y="72.5313" width="64.127" height="197.137" filterUnits="userSpaceOnUse" color-interpolation-filters="sRGB">
<feFlood flood-opacity="0" result="BackgroundImageFix"/>
<feColorMatrix in="SourceAlpha" type="matrix" values="0 0 0 0 0 0 0 0 0 0 0 0 0 0 0 0 0 0 127 0" result="hardAlpha"/>
<feOffset dx="6.3055" dy="6.3055"/>
<feGaussianBlur stdDeviation="4.50393"/>
<feColorMatrix type="matrix" values="0 0 0 0 0.0117647 0 0 0 0 0.266667 0 0 0 0 0.054902 0 0 0 0.5 0"/>
<feBlend mode="normal" in2="BackgroundImageFix" result="effect1_dropShadow_1193_69574"/>
<feBlend mode="normal" in="SourceGraphic" in2="effect1_dropShadow_1193_69574" result="shape"/>
</filter>
<filter id="filter7_d_1193_69574" x="418.147" y="87.7726" width="111.976" height="63.1811" filterUnits="userSpaceOnUse" color-interpolation-filters="sRGB">
<feFlood flood-opacity="0" result="BackgroundImageFix"/>
<feColorMatrix in="SourceAlpha" type="matrix" values="0 0 0 0 0 0 0 0 0 0 0 0 0 0 0 0 0 0 127 0" result="hardAlpha"/>
<feOffset dx="6.3055" dy="6.3055"/>
<feGaussianBlur stdDeviation="4.50393"/>
<feColorMatrix type="matrix" values="0 0 0 0 0.0117647 0 0 0 0 0.266667 0 0 0 0 0.054902 0 0 0 0.5 0"/>
<feBlend mode="normal" in2="BackgroundImageFix" result="effect1_dropShadow_1193_69574"/>
<feBlend mode="normal" in="SourceGraphic" in2="effect1_dropShadow_1193_69574" result="shape"/>
</filter>
<filter id="filter8_d_1193_69574" x="222.083" y="24.3032" width="110.36" height="62.4155" filterUnits="userSpaceOnUse" color-interpolation-filters="sRGB">
<feFlood flood-opacity="0" result="BackgroundImageFix"/>
<feColorMatrix in="SourceAlpha" type="matrix" values="0 0 0 0 0 0 0 0 0 0 0 0 0 0 0 0 0 0 127 0" result="hardAlpha"/>
<feOffset dx="6.3055" dy="6.3055"/>
<feGaussianBlur stdDeviation="4.50393"/>
<feColorMatrix type="matrix" values="0 0 0 0 0.0117647 0 0 0 0 0.266667 0 0 0 0 0.054902 0 0 0 0.5 0"/>
<feBlend mode="normal" in2="BackgroundImageFix" result="effect1_dropShadow_1193_69574"/>
<feBlend mode="normal" in="SourceGraphic" in2="effect1_dropShadow_1193_69574" result="shape"/>
</filter>
<filter id="filter9_d_1193_69574" x="37.9265" y="91.8081" width="106.768" height="60.677" filterUnits="userSpaceOnUse" color-interpolation-filters="sRGB">
<feFlood flood-opacity="0" result="BackgroundImageFix"/>
<feColorMatrix in="SourceAlpha" type="matrix" values="0 0 0 0 0 0 0 0 0 0 0 0 0 0 0 0 0 0 127 0" result="hardAlpha"/>
<feOffset dx="6.3055" dy="6.3055"/>
<feGaussianBlur stdDeviation="4.50393"/>
<feColorMatrix type="matrix" values="0 0 0 0 0.0117647 0 0 0 0 0.266667 0 0 0 0 0.054902 0 0 0 0.5 0"/>
<feBlend mode="normal" in2="BackgroundImageFix" result="effect1_dropShadow_1193_69574"/>
<feBlend mode="normal" in="SourceGraphic" in2="effect1_dropShadow_1193_69574" result="shape"/>
</filter>
<linearGradient id="paint0_linear_1193_69574" x1="440.666" y1="362.188" x2="132.787" y2="54.2994" gradientUnits="userSpaceOnUse">
<stop stop-color="#5CD942"/>
<stop offset="1" stop-color="#BEF77C"/>
</linearGradient>
<linearGradient id="paint1_linear_1193_69574" x1="119.221" y1="40.3733" x2="409.913" y2="331.066" gradientUnits="userSpaceOnUse">
<stop stop-color="#5CD942"/>
<stop offset="1" stop-color="#26870E"/>
</linearGradient>
<linearGradient id="paint2_linear_1193_69574" x1="472" y1="254" x2="232.837" y2="137.766" gradientUnits="userSpaceOnUse">
<stop stop-color="#013E24"/>
<stop offset="1" stop-color="#009450"/>
</linearGradient>
<linearGradient id="paint3_linear_1193_69574" x1="41.8703" y1="199.452" x2="496.029" y2="199.452" gradientUnits="userSpaceOnUse">
<stop stop-color="#F2F9E1"/>
<stop offset="1" stop-color="#FEFFFA"/>
</linearGradient>
<linearGradient id="paint4_linear_1193_69574" x1="180.449" y1="160.144" x2="261.166" y2="282.319" gradientUnits="userSpaceOnUse">
<stop stop-color="#00C76B"/>
<stop offset="1" stop-color="#007E44"/>
</linearGradient>
<linearGradient id="paint5_linear_1193_69574" x1="261.725" y1="149.251" x2="359.623" y2="247.149" gradientUnits="userSpaceOnUse">
<stop stop-color="#00C76B"/>
<stop offset="1" stop-color="#007E44"/>
</linearGradient>
<linearGradient id="paint6_linear_1193_69574" x1="306.197" y1="253.878" x2="212.191" y2="159.872" gradientUnits="userSpaceOnUse">
<stop stop-color="#5CD942"/>
<stop offset="1" stop-color="#BEF77C"/>
</linearGradient>
<linearGradient id="paint7_linear_1193_69574" x1="398.375" y1="269.227" x2="292.01" y2="162.862" gradientUnits="userSpaceOnUse">
<stop stop-color="#5CD942"/>
<stop offset="1" stop-color="#BEF77C"/>
</linearGradient>
<linearGradient id="paint8_linear_1193_69574" x1="100.255" y1="201.915" x2="135.338" y2="284.744" gradientUnits="userSpaceOnUse">
<stop stop-color="#00C76B"/>
<stop offset="1" stop-color="#007E44"/>
</linearGradient>
<linearGradient id="paint9_linear_1193_69574" x1="55.4451" y1="152.35" x2="195.49" y2="292.395" gradientUnits="userSpaceOnUse">
<stop stop-color="#5CD942"/>
<stop offset="1" stop-color="#BEF77C"/>
</linearGradient>
<linearGradient id="paint10_linear_1193_69574" x1="255.014" y1="240.132" x2="116.554" y2="101.681" gradientUnits="userSpaceOnUse">
<stop stop-color="#5CD942"/>
<stop offset="1" stop-color="#BEF77C"/>
</linearGradient>
<linearGradient id="paint11_linear_1193_69574" x1="507" y1="336.5" x2="200.5" y2="254" gradientUnits="userSpaceOnUse">
<stop stop-color="#006C3E"/>
<stop offset="1" stop-color="#009B54"/>
</linearGradient>
<radialGradient id="paint12_radial_1193_69574" cx="0" cy="0" r="1" gradientUnits="userSpaceOnUse" gradientTransform="translate(387.271 99.4959) scale(38.914)">
<stop stop-color="#204416"/>
<stop offset="0.05" stop-color="#2D4F24"/>
<stop offset="0.4" stop-color="#869980"/>
<stop offset="0.69" stop-color="#C7D0C4"/>
<stop offset="0.89" stop-color="#EFF2EE"/>
<stop offset="1" stop-color="white"/>
</radialGradient>
<linearGradient id="paint13_linear_1193_69574" x1="400.5" y1="108" x2="381.474" y2="77.2187" gradientUnits="userSpaceOnUse">
<stop stop-color="#008446"/>
<stop offset="1" stop-color="#00B967"/>
</linearGradient>
<radialGradient id="paint14_radial_1193_69574" cx="0" cy="0" r="1" gradientUnits="userSpaceOnUse" gradientTransform="translate(72.022 268.294) scale(27.6271)">
<stop stop-color="#204416"/>
<stop offset="0.05" stop-color="#2D4F24"/>
<stop offset="0.4" stop-color="#869980"/>
<stop offset="0.69" stop-color="#C7D0C4"/>
<stop offset="0.89" stop-color="#EFF2EE"/>
<stop offset="1" stop-color="white"/>
</radialGradient>
<radialGradient id="paint15_radial_1193_69574" cx="0" cy="0" r="1" gradientUnits="userSpaceOnUse" gradientTransform="translate(68.8038 232.078) scale(23.7087 23.7087)">
<stop stop-color="#204416"/>
<stop offset="0.05" stop-color="#2D4F24"/>
<stop offset="0.4" stop-color="#869980"/>
<stop offset="0.69" stop-color="#C7D0C4"/>
<stop offset="0.89" stop-color="#EFF2EE"/>
<stop offset="1" stop-color="white"/>
</radialGradient>
<linearGradient id="paint16_linear_1193_69574" x1="120.049" y1="332.291" x2="46.5182" y2="258.76" gradientUnits="userSpaceOnUse">
<stop stop-color="#5CD942"/>
<stop offset="1" stop-color="#BEF77C"/>
</linearGradient>
<linearGradient id="paint17_linear_1193_69574" x1="130.228" y1="322.112" x2="56.6971" y2="248.581" gradientUnits="userSpaceOnUse">
<stop stop-color="#5CD942"/>
<stop offset="1" stop-color="#BEF77C"/>
</linearGradient>
<linearGradient id="paint18_linear_1193_69574" x1="130.213" y1="322.126" x2="56.6821" y2="248.595" gradientUnits="userSpaceOnUse">
<stop stop-color="#009752"/>
<stop offset="1" stop-color="#00CE70"/>
</linearGradient>
<radialGradient id="paint19_radial_1193_69574" cx="0" cy="0" r="1" gradientUnits="userSpaceOnUse" gradientTransform="translate(455.827 269.939) scale(39.1121)">
<stop stop-color="#204416"/>
<stop offset="0.05" stop-color="#2D4F24"/>
<stop offset="0.4" stop-color="#869980"/>
<stop offset="0.69" stop-color="#C7D0C4"/>
<stop offset="0.89" stop-color="#EFF2EE"/>
<stop offset="1" stop-color="white"/>
</radialGradient>
<radialGradient id="paint20_radial_1193_69574" cx="0" cy="0" r="1" gradientUnits="userSpaceOnUse" gradientTransform="translate(451.278 218.666) scale(33.5633 33.5633)">
<stop stop-color="#204416"/>
<stop offset="0.05" stop-color="#2D4F24"/>
<stop offset="0.4" stop-color="#869980"/>
<stop offset="0.69" stop-color="#C7D0C4"/>
<stop offset="0.89" stop-color="#EFF2EE"/>
<stop offset="1" stop-color="white"/>
</radialGradient>
<linearGradient id="paint21_linear_1193_69574" x1="523.809" y1="360.522" x2="419.723" y2="256.436" gradientUnits="userSpaceOnUse">
<stop stop-color="#5CD942"/>
<stop offset="1" stop-color="#BEF77C"/>
</linearGradient>
<linearGradient id="paint22_linear_1193_69574" x1="445.538" y1="420.209" x2="435.19" y2="419.849" gradientUnits="userSpaceOnUse">
<stop stop-color="#009752"/>
<stop offset="1" stop-color="#00CE70"/>
</linearGradient>
<linearGradient id="paint23_linear_1193_69574" x1="538.207" y1="346.115" x2="434.127" y2="242.03" gradientUnits="userSpaceOnUse">
<stop stop-color="#009752"/>
<stop offset="1" stop-color="#00CE70"/>
</linearGradient>
<radialGradient id="paint24_radial_1193_69574" cx="0" cy="0" r="1" gradientUnits="userSpaceOnUse" gradientTransform="translate(401.109 287.672) scale(31.8608)">
<stop stop-color="#204416"/>
<stop offset="0.05" stop-color="#2D4F24"/>
<stop offset="0.4" stop-color="#869980"/>
<stop offset="0.69" stop-color="#C7D0C4"/>
<stop offset="0.89" stop-color="#EFF2EE"/>
<stop offset="1" stop-color="white"/>
</radialGradient>
<radialGradient id="paint25_radial_1193_69574" cx="0" cy="0" r="1" gradientUnits="userSpaceOnUse" gradientTransform="translate(397.399 245.92) scale(27.3389)">
<stop stop-color="#204416"/>
<stop offset="0.05" stop-color="#2D4F24"/>
<stop offset="0.4" stop-color="#869980"/>
<stop offset="0.69" stop-color="#C7D0C4"/>
<stop offset="0.89" stop-color="#EFF2EE"/>
<stop offset="1" stop-color="white"/>
</radialGradient>
<linearGradient id="paint26_linear_1193_69574" x1="456.494" y1="361.467" x2="371.703" y2="276.676" gradientUnits="userSpaceOnUse">
<stop stop-color="#5CD942"/>
<stop offset="1" stop-color="#BEF77C"/>
</linearGradient>
<linearGradient id="paint27_linear_1193_69574" x1="392.736" y1="410.086" x2="384.304" y2="409.793" gradientUnits="userSpaceOnUse">
<stop stop-color="#009752"/>
<stop offset="1" stop-color="#00CE70"/>
</linearGradient>
<linearGradient id="paint28_linear_1193_69574" x1="468.231" y1="349.73" x2="383.44" y2="264.939" gradientUnits="userSpaceOnUse">
<stop stop-color="#009752"/>
<stop offset="1" stop-color="#00CE70"/>
</linearGradient>
<linearGradient id="paint29_linear_1193_69574" x1="468.231" y1="349.73" x2="383.44" y2="264.939" gradientUnits="userSpaceOnUse">
<stop stop-color="#009752"/>
<stop offset="1" stop-color="#00CE70"/>
</linearGradient>
<radialGradient id="paint30_radial_1193_69574" cx="0" cy="0" r="1" gradientUnits="userSpaceOnUse" gradientTransform="translate(240.548 364.251) scale(57.4071 57.4071)">
<stop stop-color="#204416"/>
<stop offset="0.14" stop-color="#234719"/>
<stop offset="0.27" stop-color="#2E5025"/>
<stop offset="0.4" stop-color="#405F38"/>
<stop offset="0.53" stop-color="#5A7553"/>
<stop offset="0.65" stop-color="#7B9075"/>
<stop offset="0.78" stop-color="#A4B2A0"/>
<stop offset="0.9" stop-color="#D3DAD1"/>
<stop offset="1" stop-color="white"/>
</radialGradient>
<linearGradient id="paint31_linear_1193_69574" x1="136.633" y1="334.039" x2="207.255" y2="404.651" gradientUnits="userSpaceOnUse">
<stop stop-color="#5CD942"/>
<stop offset="1" stop-color="#26870E"/>
</linearGradient>
<linearGradient id="paint32_linear_1193_69574" x1="167" y1="291.5" x2="266.5" y2="384" gradientUnits="userSpaceOnUse">
<stop stop-color="#01CE6E"/>
<stop offset="1" stop-color="#016D3F"/>
</linearGradient>
<linearGradient id="paint33_linear_1193_69574" x1="150.334" y1="320.338" x2="220.947" y2="390.959" gradientUnits="userSpaceOnUse">
<stop stop-color="#5CD942"/>
<stop offset="1" stop-color="#26870E"/>
</linearGradient>
<linearGradient id="paint34_linear_1193_69574" x1="147" y1="302" x2="262.035" y2="388.589" gradientUnits="userSpaceOnUse">
<stop stop-color="#01CE6E"/>
<stop offset="1" stop-color="#016D3F"/>
</linearGradient>
<linearGradient id="paint35_linear_1193_69574" x1="161.478" y1="308.524" x2="232.1" y2="379.146" gradientUnits="userSpaceOnUse">
<stop stop-color="#5CD942"/>
<stop offset="1" stop-color="#26870E"/>
</linearGradient>
<linearGradient id="paint36_linear_1193_69574" x1="148.5" y1="295" x2="252.887" y2="392.163" gradientUnits="userSpaceOnUse">
<stop stop-color="#01CE6E"/>
<stop offset="1" stop-color="#016D3F"/>
</linearGradient>
<linearGradient id="paint37_linear_1193_69574" x1="141.004" y1="294.558" x2="269.044" y2="370.527" gradientUnits="userSpaceOnUse">
<stop stop-color="#01CE6E"/>
<stop offset="1" stop-color="#016D3F"/>
</linearGradient>
<linearGradient id="paint38_linear_1193_69574" x1="168.44" y1="302.223" x2="239.061" y2="372.844" gradientUnits="userSpaceOnUse">
<stop stop-color="#5CD942"/>
<stop offset="1" stop-color="#26870E"/>
</linearGradient>
<linearGradient id="paint39_linear_1193_69574" x1="145.749" y1="282.173" x2="262.815" y2="383.191" gradientUnits="userSpaceOnUse">
<stop stop-color="#01CE6E"/>
<stop offset="1" stop-color="#016D3F"/>
</linearGradient>
<linearGradient id="paint40_linear_1193_69574" x1="178.853" y1="291.819" x2="249.475" y2="362.431" gradientUnits="userSpaceOnUse">
<stop stop-color="#5CD942"/>
<stop offset="1" stop-color="#26870E"/>
</linearGradient>
<linearGradient id="paint41_linear_1193_69574" x1="150.936" y1="270.717" x2="256.805" y2="396.597" gradientUnits="userSpaceOnUse">
<stop offset="0.056111" stop-color="#01CE6E"/>
<stop offset="1" stop-color="#016D3F"/>
</linearGradient>
<linearGradient id="paint42_linear_1193_69574" x1="175.916" y1="294.755" x2="246.529" y2="365.377" gradientUnits="userSpaceOnUse">
<stop stop-color="#01CE6E"/>
<stop offset="1" stop-color="#016D3F"/>
</linearGradient>
<linearGradient id="paint43_linear_1193_69574" x1="186.555" y1="284.117" x2="257.176" y2="354.73" gradientUnits="userSpaceOnUse">
<stop stop-color="#5CD942"/>
<stop offset="1" stop-color="#26870E"/>
</linearGradient>
<linearGradient id="paint44_linear_1193_69574" x1="179.407" y1="282.173" x2="260.313" y2="385.518" gradientUnits="userSpaceOnUse">
<stop stop-color="#01CE6E"/>
<stop offset="1" stop-color="#016D3F"/>
</linearGradient>
<linearGradient id="paint45_linear_1193_69574" x1="195.662" y1="275.01" x2="266.274" y2="345.632" gradientUnits="userSpaceOnUse">
<stop stop-color="#5CD942"/>
<stop offset="1" stop-color="#26870E"/>
</linearGradient>
<linearGradient id="paint46_linear_1193_69574" x1="182.317" y1="270.717" x2="251.513" y2="394.551" gradientUnits="userSpaceOnUse">
<stop stop-color="#01CE6E"/>
<stop offset="1" stop-color="#016D3F"/>
</linearGradient>
<radialGradient id="paint47_radial_1193_69574" cx="0" cy="0" r="1" gradientUnits="userSpaceOnUse" gradientTransform="translate(533.213 355.801) scale(46.7418 46.7418)">
<stop stop-color="#204416"/>
<stop offset="0.14" stop-color="#234719"/>
<stop offset="0.27" stop-color="#2E5025"/>
<stop offset="0.4" stop-color="#405F38"/>
<stop offset="0.53" stop-color="#5A7553"/>
<stop offset="0.65" stop-color="#7B9075"/>
<stop offset="0.78" stop-color="#A4B2A0"/>
<stop offset="0.9" stop-color="#D3DAD1"/>
<stop offset="1" stop-color="white"/>
</radialGradient>
</defs>
</svg>
